<svg width="300" height="176" viewBox="0 0 300 176" fill="none" xmlns="http://www.w3.org/2000/svg">
<path d="M27.407 175.806C42.1184 175.806 54.0444 174.327 54.0444 172.503C54.0444 170.678 42.1184 169.199 27.407 169.199C12.6955 169.199 0.769531 170.678 0.769531 172.503C0.769531 174.327 12.6955 175.806 27.407 175.806Z" fill="#E3D7D5"/>
<path d="M70.9597 34.0293C69.0642 36.5483 66.9223 38.9616 64.4989 41.1387C62.0855 43.3157 59.3956 45.2514 56.5197 46.8603C55.3382 47.524 53.9455 47.4587 52.8645 46.8101L52.4522 46.5587L36.8709 37.1818C34.4174 35.7036 33.623 32.5159 35.1012 30.0624C36.5793 27.6088 39.767 26.8144 42.2206 28.2926C42.4016 28.4032 42.5976 28.5389 42.7636 28.6696L55.303 38.5745C56.9622 37.7449 58.566 36.7846 60.1046 35.6986C62.352 34.1098 64.4536 32.2545 66.4195 30.1981L66.4296 30.183C67.5659 28.9965 69.4513 28.9512 70.6379 30.0875C71.739 31.1433 71.8546 32.8427 70.9597 34.0293Z" fill="#6A48E8"/>
<path d="M73.2304 31.3647C73.1901 31.3748 73.1499 31.3848 73.1097 31.3949C73.1097 31.3949 73.0594 31.4854 72.9689 31.6362C72.5215 32.3451 71.0684 34.3462 69.3439 33.6775C69.2081 33.6272 69.0774 33.5669 68.9567 33.5066C68.821 33.4362 68.6852 33.3607 68.5595 33.2803C67.0512 32.33 66.4478 30.7664 66.4478 30.7664C66.4478 30.7664 66.0355 27.2368 67.4634 26.3922C68.288 25.9045 68.7707 26.0352 69.0271 26.2363C69.2131 26.3821 69.2835 26.5631 69.2835 26.5631C69.2835 26.5631 69.3589 26.4676 69.4947 26.3017C70.2489 25.3615 72.8131 22.214 73.4466 22.1437C74.1907 22.0632 71.5611 26.5329 71.5611 26.5329C71.5611 26.5329 72.1846 26.3469 73.4717 27.629C74.7337 28.891 75.2214 30.8418 73.2354 31.3647H73.2304Z" fill="#FDBB92"/>
<path d="M71.0992 29.5349C71.0087 29.5349 70.9333 29.4696 70.9182 29.3791C70.9031 29.2785 70.9685 29.188 71.069 29.1729C71.0841 29.1729 71.5969 29.0573 72.1198 28.1523C72.1701 28.0668 72.2807 28.0366 72.3712 28.0869C72.4567 28.1372 72.4869 28.2478 72.4366 28.3383C71.8081 29.4193 71.1545 29.5299 71.1293 29.5349C71.1193 29.5349 71.1092 29.5349 71.0992 29.5349Z" fill="#FD967D"/>
<path d="M71.9027 30.7324C71.8223 30.7324 71.7469 30.6771 71.7268 30.5967C71.7016 30.5012 71.7569 30.4006 71.8525 30.3704C71.8675 30.3704 72.7625 30.104 73.1295 29.2744C73.1697 29.1839 73.2804 29.1386 73.3709 29.1788C73.4614 29.2191 73.5066 29.3297 73.4664 29.4202C73.029 30.4157 71.9983 30.7123 71.953 30.7224C71.9379 30.7224 71.9178 30.7274 71.9027 30.7274V30.7324Z" fill="#FD967D"/>
<path d="M70.2544 28.4095C70.1035 28.5955 69.8119 28.6659 69.47 28.6659C68.6354 28.6659 67.479 28.2586 67.1824 28.148C67.0868 28.1128 67.0416 28.0072 67.0718 27.9117C67.107 27.8162 67.2125 27.7659 67.3081 27.8011C68.2282 28.143 69.7114 28.5 69.9678 28.1732C70.0583 28.0626 69.9829 27.8011 69.7617 27.4542L69.0175 26.2324C69.2036 26.3782 69.274 26.5592 69.274 26.5592C69.274 26.5592 69.3494 26.4637 69.4851 26.2978L70.0734 27.2631C70.194 27.4492 70.5611 28.0274 70.2544 28.4095Z" fill="#FD967D"/>
<path d="M73.2316 31.3652C73.1913 31.3752 73.1511 31.3853 73.1109 31.3953C73.1109 31.3953 73.0606 31.4858 72.9701 31.6367C69.9484 29.8719 70.7579 27.3077 70.7679 27.2826C70.7981 27.187 70.9037 27.1317 70.9992 27.1669C71.0947 27.1971 71.145 27.3027 71.1148 27.3982C71.0796 27.4988 70.3808 29.7613 73.2316 31.3702V31.3652Z" fill="#FD967D"/>
<path d="M29.3169 100.805L25.3047 161.401L31.8911 160.994L46.1249 85.4102L30.6241 85.933L29.3169 100.805Z" fill="#002029"/>
<path d="M25.7672 160.973L25.3047 166.74C25.3047 166.74 27.2957 167.892 30.3375 167.354L31.2928 160.541L25.7723 160.978L25.7672 160.973Z" fill="#FDBB92"/>
<path d="M32.7564 159.766C33.0983 160.982 32.8921 162.144 32.4899 163.3L24.5962 162.928C24.3448 161.772 24.3348 160.615 24.5308 159.459L32.7564 159.766Z" fill="#173953"/>
<path d="M44.0652 173.336C43.6379 174.246 24.869 173.27 24.869 173.27C24.869 173.27 24.2707 167.694 24.8639 165.98C25.4522 164.26 28.1873 166.191 30.0627 165.759C30.0627 165.759 31.1839 164.2 32.099 164.255C32.4359 164.275 33.6174 165.035 35.0956 166.01C35.3319 166.166 35.5833 166.332 35.8347 166.498C36.0107 166.613 36.1866 166.734 36.3676 166.85C36.6592 167.046 36.9609 167.237 37.2576 167.433C37.3682 167.503 37.4838 167.579 37.5944 167.649C37.8659 167.825 38.1425 168.001 38.414 168.167C40.0581 169.193 41.6167 170.057 42.5167 170.218C44.93 170.646 44.4876 172.426 44.0602 173.336H44.0652Z" fill="#6A48E8"/>
<path d="M37.2518 167.428C36.9702 167.393 36.6132 167.428 36.221 167.629C35.4216 168.046 34.7781 169.198 34.768 169.213C34.7278 169.293 34.6574 169.343 34.5769 169.374C34.4915 169.404 34.3959 169.394 34.3155 169.348C34.1546 169.258 34.0943 169.052 34.1848 168.891C34.2149 168.836 34.9289 167.548 35.9143 167.036C36.0652 166.955 36.216 166.895 36.3618 166.85C36.8546 166.89 37.2668 167 37.2518 167.433V167.428Z" fill="white"/>
<path d="M35.8297 166.497C35.6386 166.523 35.4325 166.583 35.2113 166.699C34.4068 167.121 33.7683 168.267 33.7633 168.282C33.723 168.358 33.6527 168.413 33.5672 168.438C33.4817 168.463 33.3862 168.458 33.3057 168.413C33.1448 168.323 33.0845 168.121 33.175 167.956C33.2052 167.9 33.9191 166.613 34.9046 166.1C34.9699 166.065 35.0303 166.035 35.0956 166.01C35.4124 166.035 35.7643 166.015 35.8347 166.497H35.8297Z" fill="white"/>
<path d="M38.4145 168.167C38.1782 168.167 37.8966 168.223 37.6 168.384C36.7955 168.806 36.157 169.952 36.1519 169.967C36.1067 170.048 36.0363 170.103 35.9559 170.128C35.8704 170.153 35.7749 170.148 35.6944 170.103C35.5335 170.013 35.4732 169.806 35.5637 169.645C35.5938 169.59 36.3078 168.303 37.2933 167.79C37.3938 167.735 37.4994 167.69 37.6 167.654C38.1329 167.604 38.4547 167.74 38.4195 168.172L38.4145 168.167Z" fill="white"/>
<path d="M10.4277 161.631L16.2902 161.897L31.3184 126.396L34.4004 87.9682L20.6443 85.8766L19.8801 85.761L17.5823 85.4141C18.5829 93.6295 20.0158 122.675 20.0158 122.675C20.0158 122.675 17.5019 128.679 15.4908 135.818C13.4796 142.963 10.4277 161.636 10.4277 161.636V161.631Z" fill="#173953"/>
<path d="M11.735 161.244C11.735 161.244 11.7802 161.249 11.8003 161.249C11.9763 161.249 12.1372 161.123 12.1724 160.942C12.2076 160.746 15.7522 141.263 17.8589 135.079C19.2415 131.006 22.7258 122.866 22.761 122.786C22.7811 122.736 22.7962 122.675 22.7912 122.615L20.6393 85.8715L19.875 85.7559L22.032 122.57C21.6599 123.439 18.4622 130.956 17.1449 134.833C15.0232 141.072 11.4685 160.605 11.4333 160.806C11.3981 161.012 11.5338 161.209 11.735 161.244Z" fill="#002029"/>
<path d="M11.2678 160.876L9.56836 166.738C9.56836 166.738 11.5594 167.89 14.6012 167.352L16.2956 160.479L11.2728 160.876H11.2678Z" fill="#FDBB92"/>
<path d="M17.8948 160.244C18.1865 161.652 18.101 162.697 17.03 163.552L8.77938 163.075C8.52798 161.918 8.6386 160.787 9.06596 159.711L17.8898 160.244H17.8948Z" fill="#2A5B74"/>
<path d="M27.9598 173.336C27.5324 174.246 8.76351 173.27 8.76351 173.27C8.76351 173.27 8.16519 167.694 8.75848 165.98C9.34673 164.26 12.0819 166.191 13.9573 165.759C13.9573 165.759 15.0835 164.2 15.9935 164.255C16.3304 164.275 17.5119 165.035 18.9901 166.01C19.2264 166.166 19.4778 166.332 19.7292 166.498C19.9052 166.613 20.0812 166.734 20.2622 166.85C20.5538 167.046 20.8554 167.237 21.1521 167.433C21.2677 167.503 21.3783 167.579 21.4889 167.649C21.7605 167.825 22.037 168.001 22.3085 168.167C23.9526 169.193 25.5112 170.057 26.4112 170.218C28.8246 170.646 28.3821 172.426 27.9547 173.336H27.9598Z" fill="#6A48E8"/>
<path d="M21.1521 167.428C20.8706 167.393 20.5186 167.428 20.1214 167.629C19.322 168.046 18.6784 169.198 18.6684 169.213C18.6282 169.293 18.5578 169.343 18.4773 169.374C18.3919 169.404 18.2963 169.394 18.2159 169.348C18.055 169.258 17.9947 169.052 18.0852 168.891C18.1153 168.836 18.8293 167.548 19.8147 167.036C19.9656 166.955 20.1164 166.895 20.2622 166.85C20.7549 166.89 21.1672 167 21.1521 167.433V167.428Z" fill="white"/>
<path d="M19.7242 166.497C19.5332 166.523 19.322 166.583 19.1058 166.699C18.3014 167.121 17.6628 168.267 17.6578 168.282C17.6176 168.358 17.5422 168.413 17.4617 168.438C17.3762 168.463 17.2807 168.458 17.2003 168.413C17.0394 168.323 16.979 168.121 17.0695 167.956C17.0997 167.9 17.8137 166.613 18.7991 166.1C18.8645 166.065 18.9248 166.035 18.9902 166.01C19.3069 166.035 19.6589 166.015 19.7293 166.497H19.7242Z" fill="white"/>
<path d="M22.3149 168.167C22.0785 168.167 21.797 168.223 21.5003 168.384C20.6959 168.806 20.0574 169.952 20.0523 169.967C20.0071 170.048 19.9367 170.103 19.8562 170.128C19.7708 170.153 19.6752 170.148 19.5948 170.103C19.4339 170.013 19.3736 169.806 19.4641 169.645C19.4942 169.59 20.2082 168.303 21.1936 167.79C21.2942 167.735 21.3998 167.69 21.5003 167.654C22.0333 167.604 22.3551 167.74 22.3199 168.172L22.3149 168.167Z" fill="white"/>
<path d="M45.0912 87.9632C42.175 89.4917 22.9084 89.2001 18.5945 86.7365C17.2621 85.9773 16.6487 81.0651 16.4627 74.4937C16.4526 74.197 16.4476 73.8954 16.4426 73.5887C16.4174 72.382 16.4023 71.1301 16.4023 69.8379V69.4407C16.4023 68.8675 16.4023 68.2893 16.4074 67.7111C16.4074 67.2335 16.4174 66.7559 16.4225 66.2682C16.4325 65.6799 16.4426 65.0866 16.4526 64.4883C16.4526 64.3777 16.4526 64.2671 16.4577 64.1565C16.4627 63.8799 16.4677 63.6034 16.4778 63.3269C16.4828 63.0906 16.4878 62.8543 16.4979 62.6179L16.513 61.9995C16.518 61.8034 16.523 61.6124 16.528 61.4163C16.5582 60.3755 16.5934 59.3297 16.6336 58.289C16.6437 57.9823 16.6537 57.6756 16.6688 57.3689C16.7342 55.7901 16.8046 54.2215 16.88 52.683C16.885 52.5522 16.89 52.4215 16.9001 52.2908C16.9202 51.9187 16.9353 51.5567 16.9554 51.1897C16.9655 51.0338 16.9705 50.8729 16.9805 50.7171C16.9906 50.5461 17.0007 50.3752 17.0057 50.2042C17.0157 49.983 17.0308 49.7668 17.0409 49.5506C17.0509 49.3797 17.061 49.2087 17.071 49.0378C17.0811 48.8769 17.0912 48.721 17.1012 48.5601C17.1264 48.1629 17.1465 47.7657 17.1716 47.3786C17.1766 47.2479 17.1867 47.1171 17.1967 46.9864C17.6241 40.1586 18.1118 34.7436 18.3833 33.175C19.2632 28.0617 31.6015 22.9785 31.6015 22.9785L37.1924 24.7936C37.5192 24.8991 37.841 25.0198 38.1527 25.1556C38.3488 25.241 38.5449 25.3315 38.7309 25.4271C42.6376 27.403 45.0007 31.6163 44.5331 36.081C44.347 37.886 44.2666 39.8871 44.2565 41.9485C44.2565 42.2904 44.2565 42.6373 44.2565 42.9792C44.2565 43.9647 44.2766 44.9602 44.3018 45.9557C44.3118 46.2976 44.3219 46.6345 44.332 46.9764C44.332 46.9914 44.332 47.0015 44.332 47.0166C44.332 47.1875 44.342 47.3585 44.347 47.5294C44.347 47.6903 44.3571 47.8462 44.3621 48.002C44.3671 48.173 44.3772 48.3439 44.3822 48.5149C44.4023 49.0579 44.4225 49.5959 44.4476 50.1288C44.4526 50.2897 44.4627 50.4506 44.4677 50.6115C44.4878 51.0489 44.5029 51.4813 44.523 51.9087C44.528 52.0696 44.5381 52.2355 44.5431 52.3913C44.5733 53.1405 44.6035 53.8745 44.6286 54.5734C44.6336 54.7796 44.6437 54.9857 44.6487 55.1868C44.6487 55.3779 44.6588 55.5639 44.6638 55.7499C44.6688 55.946 44.6738 56.1371 44.6789 56.3231C44.699 57.3236 44.704 58.2437 44.6889 59.0582C44.6889 59.1437 44.6889 59.2242 44.6839 59.3096C44.6738 59.5661 44.6738 59.8275 44.6688 60.099C44.6588 61.175 44.694 62.3515 44.7643 63.6034C44.7744 63.7693 44.7794 63.9403 44.7945 64.1062C44.8046 64.2621 44.8146 64.4129 44.8197 64.5687C44.8297 64.7347 44.8448 64.9006 44.8548 65.0665C44.88 65.4687 44.9102 65.876 44.9453 66.2883C44.9604 66.4894 44.9805 66.6905 44.9956 66.8966C44.9956 66.9167 44.9956 66.9419 45.0007 66.962C45.0007 66.972 45.0007 66.9821 45.0007 66.9922C45.0107 67.148 45.0258 67.3039 45.0409 67.4547C45.0409 67.4748 45.0409 67.4949 45.0409 67.5151C45.061 67.8067 45.0912 68.0983 45.1163 68.3899C45.1263 68.5257 45.1364 68.6564 45.1515 68.7871C45.1867 69.1893 45.2219 69.5915 45.2621 69.9938C45.3325 70.7228 45.4029 71.4519 45.4733 72.1809C46.1973 79.7427 46.8961 87.013 45.0912 87.9632Z" fill="#6A48E8"/>
<path d="M39.0075 78.5869C34.9852 78.5869 31.4456 77.2143 29.0021 75.9171C25.734 74.1825 23.7279 72.2669 23.6424 72.1864C23.5167 72.0658 23.5117 71.8647 23.6324 71.744C23.753 71.6183 23.9541 71.6133 24.0748 71.7339C24.0949 71.754 26.1161 73.6797 29.3088 75.3691C32.24 76.9227 36.7902 78.5919 41.8281 77.7171C41.999 77.6869 42.1599 77.8025 42.1901 77.9735C42.2203 78.1444 42.1046 78.3053 41.9337 78.3355C40.9331 78.5064 39.9527 78.5869 39.0024 78.5869H39.0075Z" fill="#6A48E8"/>
<path d="M33.336 36.5549C33.2002 36.5549 33.0695 36.4644 33.0343 36.3236C32.989 36.1577 33.0896 35.9817 33.2555 35.9364C33.3058 35.9214 38.1023 34.5638 40.4855 30.0639C40.566 29.9081 40.757 29.8528 40.9129 29.9332C41.0688 30.0137 41.1241 30.2047 41.0436 30.3606C38.5297 35.1119 33.6326 36.4895 33.4265 36.5498C33.4013 36.5599 33.3712 36.5599 33.346 36.5599L33.336 36.5549Z" fill="#6A48E8"/>
<path d="M25.7141 57.7213C25.5935 57.7213 25.4778 57.651 25.4275 57.5303C22.3757 50.4964 26.5588 37.5799 26.7398 37.0318C26.7951 36.8659 26.9711 36.7754 27.137 36.8307C27.3029 36.886 27.3934 37.062 27.3381 37.2279C27.2929 37.3586 23.0444 50.4662 26.0057 57.2789C26.0761 57.4398 26.0057 57.6258 25.8449 57.6912C25.8046 57.7113 25.7594 57.7163 25.7192 57.7163L25.7141 57.7213Z" fill="#6A48E8"/>
<path d="M26.3617 39.7764C26.2561 39.7764 26.1556 39.7261 26.0952 39.6306C25.9997 39.4848 26.045 39.2887 26.1908 39.1982L28.5388 37.6948C28.6846 37.5993 28.8807 37.6446 28.9712 37.7904C29.0667 37.9362 29.0214 38.1323 28.8756 38.2228L26.5276 39.7261C26.4774 39.7613 26.417 39.7764 26.3567 39.7764H26.3617Z" fill="#6A48E8"/>
<path d="M16.4766 63.3324C17.3313 65.0268 18.2212 66.5301 18.8949 67.0329C19.0458 67.1435 19.3525 67.3748 21.3385 67.5558C23.1837 67.7267 26.4819 67.8524 32.45 67.8021C36.2158 67.772 42.4554 67.596 45.0397 67.5155C45.0397 67.4954 45.0397 67.4753 45.0397 67.4552C45.0246 67.2993 45.0145 67.1435 44.9995 66.9926C35.5421 67.2742 20.3782 67.3647 19.267 66.5401C18.5631 66.0122 17.5073 64.0815 16.5168 62L16.4816 63.3273L16.4766 63.3324Z" fill="#6A48E8"/>
<path d="M18.4072 31.9125L18.2815 32.2142L18.181 32.4656L17.9899 32.9533C17.8642 33.2751 17.7486 33.5918 17.6329 33.9086C17.4067 34.5421 17.1955 35.1756 16.9894 35.8091C16.5871 37.0812 16.2302 38.3582 15.9184 39.6554C15.295 42.2447 14.8475 44.8994 14.6414 47.6296C14.4402 50.3597 14.4805 53.1702 14.9229 56.016C15.1441 57.4389 15.471 58.8718 15.9184 60.2846C16.1447 60.9935 16.4061 61.6974 16.6927 62.3913C16.9843 63.0851 17.3111 63.7739 17.6631 64.4477L17.9044 64.865C18.6787 66.2174 20.1016 66.9716 21.5546 66.9716C23.968 66.9716 26.3512 66.9465 28.7495 66.9264C31.1427 66.9012 33.536 66.8711 35.9292 66.8258C40.7207 66.7403 47.3726 65.78 52.1842 65.5638C52.9082 65.4532 53.0238 65.046 52.9534 63.5225C52.8931 62.1298 51.8071 61.0237 50.4596 60.898H50.4496C45.7486 60.4455 41.0375 59.8924 36.3264 59.3092C33.9683 59.0176 31.6153 58.7109 29.2623 58.4042C26.9093 58.0925 24.5462 57.7757 22.2133 57.4489L26.0998 59.9729C25.24 58.3589 24.6669 56.5238 24.3602 54.5529C24.0535 52.582 24.0082 50.4854 24.1641 48.3536C24.325 46.2218 24.687 44.0497 25.2048 41.9028C25.4613 40.8269 25.7629 39.756 26.0948 38.7051C26.2607 38.1772 26.4367 37.6543 26.6227 37.1415C26.7132 36.8851 26.8087 36.6337 26.9042 36.3823L27.045 36.0203L27.1657 35.7287L27.226 35.5778C28.2266 33.1393 27.0601 30.3489 24.6166 29.3484C22.1881 28.3528 19.4178 29.5042 18.4022 31.9176L18.4072 31.9125Z" fill="#714FF0"/>
<path d="M21.4999 59.8984C21.5753 59.8984 21.6457 59.8733 21.706 59.818C21.7311 59.7929 24.4462 57.4398 27.0506 57.9577C27.2215 57.9929 27.3874 57.8823 27.4226 57.7113C27.4578 57.5404 27.3472 57.3745 27.1763 57.3393C24.2601 56.7611 21.4094 59.2398 21.2937 59.3454C21.163 59.461 21.1529 59.6571 21.2635 59.7878C21.3239 59.8582 21.4144 59.8934 21.4999 59.8934V59.8984Z" fill="#6A48E8"/>
<path d="M24.6108 58.1577C24.7063 58.1577 24.8019 58.1124 24.8672 58.027C24.9678 57.8862 24.9376 57.6901 24.7969 57.5895C23.7511 56.8253 21.7399 56.6644 21.6545 56.6594C21.4835 56.6443 21.3327 56.775 21.3176 56.951C21.3025 57.1219 21.4332 57.2728 21.6092 57.2879C21.6293 57.2879 23.5248 57.4437 24.4298 58.0973C24.4851 58.1376 24.5505 58.1577 24.6158 58.1577H24.6108Z" fill="#6A48E8"/>
<path d="M45.0801 11.1931C45.0801 11.1931 47.0007 11.0724 47.9861 7.62836C49.1476 3.5709 44.6778 6.66805 41.2941 6.27085C37.9104 5.87365 32.9228 6.17532 31.2284 9.0261C29.529 11.8769 30.7256 15.0394 30.7256 15.0394L45.0851 11.1931H45.0801Z" fill="#002029"/>
<path d="M32.0522 24.7293C32.0522 24.7293 31.1422 23.8846 30.7148 23.4371C31.7003 22.1953 33.6612 19.4098 33.8723 16.6445L40.861 21.7428C40.861 21.7428 40.68 22.0746 40.3683 22.6126C40.3532 22.6427 40.3331 22.6729 40.313 22.7031C40.313 22.7081 40.3029 22.7131 40.3029 22.7232C40.0817 23.1003 39.7951 23.5679 39.4683 24.0857C39.3476 24.2718 39.227 24.4678 39.0962 24.669C38.9806 24.85 38.8549 25.031 38.7292 25.217C38.1108 26.127 37.4019 27.0823 36.6628 27.922C35.0891 27.2331 32.0472 24.7393 32.0472 24.7393L32.0522 24.7293Z" fill="#FDBB92"/>
<path d="M40.3749 22.6069C40.3598 22.6371 40.3397 22.6673 40.3196 22.6974C40.3196 22.7025 40.3146 22.7075 40.3096 22.7175C40.0883 23.0946 39.8017 23.5622 39.4749 24.0801C39.3543 24.2661 39.2336 24.4622 39.1029 24.6633C38.9872 24.8443 38.8615 25.0253 38.7358 25.2114C38.0269 23.703 37.9264 21.3248 37.9062 21.2695L40.3699 22.6069H40.3749Z" fill="#FD967D"/>
<path d="M31.6666 16.6687C32.3354 17.4178 33.2756 18.2625 34.3415 19.1122C37.6397 21.7418 42.1296 24.4316 43.4318 24.6529C44.3921 24.8138 45.0859 24.2758 45.5234 22.6015C45.5887 22.3451 45.6541 22.0736 45.7144 21.792L46.0111 20.0826C46.0412 19.8815 46.0664 19.6753 46.0915 19.4742C46.5691 19.4088 47.5898 19.2278 47.444 18.9312C47.263 18.5591 46.3228 16.729 46.2826 16.6586C46.3077 15.3413 46.2273 14.0643 46.0111 12.9632C45.9356 12.581 45.7999 12.2241 45.6088 11.8973C45.2116 11.1984 44.5781 10.6504 43.8189 10.3437C41.5011 9.41351 37.1319 7.84985 34.7387 8.21688C31.375 8.72972 28.9365 13.6017 31.6717 16.6737L31.6666 16.6687Z" fill="#FDBB92"/>
<path d="M41.229 18.1575C41.2089 18.5698 41.8424 18.9318 42.6468 18.977C43.4513 19.0173 44.12 18.7156 44.1401 18.3083C44.1602 17.8961 43.5267 17.5341 42.7222 17.4888C41.9178 17.4436 41.2491 17.7503 41.229 18.1575Z" fill="#FD967D"/>
<path d="M46.085 19.4794C46.085 19.4794 43.7873 18.4587 42.2538 19.2481C40.7203 20.0425 40.4538 18.519 40.7253 17.5989C40.9968 16.6788 40.7253 14.6426 40.7253 14.6426L40.0717 14.6778C40.0717 14.6778 40.2477 17.6291 39.227 18.3481C38.2064 19.0671 38.6488 23.029 40.137 24.11C41.6253 25.191 43.7068 26.101 44.9638 25.1859C46.2258 24.2709 46.085 19.4794 46.085 19.4794Z" fill="#002029"/>
<path d="M44.9594 21.4243C44.9946 21.4243 45.0298 21.4243 45.065 21.4243C45.1656 21.4243 45.246 21.3389 45.241 21.2383C45.241 21.1377 45.1605 21.0573 45.055 21.0623C44.2354 21.0824 43.8533 20.283 43.8533 20.278C43.8131 20.1875 43.7025 20.1473 43.612 20.1925C43.5215 20.2378 43.4812 20.3433 43.5265 20.4338C43.5466 20.4741 43.984 21.3841 44.9594 21.4243Z" fill="#2A5B74"/>
<path d="M45.2664 16.0347C45.2866 16.3715 45.1558 16.6481 44.9698 16.6632C44.7838 16.6732 44.6179 16.4118 44.5977 16.0799C44.5776 15.7431 44.7084 15.4665 44.8944 15.4515C45.0804 15.4414 45.2463 15.7028 45.2664 16.0347Z" fill="#002029"/>
<path d="M43.436 15.3812C43.3958 15.3812 43.3506 15.3662 43.3103 15.341C43.1746 15.2606 43.1293 15.0796 43.2098 14.9438C43.4964 14.4612 44.3561 13.6517 45.5276 14.0288C45.6784 14.079 45.7639 14.2399 45.7136 14.3958C45.6634 14.5466 45.5025 14.6321 45.3466 14.5818C44.3109 14.25 43.7276 15.2053 43.7025 15.2455C43.6422 15.3461 43.5366 15.3963 43.426 15.3863L43.436 15.3812Z" fill="#002029"/>
<path d="M38.8057 17.1667C38.7101 17.1566 38.6347 17.0812 38.6247 16.9857C38.4839 15.6281 37.5135 14.8488 37.5035 14.8438C37.418 14.7734 37.4029 14.6477 37.4683 14.5622C37.5387 14.4768 37.6644 14.4567 37.7498 14.527C37.7951 14.5622 38.866 15.4119 39.0219 16.9454C39.0319 17.056 38.9515 17.1566 38.8409 17.1667C38.8258 17.1667 38.8157 17.1667 38.8006 17.1667H38.8057Z" fill="#FD967D"/>
<path d="M37.326 16.0695C37.2556 16.0645 37.1902 16.0192 37.1601 15.9488C37.1148 15.8483 37.1601 15.7276 37.2656 15.6823C37.2958 15.6723 37.9695 15.3807 38.4975 15.5164C38.603 15.5466 38.6684 15.6572 38.6433 15.7628C38.6131 15.8684 38.5025 15.9337 38.3969 15.9086C38.0751 15.8231 37.5924 15.984 37.4316 16.0544C37.4014 16.0695 37.3662 16.0745 37.331 16.0695H37.326Z" fill="#FD967D"/>
<path d="M34.7383 8.21298C37.1315 7.84594 41.5007 9.4096 43.8185 10.3397C44.3012 10.5358 44.7336 10.8274 45.0855 11.1895C44.3565 11.1291 43.6224 10.8476 42.9387 10.6615C42.4007 11.3956 41.6666 12.009 40.9577 12.004C40.9175 12.8989 40.7817 13.7185 40.7365 14.6335C40.5152 14.6687 40.294 14.6788 40.0828 14.6687C40.0828 14.6687 38.6449 12.0894 36.5332 13.5777C35.3315 14.4223 35.6181 16.0262 36.493 17.1826C36.0103 18.4547 35.1003 19.1485 34.3511 19.1033C33.2852 18.2536 32.345 17.4089 31.6763 16.6597C28.9462 13.5877 31.3847 8.71576 34.7433 8.20292L34.7383 8.21298Z" fill="#002029"/>
<path d="M45.3812 13.2843C44.7276 13.2139 44.0941 14.2949 43.9332 15.753C43.7723 17.206 44.1544 18.4077 44.808 18.4781C45.4415 18.5485 46.0599 17.5328 46.241 16.1452C46.241 16.0999 46.251 16.0547 46.256 16.0094C46.256 15.9692 46.2661 15.929 46.2661 15.8887C46.3968 14.486 46.0147 13.3547 45.3812 13.2793V13.2843ZM44.8281 18.2317C44.3957 18.1814 44.0237 17.1658 44.1745 15.7832C44.3304 14.4005 44.9186 13.4905 45.351 13.5357C45.7884 13.581 46.1505 14.5513 46.0097 15.9239C46.0097 15.944 46.0097 15.9642 46.0046 15.9843C45.9946 16.0697 45.9845 16.1502 45.9745 16.2256C45.7834 17.4876 45.2454 18.277 44.8332 18.2267L44.8281 18.2317Z" fill="white"/>
<path d="M46.4886 16.2568C46.4333 16.297 46.3528 16.2819 46.3176 16.2216C46.2925 16.1864 46.2623 16.1562 46.2372 16.1411C46.2221 16.1311 46.212 16.1311 46.197 16.126C46.1215 16.116 46.0511 16.1864 46.0461 16.1864C46.026 16.2065 46.0009 16.2165 45.9707 16.2216C45.9808 16.1411 45.9908 16.0607 46.0009 15.9802C46.0009 15.9601 46.0009 15.94 46.0059 15.9199C46.0612 15.8948 46.1366 15.8747 46.2171 15.8797C46.2271 15.8797 46.2422 15.8797 46.2573 15.8897C46.3327 15.9048 46.4333 15.9551 46.5137 16.0808C46.5539 16.1361 46.5388 16.2165 46.4785 16.2517L46.4886 16.2568Z" fill="white"/>
<path d="M44.1052 15.3856L40.7617 14.918C40.7768 15.0034 40.7869 15.0889 40.7969 15.1744L44.07 15.6319C44.1354 15.6369 44.1957 15.5917 44.2058 15.5263C44.2158 15.4559 44.1656 15.3956 44.1002 15.3856H44.1052Z" fill="white"/>
<path d="M69.2143 60.2305H43.2305V62.5483H69.2143V60.2305Z" fill="#173953"/>
<path d="M75.7848 39.4648L67.1621 61.7583L69.2135 62.5476L78.1077 39.4648H75.7848Z" fill="#173953"/>
<path d="M58.4984 63.3521C58.2772 63.5482 57.9856 63.7644 57.6034 64.0057C56.1605 64.8906 53.6063 66.037 50.7907 65.3833C47.9751 64.7297 46.4668 62.5677 46.4668 62.5677C46.4668 62.5677 46.7634 60.798 47.8444 60.4058C48.7695 60.0689 48.1059 61.5169 48.3673 61.9795C48.6288 62.4421 51.9572 62.608 53.9331 62.4069C55.0292 62.2912 56.1705 62.2912 57.1007 62.3264C57.2414 62.3314 57.3772 62.3365 57.5079 62.3415C57.7493 62.3566 57.9755 62.3666 58.1766 62.3817C58.2872 62.3918 58.3878 62.427 58.4682 62.4873C58.5437 62.5426 58.599 62.613 58.6392 62.6934C58.7397 62.9046 58.7146 63.1761 58.5085 63.3571L58.4984 63.3521Z" fill="#FDBB92"/>
<path d="M58.6307 62.6847C58.2486 63.0718 57.3637 63.7958 55.6793 64.3338C55.6643 64.3338 55.6542 64.3388 55.6391 64.3388C55.5838 64.3388 55.5335 64.3036 55.5134 64.2483C55.4933 64.1779 55.5285 64.1075 55.5989 64.0824C57.2631 63.5494 58.1178 62.8355 58.4597 62.4785C58.5352 62.5338 58.5905 62.6042 58.6307 62.6847Z" fill="#FD967D"/>
<path d="M57.5045 62.3365C57.0319 62.7387 56.1923 63.2918 54.8297 63.7292C54.8146 63.7292 54.8046 63.7343 54.7895 63.7343C54.7342 63.7343 54.6839 63.6991 54.6638 63.6438C54.6437 63.5734 54.6789 63.503 54.7493 63.4778C55.8655 63.1209 56.6196 62.6784 57.0973 62.3164C57.2381 62.3214 57.3738 62.3265 57.5045 62.3315V62.3365Z" fill="#FD967D"/>
<path d="M237.742 3.43486V109.135C237.742 111.121 236.133 112.735 234.142 112.735H186.936C184.95 112.735 183.336 111.126 183.336 109.135V3.43486C183.336 1.95165 184.538 0.75 186.021 0.75H235.057C236.54 0.75 237.742 1.95165 237.742 3.43486Z" fill="white"/>
<g opacity="0.3">
<path d="M229.597 64.1608H193.357C192.698 64.1608 192.16 63.6279 192.16 62.9642C192.16 62.3056 192.693 61.7676 193.357 61.7676H229.597C230.256 61.7676 230.794 62.3005 230.794 62.9642C230.794 63.6228 230.261 64.1608 229.597 64.1608Z" fill="#B8B5FF"/>
</g>
<g opacity="0.3">
<path d="M229.597 71.7429H193.357C192.698 71.7429 192.16 71.2099 192.16 70.5462C192.16 69.8876 192.693 69.3496 193.357 69.3496H229.597C230.256 69.3496 230.794 69.8826 230.794 70.5462C230.794 71.2049 230.261 71.7429 229.597 71.7429Z" fill="#B8B5FF"/>
</g>
<g opacity="0.3">
<path d="M229.597 79.3249H193.357C192.698 79.3249 192.16 78.7919 192.16 78.1283C192.16 77.4696 192.693 76.9316 193.357 76.9316H229.597C230.256 76.9316 230.794 77.4646 230.794 78.1283C230.794 78.7869 230.261 79.3249 229.597 79.3249Z" fill="#B8B5FF"/>
</g>
<g opacity="0.3">
<path d="M229.597 86.903H193.357C192.698 86.903 192.16 86.3701 192.16 85.7064C192.16 85.0477 192.693 84.5098 193.357 84.5098H229.597C230.256 84.5098 230.794 85.0427 230.794 85.7064C230.794 86.365 230.261 86.903 229.597 86.903Z" fill="#B8B5FF"/>
</g>
<g opacity="0.3">
<path d="M229.597 94.485H193.357C192.698 94.485 192.16 93.9521 192.16 93.2884C192.16 92.6298 192.693 92.0918 193.357 92.0918H229.597C230.256 92.0918 230.794 92.6247 230.794 93.2884C230.794 93.9471 230.261 94.485 229.597 94.485Z" fill="#B8B5FF"/>
</g>
<g opacity="0.3">
<path d="M229.597 102.067H193.357C192.698 102.067 192.16 101.534 192.16 100.87C192.16 100.212 192.693 99.6738 193.357 99.6738H229.597C230.256 99.6738 230.794 100.207 230.794 100.87C230.794 101.529 230.261 102.067 229.597 102.067Z" fill="#B8B5FF"/>
</g>
<path d="M237.742 3.43486V10.8761H183.336V3.43486C183.336 1.95165 184.538 0.75 186.021 0.75H235.057C236.54 0.75 237.742 1.95165 237.742 3.43486Z" fill="#B8B5FF"/>
<path d="M224.569 5.32644C224.569 6.30184 223.78 7.09623 222.799 7.09623C221.819 7.09623 221.029 6.30687 221.029 5.32644C221.029 4.34601 221.824 3.55664 222.799 3.55664C223.775 3.55664 224.569 4.35104 224.569 5.32644Z" fill="#6A48E8"/>
<path d="M230.301 5.32644C230.301 6.30184 229.512 7.09623 228.532 7.09623C227.551 7.09623 226.762 6.30687 226.762 5.32644C226.762 4.34601 227.556 3.55664 228.532 3.55664C229.507 3.55664 230.301 4.35104 230.301 5.32644Z" fill="#6A48E8"/>
<path d="M235.792 5.32644C235.792 6.30184 235.002 7.09623 234.022 7.09623C233.041 7.09623 232.252 6.30687 232.252 5.32644C232.252 4.34601 233.041 3.55664 234.022 3.55664C235.002 3.55664 235.792 4.35104 235.792 5.32644Z" fill="#002029"/>
<path d="M225.553 25.2717C222.26 21.3953 217.358 18.9316 211.882 18.9316C211.772 18.9316 211.666 18.9316 211.556 18.9316C211.485 18.9316 211.415 18.9316 211.339 18.9316C211.043 18.9417 210.741 18.9568 210.444 18.9819C210.384 18.9819 210.329 18.992 210.268 18.997C210.183 19.002 210.092 19.0121 210.002 19.0221C209.937 19.0272 209.876 19.0372 209.811 19.0423C209.73 19.0523 209.65 19.0624 209.575 19.0724C209.499 19.0825 209.424 19.0925 209.348 19.1026C209.258 19.1177 209.167 19.1277 209.072 19.1428C209.011 19.1529 208.951 19.1629 208.886 19.173C208.83 19.183 208.77 19.1931 208.715 19.2031C208.665 19.2132 208.609 19.2233 208.554 19.2333C208.484 19.2484 208.413 19.2584 208.343 19.2735C208.257 19.2886 208.167 19.3087 208.081 19.3288C208.001 19.349 207.92 19.364 207.84 19.3841C207.579 19.4445 207.317 19.5098 207.056 19.5853C206.995 19.6003 206.935 19.6205 206.875 19.6355C206.638 19.7059 206.402 19.7763 206.166 19.8568C205.929 19.9372 205.698 20.0177 205.472 20.1082C205.241 20.1936 205.014 20.2892 204.788 20.3847C204.713 20.4199 204.637 20.45 204.562 20.4852C204.486 20.5204 204.416 20.5506 204.341 20.5858C204.265 20.621 204.195 20.6562 204.119 20.6914C204.054 20.7215 203.994 20.7517 203.928 20.7869C203.913 20.7919 203.898 20.802 203.888 20.807C203.747 20.8774 203.607 20.9478 203.471 21.0232C203.416 21.0534 203.36 21.0836 203.305 21.1137C203.219 21.159 203.129 21.2092 203.043 21.2595C202.973 21.2998 202.903 21.34 202.832 21.3802C202.762 21.4204 202.691 21.4606 202.626 21.5059C202.485 21.5914 202.34 21.6768 202.204 21.7673C201.802 22.0238 201.414 22.3003 201.037 22.5869C201.037 22.5869 201.032 22.5869 201.027 22.5969C200.705 22.8433 200.394 23.0947 200.092 23.3612C200.032 23.4114 199.971 23.4667 199.911 23.5221C199.79 23.6327 199.675 23.7382 199.554 23.8489C199.494 23.9042 199.438 23.9595 199.378 24.0148C199.323 24.0701 199.263 24.1304 199.207 24.1857C199.092 24.3014 198.981 24.417 198.87 24.5326C198.815 24.593 198.76 24.6533 198.704 24.7086C198.594 24.8293 198.488 24.95 198.383 25.0706C198.332 25.131 198.277 25.1913 198.227 25.2516C198.177 25.312 198.121 25.3773 198.071 25.4377C198.011 25.508 197.955 25.5784 197.9 25.6488C197.82 25.7494 197.734 25.855 197.654 25.9606C195.331 28.9823 193.953 32.7632 193.953 36.8609C193.953 46.5445 201.671 54.4583 211.274 54.7851C211.475 54.7901 211.681 54.7952 211.882 54.7952C221.772 54.7952 229.812 46.7506 229.812 36.8609C229.812 32.4414 228.208 28.394 225.548 25.2667L225.553 25.2717ZM212.596 49.5361C212.36 49.5511 212.124 49.5562 211.882 49.5562C204.889 49.5562 199.197 43.8647 199.197 36.8709C199.197 34.6084 199.79 32.4867 200.831 30.6465C201.037 30.2795 201.264 29.9225 201.51 29.5756C201.656 29.3694 201.807 29.1633 201.967 28.9672C204.29 26.0511 207.875 24.1807 211.882 24.1807C216.453 24.1807 220.465 26.6091 222.697 30.2392C223.884 32.1699 224.568 34.4375 224.568 36.8659C224.568 43.6233 219.258 49.164 212.596 49.531V49.5361Z" fill="#6A48E8"/>
<path d="M212.596 49.5348L211.274 54.7889C201.666 54.4671 193.953 46.5533 193.953 36.8646C193.953 32.767 195.336 28.986 197.654 25.9643C197.789 25.7883 197.93 25.6124 198.071 25.4414L201.51 29.5693C200.052 31.6307 199.197 34.1496 199.197 36.8646C199.197 43.8584 204.889 49.5499 211.882 49.5499C212.124 49.5499 212.36 49.5448 212.596 49.5297V49.5348Z" fill="#B8B5FF"/>
<path d="M225.554 25.2714L222.698 30.2389C220.466 26.6038 216.453 24.1804 211.883 24.1804C207.871 24.1804 204.291 26.0508 201.968 28.9669C201.807 29.163 201.656 29.3691 201.511 29.5753C201.264 29.9222 201.038 30.2792 200.832 30.6462L197.654 25.9703C197.735 25.8647 197.815 25.7642 197.901 25.6586C197.956 25.5882 198.016 25.5178 198.072 25.4474C198.122 25.3871 198.177 25.3217 198.227 25.2614C198.278 25.2011 198.333 25.1407 198.383 25.0804C198.489 24.9597 198.594 24.8391 198.705 24.7184C198.76 24.6581 198.816 24.5977 198.871 24.5424C198.982 24.4268 199.092 24.3111 199.208 24.1955C199.263 24.1402 199.324 24.0799 199.379 24.0245C199.434 23.9692 199.494 23.9139 199.555 23.8586C199.67 23.748 199.791 23.6374 199.912 23.5318C199.972 23.4765 200.032 23.4262 200.093 23.3709C200.394 23.1045 200.706 22.848 201.028 22.6067C201.028 22.6067 201.033 22.6017 201.038 22.5966C201.415 22.3101 201.807 22.0335 202.204 21.7771C202.345 21.6866 202.486 21.6011 202.627 21.5157C202.697 21.4754 202.768 21.4302 202.833 21.39C202.903 21.3497 202.974 21.3095 203.044 21.2693C203.13 21.219 203.215 21.1687 203.306 21.1235C203.361 21.0933 203.416 21.0632 203.472 21.033C203.607 20.9576 203.748 20.8872 203.889 20.8168C203.904 20.8067 203.919 20.8017 203.929 20.7967C203.994 20.7665 204.055 20.7313 204.12 20.7011C204.196 20.666 204.266 20.6308 204.341 20.5956C204.417 20.5604 204.487 20.5252 204.563 20.495C204.638 20.4648 204.713 20.4296 204.789 20.3944C205.015 20.2989 205.241 20.2034 205.473 20.1179C205.704 20.0324 205.935 19.947 206.166 19.8665C206.398 19.7861 206.634 19.7107 206.875 19.6453C206.936 19.6252 206.996 19.6101 207.056 19.595C207.313 19.5246 207.574 19.4542 207.841 19.3939C207.921 19.3738 208.002 19.3587 208.082 19.3386C208.167 19.3185 208.258 19.3034 208.343 19.2833C208.414 19.2682 208.484 19.2531 208.555 19.2431C208.605 19.233 208.66 19.223 208.716 19.2129C208.771 19.2029 208.831 19.1928 208.886 19.1827C208.947 19.1727 209.007 19.1626 209.073 19.1526C209.163 19.1375 209.254 19.1224 209.349 19.1124C209.424 19.1023 209.5 19.0922 209.575 19.0822C209.656 19.0721 209.736 19.0621 209.812 19.052C209.877 19.047 209.937 19.0369 210.003 19.0319C210.088 19.0219 210.179 19.0118 210.269 19.0068C210.329 19.0017 210.385 18.9967 210.445 18.9917C210.742 18.9665 211.038 18.9515 211.34 18.9414C211.41 18.9414 211.481 18.9414 211.556 18.9414C211.667 18.9414 211.772 18.9414 211.883 18.9414C217.353 18.9414 222.261 21.405 225.554 25.2815V25.2714Z" fill="#6A48E8"/>
<path d="M261.835 175.982C282.488 175.982 299.232 174.503 299.232 172.678C299.232 170.854 282.488 169.375 261.835 169.375C241.181 169.375 224.438 170.854 224.438 172.678C224.438 174.503 241.181 175.982 261.835 175.982Z" fill="#E3D7D5"/>
<path d="M248.37 41.6576C246.485 41.009 248.279 33.2008 248.958 32.0444C250.889 28.7512 248.445 24.0149 248.445 24.0149C249.929 23.5775 253.795 25.9054 254.645 30.6869C254.961 32.4818 254.76 35.1013 254.253 37.7761C252.171 37.2432 250.482 42.0699 248.37 41.6626V41.6576Z" fill="#002029"/>
<path d="M253.51 33.5613C250.91 33.516 248.763 35.5875 248.718 38.1919C248.718 38.1969 248.713 38.2221 248.708 38.2422L248.698 38.3075L248.673 38.4433L248.618 38.7198L248.502 39.2829C248.422 39.66 248.341 40.0371 248.256 40.4142C248.085 41.1684 247.904 41.9276 247.708 42.6767C247.321 44.175 246.898 45.6582 246.415 47.0912C245.938 48.5191 245.405 49.9068 244.802 51.1185C244.505 51.7218 244.188 52.2749 243.886 52.7123C243.736 52.9285 243.595 53.1145 243.479 53.2452C243.369 53.376 243.288 53.4464 243.313 53.4564C243.313 53.4564 243.318 53.4564 243.323 53.4564C243.328 53.4564 243.338 53.4564 243.349 53.4564H243.338L243.313 53.4715L243.268 53.4966C243.223 53.5318 243.107 53.562 243.017 53.6022C242.811 53.6726 242.539 53.738 242.242 53.7983C241.649 53.9089 240.955 53.9793 240.236 54.0145C239.517 54.0547 238.768 54.0597 238.009 54.0447C237.918 54.0447 237.823 54.0447 237.732 54.0396V60.7267C238.542 60.8172 239.361 60.8926 240.211 60.9278C241.131 60.968 242.076 60.978 243.107 60.8926C243.625 60.8473 244.163 60.782 244.746 60.6563C245.048 60.5859 245.329 60.5306 245.671 60.4149L245.913 60.3345L246.033 60.2943L246.094 60.2741C246.094 60.2741 246.134 60.2591 246.159 60.249C246.26 60.2088 246.36 60.1635 246.461 60.1233L246.612 60.0579L246.747 59.9876C247.491 59.6155 248.07 59.1831 248.557 58.7608C249.045 58.3334 249.452 57.9111 249.814 57.4887C250.533 56.6491 251.106 55.8195 251.619 55.005C252.635 53.3709 253.429 51.757 254.153 50.1431C254.872 48.5291 255.511 46.9152 256.099 45.2912C256.391 44.4817 256.672 43.6672 256.944 42.8477C257.08 42.4404 257.21 42.0281 257.341 41.6108L257.532 40.9874L257.628 40.6706L257.728 40.3237L257.949 39.5544C258.055 39.1723 258.115 38.7701 258.125 38.3528C258.171 35.7534 256.099 33.6065 253.495 33.5613H253.51Z" fill="#876BEE"/>
<path d="M275.441 86.2843L278.231 122.404C278.231 122.404 282.691 127.377 285.416 137.991C286.899 143.778 291.364 156.382 291.364 156.382L285.898 158.524C285.898 158.524 270.74 130.771 268.98 124.295C267.22 117.819 259.422 90.563 259.422 90.563L275.441 86.2793V86.2843Z" fill="#002029"/>
<path d="M290.258 155.275L292.636 160.374C292.636 160.374 291.208 162.37 288.362 163.219L285.818 157.09L290.263 155.28L290.258 155.275Z" fill="#FDBB92"/>
<path d="M284.154 156.568C284.295 157.774 284.908 158.734 285.688 159.614L292.571 156.386C292.37 155.265 291.958 154.235 291.359 153.279L284.154 156.568Z" fill="#173953"/>
<path d="M281.177 173.723L289.529 173.698C289.684 173.658 289.87 173.487 290.278 173.064L296.809 166.317C297.085 166.035 297.141 165.603 296.95 165.261C296.2 163.899 294.32 160.55 293.485 159.766C292.43 158.775 291.721 159.494 291.721 159.494C291.721 159.494 289.926 161.802 289.021 161.41C287.95 160.947 286.989 160.565 286.803 162.863C286.638 164.909 285.687 167.232 285.416 167.74C285.416 167.74 284.315 169.63 282.776 170.39C280.076 171.722 281.177 173.718 281.177 173.718V173.723Z" fill="#6A48E8"/>
<path d="M285.894 166.272C286.065 166.061 286.327 165.84 286.734 165.714C287.564 165.458 288.785 165.814 288.795 165.82C288.876 165.845 288.961 165.835 289.037 165.799C289.112 165.759 289.172 165.694 289.203 165.603C289.253 165.432 289.157 165.251 288.986 165.201C288.931 165.181 287.569 164.784 286.548 165.096C286.387 165.146 286.246 165.206 286.116 165.271C285.804 165.633 285.598 165.985 285.899 166.272H285.894Z" fill="white"/>
<path d="M286.24 164.667C286.386 164.557 286.572 164.456 286.798 164.386C287.633 164.129 288.849 164.486 288.86 164.491C288.94 164.517 289.025 164.506 289.101 164.471C289.176 164.431 289.237 164.366 289.262 164.275C289.312 164.104 289.217 163.923 289.046 163.873C288.99 163.853 287.628 163.456 286.607 163.767C286.542 163.788 286.476 163.808 286.416 163.833C286.22 164.064 285.964 164.29 286.235 164.667H286.24Z" fill="white"/>
<path d="M285.593 167.558C285.759 167.397 285.985 167.246 286.297 167.151C287.131 166.894 288.348 167.251 288.358 167.256C288.443 167.281 288.529 167.271 288.599 167.236C288.675 167.196 288.735 167.13 288.76 167.04C288.81 166.869 288.715 166.688 288.544 166.638C288.484 166.623 287.126 166.22 286.105 166.532C286 166.562 285.899 166.603 285.804 166.643C285.402 166.97 285.276 167.276 285.593 167.553V167.558Z" fill="white"/>
<path d="M268.72 87.5561C268.72 89.7231 253.742 119.734 254.632 123.726C254.918 132.636 248.377 162.777 247.477 162.31H242.721L243.319 121.157L250.262 88.0488C250.262 88.0488 261.107 84.7606 268.725 87.5561H268.72Z" fill="#173953"/>
<path d="M246.174 161.843C246.35 161.843 246.501 161.718 246.531 161.542C246.566 161.331 250.091 140.581 251.162 135.809C252.217 131.118 252.368 122.289 252.383 121.48C253.872 116.15 266.572 87.7583 266.703 87.4717C266.783 87.2907 266.703 87.0745 266.522 86.9941C266.341 86.9136 266.124 86.9941 266.044 87.1751C265.516 88.3516 253.117 116.06 251.679 121.334C251.669 121.364 251.669 121.395 251.664 121.425C251.664 121.52 251.529 130.907 250.463 135.653C249.387 140.445 245.857 161.21 245.822 161.421C245.787 161.617 245.923 161.808 246.119 161.838C246.139 161.838 246.159 161.843 246.179 161.843H246.174Z" fill="#002029"/>
<path d="M247.094 161.857L246.928 167.478C246.928 167.478 244.756 168.619 241.83 168.096L242.308 161.475L247.094 161.857Z" fill="#FDBB92"/>
<path d="M241.06 160.268C240.643 161.409 240.759 162.54 241.06 163.676L248.662 163.888C248.984 162.797 249.08 161.685 248.974 160.564L241.06 160.268Z" fill="#2A5B74"/>
<path d="M229.737 173.613C230.15 174.488 248.205 173.547 248.205 173.547C248.205 173.547 248.778 168.188 248.21 166.533C247.641 164.879 245.012 166.735 243.207 166.322C243.207 166.322 242.126 164.824 241.251 164.874C240.929 164.894 239.793 165.623 238.37 166.559C238.139 166.709 237.903 166.865 237.656 167.026C237.485 167.137 237.314 167.252 237.143 167.363C236.862 167.549 236.575 167.735 236.284 167.921C236.173 167.992 236.067 168.062 235.957 168.132C235.695 168.303 235.429 168.469 235.167 168.635C233.584 169.621 232.085 170.455 231.221 170.611C228.898 171.023 229.325 172.733 229.737 173.608V173.613Z" fill="#6A48E8"/>
<path d="M236.285 167.929C236.556 167.899 236.898 167.929 237.275 168.121C238.044 168.523 238.663 169.629 238.673 169.644C238.713 169.719 238.783 169.77 238.859 169.795C238.939 169.82 239.03 169.815 239.11 169.77C239.266 169.684 239.326 169.483 239.236 169.327C239.206 169.272 238.517 168.035 237.572 167.542C237.426 167.467 237.28 167.407 237.139 167.361C236.667 167.402 236.269 167.507 236.279 167.919L236.285 167.929Z" fill="white"/>
<path d="M237.656 167.031C237.837 167.056 238.038 167.112 238.255 167.222C239.029 167.624 239.642 168.731 239.652 168.746C239.693 168.821 239.763 168.876 239.838 168.897C239.919 168.922 240.009 168.917 240.095 168.871C240.251 168.786 240.311 168.59 240.22 168.429C240.19 168.374 239.501 167.137 238.556 166.644C238.496 166.614 238.431 166.584 238.37 166.559C238.069 166.584 237.727 166.564 237.656 167.026V167.031Z" fill="white"/>
<path d="M235.168 168.639C235.399 168.639 235.666 168.694 235.952 168.845C236.727 169.247 237.34 170.353 237.345 170.368C237.385 170.444 237.456 170.499 237.531 170.524C237.612 170.549 237.702 170.544 237.788 170.499C237.943 170.414 238.004 170.213 237.913 170.057C237.883 170.001 237.194 168.765 236.249 168.272C236.148 168.222 236.053 168.176 235.957 168.141C235.445 168.091 235.138 168.222 235.168 168.644V168.639Z" fill="white"/>
<path d="M247.506 89.2501C248.23 91.1004 251.78 91.7288 257.733 89.7981C263.691 87.8624 273.384 88.7021 275.441 86.2837C276.653 84.8558 277.271 80.8385 275.737 74.6342C275.622 74.1616 275.501 73.6839 275.386 73.2113C275.23 72.5879 275.079 71.9695 274.923 71.346C274.807 70.8684 274.692 70.3907 274.576 69.9231C274.42 69.2846 274.274 68.6561 274.129 68.0377C274.018 67.555 273.907 67.0774 273.807 66.6047C273.48 65.1065 273.203 63.6886 273.017 62.4266C272.605 59.5758 272.686 56.5843 272.867 53.643C273.093 49.9526 273.475 46.3577 273.224 43.2656C273.093 41.6215 272.781 40.1232 272.173 38.826C270.619 35.5076 267.09 32.8127 264.42 31.1435C262.343 29.8463 259.865 29.3535 257.446 29.7558C254.133 30.3088 250.297 35.2663 249.693 37.1819C249.281 38.4992 249.055 39.555 248.994 42.803C248.914 47.0213 248.849 50.7771 249.492 55.1513C249.512 55.2921 249.532 55.4279 249.553 55.5636C250.01 58.5099 249.638 63.5679 249.065 68.9025C249.045 69.0835 249.025 69.2645 249.004 69.4455C249.004 69.4907 248.994 69.5309 248.989 69.5762C248.939 70.0187 248.894 70.4661 248.839 70.9086C248.763 71.5521 248.688 72.2007 248.617 72.8443C248.562 73.332 248.502 73.8197 248.446 74.3074C248.371 74.951 248.296 75.5895 248.22 76.218C248.16 76.7107 248.105 77.1984 248.049 77.676C247.406 83.1966 246.948 87.8423 247.496 89.2551L247.506 89.2501Z" fill="#6A48E8"/>
<path d="M250.628 81.0256C250.482 81.0256 250.351 80.925 250.321 80.7742C250.286 80.6033 250.396 80.4373 250.567 80.4021C250.643 80.3871 258.35 78.7078 262.162 71.4526C262.242 71.2967 262.433 71.2414 262.584 71.3219C262.74 71.4023 262.795 71.5934 262.715 71.7442C260.648 75.676 257.496 77.9888 255.208 79.2357C252.734 80.5832 250.773 81.0005 250.688 81.0206C250.668 81.0206 250.643 81.0256 250.623 81.0256H250.628Z" fill="#6A48E8"/>
<path d="M254.662 40.0324C254.078 40.0324 253.641 39.6956 253.385 39.057C252.585 37.0509 253.777 32.5711 255.541 30.932L255.798 31.2086C254.154 32.737 252.997 37.061 253.736 38.9162C253.933 39.409 254.234 39.6503 254.662 39.6503C254.662 39.6503 254.667 39.6503 254.672 39.6503C258.553 39.6151 261.63 30.9019 261.66 30.8164L262.017 30.9421C261.887 31.3142 258.82 39.9972 254.677 40.0324C254.677 40.0324 254.667 40.0324 254.662 40.0324Z" fill="white"/>
<path d="M248.999 69.5704C250.548 70.5609 251.895 71.4006 252.916 71.8078C253.183 71.9134 253.469 71.9587 253.766 71.9587C254.781 71.9587 255.862 71.4408 256.355 71.1743C261.458 68.399 265.189 63.3711 267.416 59.6455C270.036 55.2663 271.424 51.3445 271.65 50.2334C271.68 50.0725 271.579 49.9116 271.414 49.8764C271.248 49.8463 271.092 49.9468 271.057 50.1127C270.835 51.1937 269.478 55.0199 266.894 59.3338C264.701 62.9991 261.041 67.9314 256.059 70.6414C255.616 70.8827 254.103 71.6369 253.127 71.2497C252.102 70.8425 250.694 69.9526 249.06 68.9017C249.04 69.0827 249.02 69.2637 248.999 69.4447C248.999 69.49 248.989 69.5302 248.984 69.5755L248.999 69.5704Z" fill="#6A48E8"/>
<path d="M255.969 58.7659C256.059 58.7659 256.155 58.7257 256.215 58.6452C259.704 54.0799 261.806 47.222 261.826 47.1566C261.876 46.9957 261.786 46.8298 261.625 46.7795C261.464 46.7292 261.298 46.8197 261.248 46.9806C261.228 47.046 259.156 53.8034 255.737 58.2782C255.637 58.4089 255.662 58.6 255.793 58.7005C255.848 58.7407 255.908 58.7608 255.969 58.7608V58.7659Z" fill="#6A48E8"/>
<path d="M251.801 27.5434C251.801 27.5434 251.962 27.8803 252.248 28.4283C252.263 28.4585 252.278 28.4886 252.299 28.5188C252.299 28.5238 252.304 28.5289 252.309 28.5389C252.515 28.9261 252.771 29.3987 253.073 29.9266C253.183 30.1176 253.294 30.3137 253.415 30.5199C253.525 30.7009 253.636 30.8869 253.752 31.078C254.576 32.4154 255.582 33.8684 256.612 34.9041C259.564 33.793 261.585 32.3299 262.284 30.3741C262.284 30.3741 259.056 26.5077 258.94 22.8223L251.801 27.5484V27.5434Z" fill="#FDBB92"/>
<path d="M252.248 28.4285C252.263 28.4587 252.278 28.4888 252.298 28.519C252.298 28.524 252.303 28.5291 252.308 28.5391C252.515 28.9263 252.771 29.3989 253.073 29.9268C253.183 30.1179 253.294 30.3139 253.414 30.5201C253.525 30.7011 253.636 30.8871 253.751 31.0782C254.521 29.6201 254.727 27.2671 254.747 27.2168L252.248 28.4285Z" fill="#FD967D"/>
<path d="M247.008 27.3823C247.054 27.6639 247.104 27.9304 247.159 28.1918C247.516 29.8661 248.175 30.4342 249.135 30.3136C250.85 30.1024 258.291 25.8639 261.131 22.9478C263.972 20.0317 261.78 15.1044 258.477 14.4457C256.124 13.9781 251.734 15.3256 249.402 16.1401C248.27 16.5373 247.4 17.4675 247.114 18.6339C246.852 19.7099 246.712 20.9769 246.676 22.2791C246.636 22.3495 245.621 24.1193 245.425 24.4763C245.269 24.7578 246.269 24.9841 246.737 25.0746C246.752 25.2757 246.767 25.4818 246.787 25.6829L247.003 27.3874L247.008 27.3823Z" fill="#FDBB92"/>
<path d="M247.661 26.9043C248.521 26.9043 249.034 26.1752 249.054 26.14C249.109 26.0596 249.089 25.9439 249.009 25.8886C248.928 25.8333 248.813 25.8534 248.758 25.9339C248.737 25.964 248.24 26.6629 247.445 26.5171C247.35 26.502 247.254 26.5624 247.234 26.6629C247.214 26.7635 247.279 26.854 247.38 26.8741C247.475 26.8942 247.571 26.8992 247.661 26.8992V26.9043Z" fill="#FD967D"/>
<path d="M248.95 24.6231C249.041 25.0253 249.754 25.2013 250.539 25.0203C251.323 24.8393 251.886 24.3666 251.791 23.9644C251.7 23.5622 250.986 23.3862 250.202 23.5672C249.418 23.7482 248.854 24.2208 248.95 24.6231Z" fill="#FD967D"/>
<path d="M247.704 21.7029C247.668 22.0348 247.784 22.3163 247.97 22.3364C248.156 22.3565 248.332 22.1051 248.367 21.7733C248.402 21.4415 248.287 21.1599 248.101 21.1398C247.92 21.1197 247.739 21.3711 247.704 21.7029Z" fill="#002029"/>
<path d="M249.542 21.1381C249.582 21.1381 249.628 21.123 249.668 21.1029C249.809 21.0275 249.859 20.8515 249.784 20.7107C249.517 20.223 248.708 19.3784 247.531 19.7001C247.375 19.7404 247.285 19.9013 247.33 20.0521C247.37 20.208 247.531 20.2985 247.682 20.2532C248.718 19.9716 249.256 20.942 249.276 20.9822C249.331 21.0828 249.437 21.1381 249.542 21.1331V21.1381Z" fill="#002029"/>
<path d="M254.043 23.1135C254.139 23.1135 254.214 23.038 254.229 22.9425C254.43 21.6051 255.421 20.8811 255.431 20.871C255.521 20.8057 255.541 20.68 255.476 20.5895C255.411 20.499 255.285 20.4789 255.2 20.5442C255.154 20.5794 254.058 21.3688 253.832 22.8822C253.817 22.9928 253.892 23.0933 253.998 23.1084C254.013 23.1084 254.023 23.1084 254.038 23.1084L254.043 23.1135Z" fill="#FD967D"/>
<path d="M255.551 22.0971C255.622 22.0971 255.687 22.0519 255.722 21.9865C255.773 21.886 255.727 21.7653 255.632 21.7201C255.602 21.705 254.948 21.3882 254.425 21.5039C254.314 21.529 254.249 21.6346 254.269 21.7402C254.294 21.8508 254.4 21.9161 254.506 21.896C254.827 21.8256 255.3 22.0066 255.456 22.0821C255.486 22.0971 255.521 22.1022 255.551 22.1022V22.0971Z" fill="#FD967D"/>
<path d="M247.321 18.0211C248.452 19.1373 250.856 20.6004 252.902 20.5954C252.902 20.5954 254.44 18.1116 256.462 19.6753C258.483 21.2389 255.863 24.9143 253.701 24.4266C253.701 24.4266 252.957 27.0209 254.878 29.1477C259.986 31.8074 266.266 28.8561 266.266 28.8561C266.799 24.8238 265.969 20.9222 265.929 20.7362V20.7311C265.391 15.7687 263.641 8.82019 253.928 11.49C249.091 12.8223 247.658 14.386 247.235 15.7083C246.868 16.8446 246.949 17.644 247.326 18.0161L247.321 18.0211Z" fill="#002029"/>
<path d="M253.695 24.4306C253.695 24.4306 252.408 28.2819 255.158 30.3282C257.909 32.3695 259.97 33.3399 259.377 37.1359C258.452 43.0788 266.868 49.1775 272.153 43.9033C276.642 39.4185 268.613 36.4722 268.593 30.2628C268.573 24.0535 264.912 16.0039 264.912 16.0039C264.912 16.0039 261.971 24.3903 253.695 24.4306Z" fill="#002029"/>
<path d="M253.535 24.2909C253.535 24.6428 253.822 24.9294 254.174 24.9294C254.526 24.9294 254.812 24.6428 254.812 24.2909C254.812 23.9389 254.526 23.6523 254.174 23.6523C253.822 23.6523 253.535 23.9389 253.535 24.2909Z" fill="white"/>
<path d="M227.828 52.2551C228.471 50.9379 230.065 50.3898 231.382 51.0384H231.392C235.47 53.0395 239.613 54.9601 243.766 56.8556C245.842 57.8008 247.929 58.741 250.016 59.6762C251.076 60.1488 252.142 60.6265 253.203 61.0941C253.233 61.1092 253.269 61.1242 253.299 61.1393C253.404 61.1896 253.51 61.2348 253.616 61.2801C253.721 61.1896 253.827 61.0991 253.932 61.0086C254.013 60.9382 254.088 60.8678 254.169 60.7974C254.812 60.2092 255.426 59.5556 256.009 58.8416C257.261 57.3031 258.357 55.5082 259.292 53.5825C260.232 51.6568 261.016 49.5954 261.665 47.4787C261.886 46.7446 262.097 46.0106 262.289 45.2665C264.194 46.9558 266.773 47.7502 269.559 46.2067C270.373 45.7542 270.946 45.2715 271.329 44.7637H271.831C271.721 45.3016 271.605 45.8396 271.479 46.3726C271.178 47.6547 270.836 48.9217 270.454 50.1786C269.679 52.6926 268.739 55.1813 267.553 57.6148C266.366 60.0433 264.938 62.4315 263.133 64.6538C262.681 65.2068 262.208 65.7549 261.7 66.2828C261.197 66.8107 260.67 67.3236 260.117 67.8213C259.558 68.314 258.975 68.7867 258.367 69.2341C257.753 69.6816 257.12 70.0989 256.456 70.4911L256.054 70.7123C254.822 71.381 253.279 71.386 252.002 70.6017C250.026 69.385 248.08 68.1682 246.129 66.9364C244.178 65.7096 242.233 64.4778 240.292 63.2359C236.41 60.7522 232.544 58.2383 228.713 55.6389C227.632 54.9048 227.229 53.4769 227.818 52.2702L227.828 52.2551Z" fill="#5F3AE6"/>
<path d="M229.125 55.4489C229.985 55.288 232.262 53.1361 231.398 50.406C230.598 47.877 230.88 47.1379 230.045 45.3782C229.326 43.8547 229.135 45.2927 228.979 46.6502C228.823 48.0077 229.09 48.5759 227.943 48.1585C226.797 47.7412 223.087 44.1614 221.754 43.91C220.422 43.6637 225.138 48.2239 225.138 48.2239C225.138 48.2239 220.542 45.0513 219.879 45.4536C219.084 45.9362 223.801 49.6066 223.801 49.6066C223.801 49.6066 219.512 47.4697 219.311 47.7764C218.919 48.3747 222.855 51.1702 222.855 51.1702C222.855 51.1702 219.829 49.8529 219.824 50.4462C219.818 51.0395 225.042 54.9411 229.13 55.4439L229.125 55.4489Z" fill="#FDBB92"/>
<path d="M253.203 61.0894C253.253 61.1447 253.304 61.2 253.354 61.2553C253.359 61.2603 253.364 61.2704 253.374 61.2754C254.475 62.5475 254.973 64.1312 254.978 64.1564C255.018 64.2871 255.139 64.3726 255.265 64.3726C255.295 64.3726 255.325 64.3726 255.355 64.3575C255.516 64.3072 255.606 64.1413 255.556 63.9804C255.531 63.8899 255.134 62.6279 254.254 61.4112C254.153 61.2754 254.048 61.1346 253.937 61.0039C253.832 61.0944 253.726 61.1849 253.62 61.2754C253.515 61.2302 253.409 61.1799 253.304 61.1346C253.274 61.1195 253.238 61.1045 253.208 61.0894H253.203Z" fill="#6A48E8"/>
<path d="M253.303 61.1349C253.313 61.1801 253.333 61.2254 253.358 61.2606C253.363 61.2656 253.368 61.2756 253.378 61.2807C253.438 61.346 253.529 61.3863 253.625 61.3812C253.821 61.3661 254.037 61.3812 254.258 61.4164C255.238 61.5723 256.329 62.1304 256.345 62.1354C256.39 62.1605 256.435 62.1706 256.48 62.1706C256.591 62.1706 256.697 62.1103 256.752 62.0047C256.827 61.8589 256.767 61.6728 256.621 61.5974C256.556 61.5673 255.314 60.9287 254.178 60.793C254.102 60.8634 254.022 60.9337 253.941 61.0041C253.836 61.0946 253.73 61.1851 253.625 61.2756C253.519 61.2304 253.413 61.1801 253.308 61.1349H253.303Z" fill="#6A48E8"/>
<path d="M132.987 175.98C182.73 175.98 223.055 174.501 223.055 172.676C223.055 170.852 182.73 169.373 132.987 169.373C83.243 169.373 42.918 170.852 42.918 172.676C42.918 174.501 83.243 175.98 132.987 175.98Z" fill="#E3D7D5"/>
<path d="M174.613 148.43H162.904C162.451 148.43 162.084 148.063 162.084 147.61C162.084 147.158 162.451 146.791 162.904 146.791H173.794V75.3149H165.136C164.683 75.3149 164.316 74.9478 164.316 74.4953C164.316 74.0428 164.683 73.6758 165.136 73.6758H174.613C175.066 73.6758 175.433 74.0428 175.433 74.4953V147.605C175.433 148.058 175.066 148.425 174.613 148.425V148.43Z" fill="#6A48E8"/>
<path d="M170.278 76.6016H167.774V72.4033H170.278C171.213 72.4033 171.973 73.1625 171.973 74.0977V74.9072C171.973 75.8424 171.213 76.6016 170.278 76.6016Z" fill="#B8B5FF"/>
<path d="M169.354 149.711H166.851V145.513H169.354C170.29 145.513 171.049 146.272 171.049 147.207V148.017C171.049 148.952 170.29 149.711 169.354 149.711Z" fill="#B8B5FF"/>
<path d="M87.6965 127.753H78.5559C78.1034 127.753 77.7363 127.386 77.7363 126.933V53.8234C77.7363 53.3709 78.1034 53.0039 78.5559 53.0039H85.9518C86.4043 53.0039 86.7713 53.3709 86.7713 53.8234C86.7713 54.2759 86.4043 54.643 85.9518 54.643H79.3704V126.119H87.6914C88.1439 126.119 88.511 126.486 88.511 126.938C88.511 127.391 88.1439 127.758 87.6914 127.758L87.6965 127.753Z" fill="#6A48E8"/>
<path d="M83.4483 51.5762H85.9521V55.7744H83.4483C82.5131 55.7744 81.7539 55.0152 81.7539 54.08V53.2706C81.7539 52.3354 82.5131 51.5762 83.4483 51.5762Z" fill="#B8B5FF"/>
<path d="M85.1866 124.838H87.6904V129.036H85.1866C84.2514 129.036 83.4922 128.277 83.4922 127.342V126.532C83.4922 125.597 84.2514 124.838 85.1866 124.838Z" fill="#B8B5FF"/>
<path d="M118.764 82.6426L115.225 95.549H138.498L134.964 82.6426H118.764Z" fill="#002029"/>
<path d="M102.158 95.5488H152.592C154.955 95.5488 156.87 97.4644 156.87 99.8275V100.848H97.8789V99.8275C97.8789 97.4644 99.7945 95.5488 102.158 95.5488Z" fill="#173953"/>
<path d="M165.145 22.334H88.5807C87.1285 22.334 85.9512 23.5113 85.9512 24.9635V80.0133C85.9512 81.4655 87.1285 82.6428 88.5807 82.6428H165.145C166.597 82.6428 167.774 81.4655 167.774 80.0133V24.9635C167.774 23.5113 166.597 22.334 165.145 22.334Z" fill="#173953"/>
<path d="M164.013 27.1057V71.1495C164.013 71.8182 163.475 72.3562 162.807 72.3562H90.9137C90.245 72.3562 89.707 71.8132 89.707 71.1495V27.1057C89.707 26.2812 90.3757 25.6074 91.2053 25.6074H162.515C163.34 25.6074 164.013 26.2761 164.013 27.1057Z" fill="white"/>
<path d="M139.026 35.1855H135.145V39.067H139.026V35.1855Z" fill="#B8B5FF"/>
<path d="M139.026 42.0996H135.145V45.9811H139.026V42.0996Z" fill="#6A48E8"/>
<g opacity="0.3">
<path d="M155.683 42.9492H142.801C142.138 42.9492 141.6 43.4369 141.6 44.0403C141.6 44.6436 142.138 45.1313 142.801 45.1313H155.683C156.346 45.1313 156.884 44.6436 156.884 44.0403C156.884 43.4369 156.346 42.9492 155.683 42.9492Z" fill="#B8B5FF"/>
</g>
<g opacity="0.3">
<path d="M155.683 36.0352H142.801C142.138 36.0352 141.6 36.5229 141.6 37.1262C141.6 37.7295 142.138 38.2172 142.801 38.2172H155.683C156.346 38.2172 156.884 37.7295 156.884 37.1262C156.884 36.5229 156.346 36.0352 155.683 36.0352Z" fill="#B8B5FF"/>
</g>
<g opacity="0.3">
<path d="M135.203 65.4953C135.203 66.0987 135.691 66.5864 136.294 66.5864H155.676C156.28 66.5864 156.767 66.0987 156.767 65.4953C156.767 64.892 156.28 64.4043 155.676 64.4043H136.294C135.691 64.4043 135.203 64.892 135.203 65.4953Z" fill="#B8B5FF"/>
</g>
<g opacity="0.3">
<path d="M135.184 61.1008C135.184 61.7041 135.671 62.1918 136.275 62.1918H155.657C156.26 62.1918 156.748 61.7041 156.748 61.1008C156.748 60.4975 156.26 60.0098 155.657 60.0098H136.275C135.671 60.0098 135.184 60.4975 135.184 61.1008Z" fill="#B8B5FF"/>
</g>
<g opacity="0.3">
<path d="M135.164 56.7102C135.164 57.3135 135.652 57.8012 136.255 57.8012H155.637C156.241 57.8012 156.728 57.3135 156.728 56.7102C156.728 56.1068 156.241 55.6191 155.637 55.6191H136.255C135.652 55.6191 135.164 56.1068 135.164 56.7102Z" fill="#B8B5FF"/>
</g>
<g opacity="0.3">
<path d="M135.145 52.3156C135.145 52.919 135.632 53.4067 136.236 53.4067H155.618C156.221 53.4067 156.709 52.919 156.709 52.3156C156.709 51.7123 156.221 51.2246 155.618 51.2246H136.236C135.632 51.2246 135.145 51.7123 135.145 52.3156Z" fill="#B8B5FF"/>
</g>
<path d="M126.969 52.1347C126.969 60.1189 120.499 66.5847 112.519 66.5847C104.54 66.5847 98.0645 60.1139 98.0645 52.1347C98.0645 50.1537 98.4617 48.2683 99.1857 46.5488L112.519 52.1347L111.836 37.6998C112.062 37.6847 112.288 37.6797 112.519 37.6797C120.499 37.6797 126.969 44.1505 126.969 52.1297V52.1347Z" fill="#FECB0F"/>
<path d="M110.523 35.4219C106.204 35.623 102.383 37.7146 99.8691 40.8972C99.0596 41.9178 98.3859 43.0541 97.873 44.2759L111.207 49.8618L110.523 35.4269V35.4219Z" fill="#FFEA9F"/>
<g opacity="0.3">
<path d="M164.013 27.1057V30.2582H89.707V27.1057C89.707 26.2812 90.3757 25.6074 91.2053 25.6074H162.515C163.34 25.6074 164.013 26.2761 164.013 27.1057Z" fill="#B8B5FF"/>
</g>
<path d="M155.403 27.9348C155.403 28.518 154.93 28.9906 154.347 28.9906C153.764 28.9906 153.291 28.518 153.291 27.9348C153.291 27.3515 153.764 26.8789 154.347 26.8789C154.93 26.8789 155.403 27.3515 155.403 27.9348Z" fill="#6A48E8"/>
<path d="M157.771 28.9906C158.354 28.9906 158.827 28.5179 158.827 27.9348C158.827 27.3516 158.354 26.8789 157.771 26.8789C157.188 26.8789 156.715 27.3516 156.715 27.9348C156.715 28.5179 157.188 28.9906 157.771 28.9906Z" fill="#6A48E8"/>
<path d="M161.044 28.9906C161.627 28.9906 162.1 28.5179 162.1 27.9348C162.1 27.3516 161.627 26.8789 161.044 26.8789C160.461 26.8789 159.988 27.3516 159.988 27.9348C159.988 28.5179 160.461 28.9906 161.044 28.9906Z" fill="#002029"/>
<path d="M129.964 77.6061C129.964 79.3206 128.576 80.7082 126.862 80.7082C125.147 80.7082 123.76 79.3206 123.76 77.6061C123.76 75.8916 125.147 74.5039 126.862 74.5039C128.576 74.5039 129.964 75.8916 129.964 77.6061Z" fill="#2A5B74"/>
<path d="M163.155 100.854H91.3927C89.3518 100.854 87.6973 102.508 87.6973 104.549V170.031C87.6973 172.072 89.3518 173.727 91.3927 173.727H163.155C165.196 173.727 166.85 172.072 166.85 170.031V104.549C166.85 102.508 165.196 100.854 163.155 100.854Z" fill="#6A48E8"/>
<path d="M149.827 109.411H95.4859C94.8373 109.411 94.3145 108.888 94.3145 108.24C94.3145 107.591 94.8373 107.068 95.4859 107.068H149.827C150.475 107.068 150.998 107.591 150.998 108.24C150.998 108.888 150.475 109.411 149.827 109.411Z" fill="#6A48E8"/>
<path d="M149.827 115.642H95.4859C94.8373 115.642 94.3145 115.119 94.3145 114.47C94.3145 113.822 94.8373 113.299 95.4859 113.299H149.827C150.475 113.299 150.998 113.822 150.998 114.47C150.998 115.119 150.475 115.642 149.827 115.642Z" fill="#6A48E8"/>
<path d="M149.827 121.874H95.4859C94.8373 121.874 94.3145 121.351 94.3145 120.703C94.3145 120.054 94.8373 119.531 95.4859 119.531H149.827C150.475 119.531 150.998 120.054 150.998 120.703C150.998 121.351 150.475 121.874 149.827 121.874Z" fill="#6A48E8"/>
<path d="M149.827 128.105H95.4859C94.8373 128.105 94.3145 127.582 94.3145 126.933C94.3145 126.285 94.8373 125.762 95.4859 125.762H149.827C150.475 125.762 150.998 126.285 150.998 126.933C150.998 127.582 150.475 128.105 149.827 128.105Z" fill="#6A48E8"/>
<path d="M149.827 134.335H95.4859C94.8373 134.335 94.3145 133.812 94.3145 133.164C94.3145 132.515 94.8373 131.992 95.4859 131.992H149.827C150.475 131.992 150.998 132.515 150.998 133.164C150.998 133.812 150.475 134.335 149.827 134.335Z" fill="#6A48E8"/>
<path d="M149.827 140.57H95.4859C94.8373 140.57 94.3145 140.047 94.3145 139.398C94.3145 138.749 94.8373 138.227 95.4859 138.227H149.827C150.475 138.227 150.998 138.749 150.998 139.398C150.998 140.047 150.475 140.57 149.827 140.57Z" fill="#6A48E8"/>
<path d="M159.108 107.068C158.489 107.068 157.986 107.571 157.986 108.19V108.285C157.986 108.904 158.489 109.406 159.108 109.406C159.726 109.406 160.229 108.904 160.229 108.285V108.19C160.229 107.571 159.726 107.068 159.108 107.068Z" fill="white"/>
<path d="M159.108 113.299C158.489 113.299 157.986 113.802 157.986 114.42V114.516C157.986 115.134 158.489 115.637 159.108 115.637C159.726 115.637 160.229 115.134 160.229 114.516V114.42C160.229 113.802 159.726 113.299 159.108 113.299Z" fill="white"/>
<path d="M159.108 119.531C158.489 119.531 157.986 120.034 157.986 120.652V120.748C157.986 121.366 158.489 121.869 159.108 121.869C159.726 121.869 160.229 121.366 160.229 120.748V120.652C160.229 120.034 159.726 119.531 159.108 119.531Z" fill="white"/>
<path d="M159.108 125.762C158.489 125.762 157.986 126.264 157.986 126.883V126.978C157.986 127.597 158.489 128.1 159.108 128.1C159.726 128.1 160.229 127.597 160.229 126.978V126.883C160.229 126.264 159.726 125.762 159.108 125.762Z" fill="white"/>
<path d="M159.108 131.996C158.489 131.996 157.986 132.499 157.986 133.117V133.213C157.986 133.831 158.489 134.334 159.108 134.334C159.726 134.334 160.229 133.831 160.229 133.213V133.117C160.229 132.499 159.726 131.996 159.108 131.996Z" fill="white"/>
<path d="M159.108 138.227C158.489 138.227 157.986 138.729 157.986 139.348V139.443C157.986 140.062 158.489 140.565 159.108 140.565C159.726 140.565 160.229 140.062 160.229 139.443V139.348C160.229 138.729 159.726 138.227 159.108 138.227Z" fill="white"/>
<path d="M156.489 146.889H98.0602C95.9915 146.889 94.3145 148.566 94.3145 150.634V165.587C94.3145 167.656 95.9915 169.333 98.0602 169.333H156.489C158.557 169.333 160.234 167.656 160.234 165.587V150.634C160.234 148.566 158.557 146.889 156.489 146.889Z" fill="#6A48E8"/>
<path d="M106.918 168.906C100.965 168.906 96.123 164.064 96.123 158.111C96.123 152.158 100.965 147.316 106.918 147.316C112.871 147.316 117.713 152.158 117.713 158.111C117.713 164.064 112.871 168.906 106.918 168.906ZM106.918 150.972C102.981 150.972 99.7833 154.174 99.7833 158.106C99.7833 162.038 102.986 165.241 106.918 165.241C110.85 165.241 114.052 162.038 114.052 158.106C114.052 154.174 110.85 150.972 106.918 150.972Z" fill="#B8B5FF"/>
<path d="M106.882 157.256C106.409 157.256 106.027 156.874 106.027 156.401V152.62C106.027 152.148 106.409 151.766 106.882 151.766C107.355 151.766 107.737 152.148 107.737 152.62V156.401C107.737 156.874 107.355 157.256 106.882 157.256Z" fill="#B8B5FF"/>
<path d="M106.882 164.412C106.409 164.412 106.027 164.03 106.027 163.558V159.777C106.027 159.304 106.409 158.922 106.882 158.922C107.355 158.922 107.737 159.304 107.737 159.777V163.558C107.737 164.03 107.355 164.412 106.882 164.412Z" fill="#B8B5FF"/>
<path d="M105.198 158.942H101.417C100.945 158.942 100.562 158.56 100.562 158.087C100.562 157.615 100.945 157.232 101.417 157.232H105.198C105.671 157.232 106.053 157.615 106.053 158.087C106.053 158.56 105.671 158.942 105.198 158.942Z" fill="#B8B5FF"/>
<path d="M112.354 158.942H108.573C108.101 158.942 107.719 158.56 107.719 158.087C107.719 157.615 108.101 157.232 108.573 157.232H112.354C112.827 157.232 113.209 157.615 113.209 158.087C113.209 158.56 112.827 158.942 112.354 158.942Z" fill="#B8B5FF"/>
<path d="M129.84 168.906C123.887 168.906 119.045 164.064 119.045 158.111C119.045 152.158 123.887 147.316 129.84 147.316C135.793 147.316 140.634 152.158 140.634 158.111C140.634 164.064 135.793 168.906 129.84 168.906ZM129.84 150.972C125.903 150.972 122.705 154.174 122.705 158.106C122.705 162.038 125.908 165.241 129.84 165.241C133.771 165.241 136.974 162.038 136.974 158.106C136.974 154.174 133.771 150.972 129.84 150.972Z" fill="#B8B5FF"/>
<path d="M129.81 157.256C129.337 157.256 128.955 156.874 128.955 156.401V152.62C128.955 152.148 129.337 151.766 129.81 151.766C130.282 151.766 130.665 152.148 130.665 152.62V156.401C130.665 156.874 130.282 157.256 129.81 157.256Z" fill="#B8B5FF"/>
<path d="M129.81 164.412C129.337 164.412 128.955 164.03 128.955 163.558V159.777C128.955 159.304 129.337 158.922 129.81 158.922C130.282 158.922 130.665 159.304 130.665 159.777V163.558C130.665 164.03 130.282 164.412 129.81 164.412Z" fill="#B8B5FF"/>
<path d="M128.12 158.942H124.339C123.866 158.942 123.484 158.56 123.484 158.087C123.484 157.615 123.866 157.232 124.339 157.232H128.12C128.593 157.232 128.975 157.615 128.975 158.087C128.975 158.56 128.593 158.942 128.12 158.942Z" fill="#B8B5FF"/>
<path d="M135.28 158.942H131.499C131.027 158.942 130.645 158.56 130.645 158.087C130.645 157.615 131.027 157.232 131.499 157.232H135.28C135.753 157.232 136.135 157.615 136.135 158.087C136.135 158.56 135.753 158.942 135.28 158.942Z" fill="#B8B5FF"/>
<path d="M157.489 149.977H143.944C143.439 149.977 143.029 150.386 143.029 150.892V153.129C143.029 153.634 143.439 154.044 143.944 154.044H157.489C157.995 154.044 158.404 153.634 158.404 153.129V150.892C158.404 150.386 157.995 149.977 157.489 149.977Z" fill="#B8B5FF"/>
<path d="M146.83 152.708C146.544 152.708 146.257 152.647 145.986 152.521C145.513 152.305 144.985 152.195 144.402 152.195H143.718C143.618 152.195 143.537 152.114 143.537 152.014C143.537 151.913 143.618 151.833 143.718 151.833H144.402C145.035 151.833 145.619 151.953 146.136 152.195C146.755 152.481 147.474 152.361 147.967 151.888C148.746 151.139 149.973 151.134 150.752 151.888C151.391 152.501 152.396 152.501 153.035 151.888C153.673 151.275 154.628 151.149 155.403 151.576C155.715 151.747 156.036 151.838 156.348 151.838H157.56C157.66 151.838 157.741 151.918 157.741 152.019C157.741 152.119 157.66 152.2 157.56 152.2H156.348C155.971 152.2 155.594 152.094 155.227 151.893C154.593 151.541 153.814 151.647 153.291 152.149C152.507 152.899 151.285 152.904 150.506 152.149C149.867 151.536 148.862 151.536 148.223 152.149C147.836 152.521 147.338 152.713 146.83 152.713V152.708Z" fill="white"/>
<path d="M152.707 167.136H143.662C143.315 167.136 143.033 166.854 143.033 166.507C143.033 166.16 143.315 165.879 143.662 165.879H152.707C153.054 165.879 153.335 166.16 153.335 166.507C153.335 166.854 153.054 167.136 152.707 167.136Z" fill="#B8B5FF"/>
<path d="M152.707 163.839H143.662C143.315 163.839 143.033 163.557 143.033 163.211C143.033 162.864 143.315 162.582 143.662 162.582H152.707C153.054 162.582 153.335 162.864 153.335 163.211C153.335 163.557 153.054 163.839 152.707 163.839Z" fill="#B8B5FF"/>
<path d="M152.707 160.536H143.662C143.315 160.536 143.033 160.255 143.033 159.908C143.033 159.561 143.315 159.279 143.662 159.279H152.707C153.054 159.279 153.335 159.561 153.335 159.908C153.335 160.255 153.054 160.536 152.707 160.536Z" fill="#B8B5FF"/>
<path d="M152.707 157.237H143.662C143.315 157.237 143.033 156.956 143.033 156.609C143.033 156.262 143.315 155.98 143.662 155.98H152.707C153.054 155.98 153.335 156.262 153.335 156.609C153.335 156.956 153.054 157.237 152.707 157.237Z" fill="#B8B5FF"/>
<path d="M156.854 165.875H156.834C156.487 165.875 156.205 166.157 156.205 166.503C156.205 166.85 156.487 167.132 156.834 167.132H156.854C157.201 167.132 157.482 166.85 157.482 166.503C157.482 166.157 157.201 165.875 156.854 165.875Z" fill="#B8B5FF"/>
<path d="M156.854 162.576H156.834C156.487 162.576 156.205 162.858 156.205 163.205C156.205 163.552 156.487 163.833 156.834 163.833H156.854C157.201 163.833 157.482 163.552 157.482 163.205C157.482 162.858 157.201 162.576 156.854 162.576Z" fill="#B8B5FF"/>
<path d="M156.854 159.273H156.834C156.487 159.273 156.205 159.555 156.205 159.902C156.205 160.249 156.487 160.53 156.834 160.53H156.854C157.201 160.53 157.482 160.249 157.482 159.902C157.482 159.555 157.201 159.273 156.854 159.273Z" fill="#B8B5FF"/>
<path d="M156.854 155.975H156.834C156.487 155.975 156.205 156.256 156.205 156.603C156.205 156.95 156.487 157.232 156.834 157.232H156.854C157.201 157.232 157.482 156.95 157.482 156.603C157.482 156.256 157.201 155.975 156.854 155.975Z" fill="#B8B5FF"/>
<path d="M76.445 134.063V172.209C76.445 173.049 75.7662 173.728 74.9266 173.728H52.8192C52.3968 173.728 52.0147 173.557 51.7382 173.275C51.4667 173.004 51.3008 172.627 51.3008 172.209V134.063C51.3008 133.224 51.9795 132.545 52.8192 132.545H74.9266C75.2282 132.545 75.5048 132.63 75.7411 132.781C76.1634 133.053 76.445 133.525 76.445 134.063Z" fill="#6A48E8"/>
<path d="M69.5555 139.9H54.7938C54.2156 139.9 53.748 139.433 53.748 138.854C53.748 138.276 54.2156 137.809 54.7938 137.809H69.5555C70.1338 137.809 70.6013 138.276 70.6013 138.854C70.6013 139.433 70.1338 139.9 69.5555 139.9Z" fill="#B8B5FF"/>
<path d="M69.5516 142.57H54.7899C54.2124 142.57 53.7441 143.039 53.7441 143.616C53.7441 144.194 54.2124 144.662 54.7899 144.662H69.5516C70.1292 144.662 70.5974 144.194 70.5974 143.616C70.5974 143.039 70.1292 142.57 69.5516 142.57Z" fill="#B8B5FF"/>
<path d="M69.5555 149.418H54.7938C54.2156 149.418 53.748 148.95 53.748 148.372C53.748 147.794 54.2156 147.326 54.7938 147.326H69.5555C70.1338 147.326 70.6013 147.794 70.6013 148.372C70.6013 148.95 70.1338 149.418 69.5555 149.418Z" fill="#B8B5FF"/>
<path d="M69.5555 154.179H54.7938C54.2156 154.179 53.748 153.712 53.748 153.134C53.748 152.555 54.2156 152.088 54.7938 152.088H69.5555C70.1338 152.088 70.6013 152.555 70.6013 153.134C70.6013 153.712 70.1338 154.179 69.5555 154.179Z" fill="#B8B5FF"/>
<path d="M69.5555 158.941H54.7938C54.2156 158.941 53.748 158.474 53.748 157.895C53.748 157.317 54.2156 156.85 54.7938 156.85H69.5555C70.1338 156.85 70.6013 157.317 70.6013 157.895C70.6013 158.474 70.1338 158.941 69.5555 158.941Z" fill="#B8B5FF"/>
<path d="M69.5555 163.697H54.7938C54.2156 163.697 53.748 163.229 53.748 162.651C53.748 162.073 54.2156 161.605 54.7938 161.605H69.5555C70.1338 161.605 70.6013 162.073 70.6013 162.651C70.6013 163.229 70.1338 163.697 69.5555 163.697Z" fill="#B8B5FF"/>
<path d="M69.5555 168.459H54.7938C54.2156 168.459 53.748 167.991 53.748 167.413C53.748 166.835 54.2156 166.367 54.7938 166.367H69.5555C70.1338 166.367 70.6013 166.835 70.6013 167.413C70.6013 167.991 70.1338 168.459 69.5555 168.459Z" fill="#B8B5FF"/>
<path d="M73.5825 138.256C73.5825 138.502 73.3813 138.704 73.135 138.704C72.8886 138.704 72.6875 138.502 72.6875 138.256C72.6875 138.01 72.8886 137.809 73.135 137.809C73.3813 137.809 73.5825 138.01 73.5825 138.256Z" fill="#173953"/>
<path d="M73.5825 139.453C73.5825 139.7 73.3813 139.901 73.135 139.901C72.8886 139.901 72.6875 139.7 72.6875 139.453C72.6875 139.207 72.8886 139.006 73.135 139.006C73.3813 139.006 73.5825 139.207 73.5825 139.453Z" fill="#B8B5FF"/>
<path d="M73.5825 143.018C73.5825 143.264 73.3813 143.465 73.135 143.465C72.8886 143.465 72.6875 143.264 72.6875 143.018C72.6875 142.771 72.8886 142.57 73.135 142.57C73.3813 142.57 73.5825 142.771 73.5825 143.018Z" fill="white"/>
<path d="M73.5825 144.215C73.5825 144.461 73.3813 144.663 73.135 144.663C72.8886 144.663 72.6875 144.461 72.6875 144.215C72.6875 143.969 72.8886 143.768 73.135 143.768C73.3813 143.768 73.5825 143.969 73.5825 144.215Z" fill="#B8B5FF"/>
<path d="M73.5825 152.535C73.5825 152.782 73.3813 152.983 73.135 152.983C72.8886 152.983 72.6875 152.782 72.6875 152.535C72.6875 152.289 72.8886 152.088 73.135 152.088C73.3813 152.088 73.5825 152.289 73.5825 152.535Z" fill="white"/>
<path d="M73.5825 153.733C73.5825 153.979 73.3813 154.18 73.135 154.18C72.8886 154.18 72.6875 153.979 72.6875 153.733C72.6875 153.486 72.8886 153.285 73.135 153.285C73.3813 153.285 73.5825 153.486 73.5825 153.733Z" fill="#B8B5FF"/>
<path d="M73.5825 147.78C73.5825 148.026 73.3813 148.227 73.135 148.227C72.8886 148.227 72.6875 148.026 72.6875 147.78C72.6875 147.533 72.8886 147.332 73.135 147.332C73.3813 147.332 73.5825 147.533 73.5825 147.78Z" fill="#173953"/>
<path d="M73.5825 148.971C73.5825 149.217 73.3813 149.418 73.135 149.418C72.8886 149.418 72.6875 149.217 72.6875 148.971C72.6875 148.725 72.8886 148.523 73.135 148.523C73.3813 148.523 73.5825 148.725 73.5825 148.971Z" fill="#B8B5FF"/>
<path d="M73.5825 157.297C73.5825 157.543 73.3813 157.745 73.135 157.745C72.8886 157.745 72.6875 157.543 72.6875 157.297C72.6875 157.051 72.8886 156.85 73.135 156.85C73.3813 156.85 73.5825 157.051 73.5825 157.297Z" fill="#173953"/>
<path d="M73.5825 158.494C73.5825 158.741 73.3813 158.942 73.135 158.942C72.8886 158.942 72.6875 158.741 72.6875 158.494C72.6875 158.248 72.8886 158.047 73.135 158.047C73.3813 158.047 73.5825 158.248 73.5825 158.494Z" fill="#B8B5FF"/>
<path d="M73.5825 162.059C73.5825 162.305 73.3813 162.506 73.135 162.506C72.8886 162.506 72.6875 162.305 72.6875 162.059C72.6875 161.812 72.8886 161.611 73.135 161.611C73.3813 161.611 73.5825 161.812 73.5825 162.059Z" fill="white"/>
<path d="M73.5825 163.25C73.5825 163.497 73.3813 163.698 73.135 163.698C72.8886 163.698 72.6875 163.497 72.6875 163.25C72.6875 163.004 72.8886 162.803 73.135 162.803C73.3813 162.803 73.5825 163.004 73.5825 163.25Z" fill="#B8B5FF"/>
<path d="M73.5825 166.815C73.5825 167.061 73.3813 167.262 73.135 167.262C72.8886 167.262 72.6875 167.061 72.6875 166.815C72.6875 166.568 72.8886 166.367 73.135 166.367C73.3813 166.367 73.5825 166.568 73.5825 166.815Z" fill="#173953"/>
<path d="M73.5825 168.012C73.5825 168.258 73.3813 168.459 73.135 168.459C72.8886 168.459 72.6875 168.258 72.6875 168.012C72.6875 167.766 72.8886 167.564 73.135 167.564C73.3813 167.564 73.5825 167.766 73.5825 168.012Z" fill="#B8B5FF"/>
<path d="M63.8684 131.639C63.4159 131.639 63.0488 131.272 63.0488 130.82V89.677C63.0488 89.2244 63.4159 88.8574 63.8684 88.8574H78.5496C79.0021 88.8574 79.3692 89.2244 79.3692 89.677C79.3692 90.1295 79.0021 90.4965 78.5496 90.4965H64.6829V130.82C64.6829 131.272 64.3158 131.639 63.8633 131.639H63.8684Z" fill="#6A48E8"/>
<path d="M71.6468 132.544H56.0957C56.0957 131.593 56.865 130.824 57.8152 130.824H69.9273C70.8775 130.824 71.6468 131.593 71.6468 132.544Z" fill="#173953"/>
<path d="M75.2784 87.5801H77.7822V91.7783H75.2784C74.3432 91.7783 73.584 91.0191 73.584 90.0839V89.2745C73.584 88.3393 74.3432 87.5801 75.2784 87.5801Z" fill="#B8B5FF"/>
<path d="M196.03 131.639C195.578 131.639 195.211 131.272 195.211 130.819V122.272H174.607C174.154 122.272 173.787 121.905 173.787 121.452C173.787 121 174.154 120.633 174.607 120.633H196.03C196.483 120.633 196.85 121 196.85 121.452V130.819C196.85 131.272 196.483 131.639 196.03 131.639Z" fill="#6A48E8"/>
<path d="M177.901 123.447H175.397V119.249H177.901C178.837 119.249 179.596 120.008 179.596 120.943V121.753C179.596 122.688 178.837 123.447 177.901 123.447Z" fill="#B8B5FF"/>
<path d="M198.133 128.319V130.823H193.935V128.319C193.935 127.384 194.694 126.625 195.629 126.625H196.438C197.374 126.625 198.133 127.384 198.133 128.319Z" fill="#B8B5FF"/>
<path d="M186.182 130.824C184.945 130.824 183.939 131.83 183.939 133.067L183.995 171.399C183.995 172.007 184.241 172.56 184.638 172.957C185.041 173.36 185.599 173.611 186.212 173.611L205.655 173.581C206.876 173.581 207.867 172.585 207.867 171.364L207.812 133.062C207.812 131.825 206.806 130.824 205.569 130.824H186.177H186.182Z" fill="#173953"/>
<path d="M183.948 141.163C183.501 141.163 183.139 140.801 183.139 140.354V136.819C183.134 136.372 183.496 136.01 183.943 136.01V141.168L183.948 141.163Z" fill="#002029"/>
<path d="M207.821 140.942C208.188 140.942 208.485 140.645 208.485 140.278V137.402C208.485 137.035 208.183 136.738 207.816 136.738V140.937L207.821 140.942Z" fill="#002029"/>
<path d="M183.958 147.021C183.511 147.021 183.148 146.659 183.148 146.211V142.677C183.143 142.229 183.505 141.867 183.953 141.867L183.963 147.026L183.958 147.021Z" fill="#002029"/>
<path d="M204.778 170.424L190.393 170.444H187.341C187.034 170.444 186.758 170.288 186.597 170.052C186.562 170.007 186.537 169.951 186.512 169.901C186.461 169.791 186.436 169.67 186.436 169.544L186.426 162.354L186.416 155.341L186.401 146.844V142.339L186.381 134.706C186.381 134.209 186.783 133.806 187.281 133.806L194.295 133.796H198.563L204.722 133.781C204.853 133.781 204.979 133.806 205.089 133.862C205.376 133.987 205.582 134.259 205.617 134.581C205.617 134.616 205.622 134.646 205.622 134.681L205.632 141.735L205.642 149.458V154.064L205.673 169.529C205.673 170.027 205.27 170.429 204.773 170.429L204.778 170.424Z" fill="white"/>
<path d="M196.377 144.828C192.033 144.828 188.498 148.363 188.498 152.707C188.498 157.051 192.033 160.585 196.377 160.585C200.721 160.585 204.255 157.051 204.255 152.707C204.255 148.363 200.721 144.828 196.377 144.828ZM196.693 155.618V152.858H200.253C200.233 153.833 200.092 154.763 199.831 155.618H196.688H196.693ZM198.926 158.76C199.504 158.026 199.967 157.182 200.293 156.251H202.692C201.676 158.056 199.977 159.323 197.976 159.776C198.312 159.474 198.629 159.132 198.926 158.765V158.76ZM199.62 156.251C199.323 157.026 198.926 157.735 198.443 158.348C197.689 159.313 196.935 159.801 196.693 159.942V156.246H199.62V156.251ZM196.693 148.83V145.472C196.789 145.472 196.879 145.482 196.975 145.492C197.367 145.824 198.604 146.97 199.444 148.83H196.693ZM200.137 148.83C199.856 148.152 199.499 147.503 199.077 146.895C198.77 146.457 198.438 146.045 198.081 145.668C199.891 146.105 201.485 147.247 202.496 148.83H200.143H200.137ZM196.693 152.224V149.464H199.705C200.032 150.354 200.213 151.279 200.253 152.224H196.693ZM200.882 152.224C200.846 151.289 200.675 150.359 200.374 149.464H202.847C203.285 150.329 203.536 151.259 203.602 152.224H200.882ZM203.617 152.858C203.597 153.818 203.396 154.743 203.008 155.618H200.489C200.731 154.753 200.861 153.828 200.882 152.858H203.612H203.617ZM192.329 155.618H189.74C189.358 154.743 189.152 153.818 189.132 152.858H191.937C191.957 153.828 192.088 154.753 192.329 155.618ZM193.38 148.83C193.626 148.287 193.918 147.764 194.26 147.272C194.924 146.316 195.587 145.713 195.859 145.482C195.924 145.482 195.995 145.472 196.06 145.472V148.83H193.38ZM196.06 149.464V152.224H192.576C192.611 151.284 192.797 150.354 193.124 149.464H196.06ZM190.263 148.83C191.294 147.216 192.918 146.065 194.768 145.643C194.406 146.025 194.064 146.447 193.752 146.895C193.33 147.503 192.973 148.152 192.691 148.83H190.263ZM196.06 152.858V155.618H192.993C192.737 154.763 192.596 153.838 192.576 152.858H196.065H196.06ZM189.147 152.224C189.212 151.259 189.463 150.329 189.901 149.464H192.45C192.148 150.359 191.977 151.289 191.942 152.224H189.147ZM192.53 156.251C192.862 157.182 193.32 158.026 193.898 158.76C194.195 159.137 194.521 159.484 194.868 159.796C192.852 159.369 191.072 158.061 190.057 156.251H192.53ZM196.06 156.251V159.902C195.582 159.6 194.084 158.524 193.209 156.251H196.06Z" fill="#6A48E8"/>
<path d="M202.436 133.695L201.536 135.073C201.285 135.455 200.857 135.686 200.4 135.686L191.671 135.701C191.214 135.701 190.786 135.47 190.53 135.088L189.625 133.715C189.625 133.574 189.741 133.454 189.881 133.454L202.174 133.434C202.315 133.434 202.436 133.549 202.436 133.69V133.695Z" fill="#173953"/>
<path d="M199.083 134.535L191.607 134.546C191.456 134.546 191.33 134.42 191.33 134.269C191.33 134.118 191.456 133.992 191.607 133.992L199.083 133.982C199.234 133.982 199.36 134.108 199.36 134.259C199.36 134.41 199.234 134.535 199.083 134.535Z" fill="#2A5B74"/>
<path d="M200.817 134.174C200.862 134.405 200.661 134.606 200.43 134.566C200.299 134.541 200.194 134.436 200.169 134.305C200.123 134.069 200.324 133.867 200.561 133.913C200.691 133.938 200.797 134.043 200.822 134.174H200.817Z" fill="#2A5B74"/>
</svg>
