<svg width="252" height="187" viewBox="0 0 252 187" fill="none" xmlns="http://www.w3.org/2000/svg">
<path d="M128.487 142.2C91.174 142.2 60.9238 124.954 60.9238 103.678C60.9238 82.4007 91.1753 65.1582 128.487 65.1582C165.799 65.1582 196.049 82.4062 196.049 103.678C196.049 124.949 165.802 142.2 128.487 142.2Z" fill="#9EABD3"/>
<path d="M69.625 85.0508V98.6417C69.625 117.178 95.9793 132.202 128.487 132.202C160.994 132.202 187.347 117.178 187.347 98.6417V85.0508H69.625Z" fill="#7C294B"/>
<path d="M128.487 118.609C95.9806 118.609 69.625 103.585 69.625 85.0489C69.625 66.5124 95.9793 51.4902 128.487 51.4902C160.994 51.4902 187.347 66.5165 187.347 85.0489C187.347 103.581 160.996 118.609 128.487 118.609Z" fill="#CC4E7E"/>
<path d="M128.486 111.487C102.88 111.487 82.1191 99.6527 82.1191 85.0505C82.1191 70.4482 102.879 58.6152 128.486 58.6152C154.094 58.6152 174.852 70.4524 174.852 85.0505C174.852 99.6486 154.094 111.487 128.486 111.487Z" fill="white"/>
<path d="M128.486 105.068C109.096 105.068 93.375 96.1067 93.375 85.0504C93.375 73.9941 109.096 65.0332 128.486 65.0332C147.876 65.0332 163.595 73.9968 163.595 85.0504C163.595 96.1039 147.877 105.068 128.486 105.068Z" fill="#CC4E7E"/>
<path d="M128.487 98.1852C115.763 98.1852 105.449 92.3051 105.449 85.0499C105.449 77.7948 115.763 71.916 128.487 71.916C141.21 71.916 151.524 77.7975 151.524 85.0499C151.524 92.3023 141.21 98.1852 128.487 98.1852Z" fill="white"/>
<path d="M128.488 91.6909C122.054 91.6909 116.84 88.7186 116.84 85.0505C116.84 81.3825 122.054 78.4102 128.488 78.4102C134.921 78.4102 140.134 81.3838 140.134 85.0505C140.134 88.7172 134.919 91.6909 128.488 91.6909Z" fill="#CC4E7E"/>
<path d="M128.487 87.2967C126.312 87.2967 124.549 86.2922 124.549 85.0517C124.549 83.8111 126.312 82.8066 128.487 82.8066C130.662 82.8066 132.426 83.8125 132.426 85.0517C132.426 86.2908 130.662 87.2967 128.487 87.2967Z" fill="#7C294B"/>
<path d="M128.484 32.5261V6.96223L140.312 0.75V25.12L128.484 32.5261Z" fill="#B3EEEB"/>
<path d="M128.484 32.5261V6.96223L116.658 0.75V25.12L128.484 32.5261Z" fill="#59ECE5"/>
<path d="M128.484 5.64844V85.6101" stroke="#40D5CE" strokeWidth="4.30067" strokeMiterlimit="10"/>
<path d="M151.634 163.343L169.585 155.789C170.197 156.15 170.919 156.763 170.989 156.854C171.828 157.959 170.746 159.467 172.152 160.416C173.885 161.585 178.149 161.329 181.677 159.845C181.776 159.804 181.872 159.762 181.968 159.719C185.282 158.241 186.612 156.177 184.927 155.041C183.849 154.315 181.994 154.36 180.482 154.082C179.7 153.938 178.896 153.724 178.264 153.436C178.127 153.372 177.451 152.983 177.054 152.647L195.028 145.084L228.879 167.925L185.485 186.185L171.48 176.734C171.535 176.708 171.592 176.682 171.653 176.654C172.344 176.345 173.343 176.012 173.501 175.976C175.59 175.518 178.415 176.074 180.22 175.315C182.43 174.33 181.979 172.097 179.258 170.261C176.506 168.404 172.475 167.656 170.254 168.591C168.875 169.206 168.929 170.172 168.396 170.963C168.115 171.382 167.703 171.812 167.154 172.15C167.089 172.19 166.836 172.318 166.516 172.461C166.252 172.579 165.943 172.706 165.655 172.804L151.633 163.342L151.634 163.343Z" fill="#9EABD3"/>
<path d="M185.504 146.556C185.5 146.151 185.29 145.785 184.851 145.487C184.781 145.441 184.707 145.398 184.63 145.357C184.606 145.345 184.58 145.332 184.556 145.321C184.501 145.295 184.443 145.269 184.385 145.244C184.37 145.239 184.358 145.232 184.343 145.225C184.331 145.221 184.317 145.217 184.305 145.213C184.211 145.177 184.117 145.144 184.018 145.115C184.016 145.115 184.015 145.115 184.012 145.115H184.011C183.911 145.085 183.808 145.06 183.702 145.036C183.69 145.033 183.679 145.029 183.666 145.026C183.653 145.023 183.636 145.021 183.622 145.018C183.499 144.992 183.373 144.967 183.244 144.945C183.24 144.945 183.237 144.945 183.234 144.944C183.223 144.941 183.212 144.941 183.203 144.938C183.069 144.916 182.935 144.897 182.799 144.879C182.784 144.878 182.77 144.875 182.755 144.874C182.613 144.855 182.468 144.84 182.324 144.823C182.316 144.822 182.308 144.82 182.3 144.819C182.183 144.805 182.066 144.793 181.95 144.779C181.812 144.764 181.675 144.748 181.541 144.73C181.516 144.726 181.491 144.723 181.465 144.72C181.332 144.702 181.2 144.684 181.071 144.662C181.004 144.652 180.937 144.641 180.871 144.628C180.735 144.603 180.599 144.575 180.464 144.544C180.439 144.539 180.414 144.535 180.389 144.529C180.291 144.507 180.192 144.484 180.093 144.459C180.09 144.459 180.088 144.458 180.085 144.457C179.986 144.432 179.889 144.405 179.791 144.377C179.761 144.367 179.729 144.358 179.699 144.35C179.632 144.329 179.566 144.308 179.5 144.286C179.469 144.276 179.436 144.266 179.404 144.254C179.337 144.23 179.27 144.206 179.205 144.181C179.18 144.171 179.154 144.162 179.13 144.152C179.046 144.119 178.965 144.085 178.887 144.049C178.765 143.993 178.158 143.643 177.803 143.344L177.882 152.376C178.238 152.677 178.843 153.025 178.966 153.083C179.045 153.118 179.126 153.153 179.209 153.186C179.216 153.187 179.222 153.191 179.227 153.194C179.246 153.201 179.266 153.208 179.283 153.214C179.349 153.239 179.417 153.264 179.485 153.287C179.517 153.298 179.547 153.308 179.578 153.319C179.646 153.341 179.714 153.363 179.783 153.383C179.802 153.389 179.82 153.396 179.841 153.401C179.85 153.404 179.86 153.407 179.869 153.409C179.967 153.438 180.066 153.466 180.166 153.49H180.167C180.267 153.516 180.369 153.54 180.47 153.563C180.48 153.566 180.49 153.567 180.499 153.57C180.513 153.573 180.527 153.575 180.54 153.578C180.678 153.608 180.815 153.637 180.951 153.662C181.007 153.671 181.062 153.682 181.119 153.691C181.13 153.692 181.141 153.693 181.152 153.696C181.281 153.717 181.412 153.736 181.545 153.754C181.571 153.758 181.597 153.761 181.623 153.763C181.756 153.781 181.891 153.796 182.025 153.811C182.025 153.811 182.028 153.811 182.029 153.811C182.117 153.821 182.206 153.832 182.294 153.842C182.33 153.846 182.366 153.85 182.401 153.854C182.548 153.87 182.693 153.888 182.838 153.906C182.849 153.907 182.861 153.91 182.872 153.912C183.009 153.929 183.146 153.95 183.279 153.971C183.293 153.972 183.308 153.975 183.322 153.977C183.451 153.999 183.577 154.023 183.701 154.05C183.727 154.056 183.754 154.061 183.78 154.068C183.886 154.093 183.99 154.117 184.089 154.148C184.189 154.176 184.287 154.211 184.381 154.246C184.409 154.257 184.435 154.267 184.462 154.278C184.521 154.303 184.578 154.327 184.632 154.355C184.657 154.367 184.682 154.378 184.705 154.39C184.782 154.43 184.856 154.473 184.926 154.519C185.367 154.817 185.577 155.185 185.581 155.588L185.501 146.556H185.504Z" fill="#4A28C8"/>
<path d="M172.418 166.447C172.448 166.44 172.48 166.433 172.512 166.426C172.554 166.416 172.595 166.407 172.638 166.398C172.672 166.392 172.708 166.386 172.742 166.381C172.771 166.375 172.801 166.371 172.83 166.366L172.896 173.934L185.43 182.391L185.35 173.359L174.969 166.352C175.12 166.37 175.274 166.392 175.428 166.416C175.463 166.422 175.499 166.429 175.533 166.434C175.591 166.444 175.647 166.455 175.705 166.466C175.746 166.474 175.787 166.482 175.828 166.49C175.883 166.501 175.938 166.512 175.993 166.525C176.031 166.533 176.07 166.543 176.108 166.551C176.197 166.571 176.287 166.593 176.376 166.615C176.401 166.622 176.425 166.628 176.45 166.635C176.561 166.663 176.672 166.694 176.783 166.726C176.805 166.733 176.826 166.739 176.848 166.746C177 166.791 177.154 166.839 177.306 166.891C177.315 166.894 177.321 166.897 177.33 166.899C177.482 166.952 177.633 167.008 177.782 167.065C177.795 167.071 177.807 167.075 177.819 167.079C177.991 167.146 178.163 167.219 178.331 167.295C178.34 167.299 178.348 167.301 178.356 167.306C178.526 167.382 178.695 167.465 178.861 167.55C178.867 167.553 178.872 167.555 178.878 167.558C179.045 167.646 179.211 167.736 179.372 167.831C179.374 167.833 179.377 167.834 179.38 167.835C179.543 167.933 179.704 168.033 179.859 168.139C181.242 169.072 181.969 170.12 181.977 171.013C181.951 168.003 181.924 164.992 181.898 161.981C181.89 161.088 181.162 160.041 179.779 159.106C179.624 159.002 179.463 158.9 179.3 158.804C179.297 158.803 179.293 158.802 179.291 158.799C179.13 158.704 178.965 158.614 178.797 158.526C178.791 158.523 178.786 158.52 178.779 158.518C178.614 158.432 178.445 158.35 178.275 158.273C178.267 158.269 178.259 158.266 178.25 158.262C178.083 158.187 177.911 158.114 177.74 158.047C177.736 158.047 177.733 158.044 177.73 158.043C177.722 158.04 177.712 158.037 177.704 158.033C177.553 157.974 177.4 157.918 177.247 157.866C177.242 157.863 177.235 157.862 177.229 157.859C177.076 157.807 176.922 157.759 176.767 157.712C176.755 157.708 176.744 157.704 176.731 157.701C176.723 157.698 176.716 157.697 176.708 157.694C176.595 157.661 176.483 157.631 176.37 157.601C176.347 157.595 176.325 157.59 176.302 157.584C176.21 157.561 176.118 157.539 176.026 157.519C176.009 157.514 175.992 157.51 175.975 157.506C175.956 157.502 175.937 157.498 175.918 157.494C175.86 157.482 175.802 157.469 175.746 157.458C175.706 157.45 175.666 157.442 175.627 157.435C175.569 157.424 175.511 157.413 175.454 157.403C175.426 157.398 175.397 157.392 175.37 157.388C175.363 157.387 175.356 157.385 175.348 157.384C175.193 157.359 175.038 157.337 174.886 157.32C174.873 157.32 174.861 157.315 174.85 157.314C174.842 157.314 174.832 157.313 174.822 157.311C174.689 157.296 174.556 157.284 174.423 157.276C174.412 157.276 174.401 157.273 174.39 157.273C174.375 157.273 174.361 157.273 174.346 157.27C174.102 157.255 173.862 157.25 173.629 157.256C173.615 157.256 173.601 157.256 173.586 157.256C173.574 157.256 173.563 157.256 173.55 157.258C173.436 157.262 173.325 157.267 173.216 157.276C173.213 157.276 173.21 157.276 173.21 157.276C173.202 157.276 173.195 157.278 173.188 157.278C173.073 157.288 172.962 157.302 172.851 157.317C172.84 157.318 172.826 157.32 172.815 157.321C172.807 157.321 172.798 157.324 172.79 157.325C172.745 157.332 172.7 157.34 172.656 157.348C172.624 157.354 172.591 157.359 172.561 157.365C172.514 157.374 172.469 157.384 172.424 157.394C172.399 157.399 172.374 157.403 172.351 157.41C172.347 157.41 172.344 157.412 172.341 157.413C172.244 157.436 172.149 157.464 172.056 157.493C172.034 157.499 172.013 157.506 171.993 157.513C171.901 157.543 171.809 157.576 171.723 157.613C171.653 157.645 171.589 157.676 171.526 157.709C171.508 157.72 171.491 157.73 171.473 157.74C171.451 157.752 171.428 157.763 171.407 157.775C171.389 157.786 171.373 157.797 171.356 157.808C171.334 157.822 171.311 157.837 171.29 157.851C171.256 157.874 171.224 157.897 171.193 157.922C171.174 157.936 171.154 157.949 171.138 157.965C171.131 157.97 171.124 157.974 171.119 157.98C171.082 158.01 171.046 158.041 171.013 158.074C171.009 158.078 171.005 158.083 171.001 158.087C170.975 158.113 170.947 158.139 170.923 158.166C170.916 158.175 170.909 158.183 170.902 158.191C170.89 158.205 170.879 158.218 170.868 158.232C170.844 158.26 170.821 158.288 170.8 158.317C170.791 158.331 170.78 158.343 170.77 158.357C170.765 158.364 170.759 158.371 170.755 158.379C170.744 158.394 170.736 158.409 170.726 158.424C170.708 158.452 170.691 158.479 170.673 158.508C170.66 158.53 170.648 158.552 170.636 158.572C170.621 158.6 170.606 158.627 170.59 158.655C170.585 158.664 170.579 158.674 170.575 158.684C170.57 158.695 170.564 158.706 170.56 158.715C170.536 158.763 170.514 158.811 170.492 158.861C170.486 158.872 170.482 158.881 170.477 158.892C170.448 158.957 170.42 159.023 170.391 159.087C170.371 159.136 170.349 159.186 170.327 159.235C170.319 159.254 170.31 159.274 170.302 159.293C170.276 159.352 170.247 159.411 170.219 159.47C170.203 159.501 170.186 159.532 170.169 159.562C170.161 159.577 170.154 159.591 170.146 159.606C170.12 159.65 170.092 159.695 170.063 159.739C170.044 159.766 170.025 159.794 170.006 159.821C169.977 159.861 169.947 159.901 169.915 159.941C169.902 159.958 169.889 159.975 169.875 159.991C169.834 160.042 169.79 160.093 169.744 160.144C169.74 160.148 169.737 160.152 169.733 160.156C169.685 160.208 169.633 160.262 169.579 160.313C169.564 160.328 169.548 160.341 169.531 160.356C169.491 160.393 169.451 160.429 169.409 160.465C169.388 160.483 169.368 160.499 169.346 160.517C169.305 160.551 169.261 160.584 169.217 160.617C169.196 160.632 169.176 160.647 169.155 160.662C169.089 160.709 169.022 160.754 168.952 160.798C168.946 160.801 168.938 160.807 168.93 160.811C168.927 160.812 168.925 160.813 168.92 160.816C168.912 160.82 168.903 160.826 168.892 160.831C168.886 160.834 168.882 160.837 168.875 160.839C168.864 160.845 168.853 160.85 168.841 160.857C168.833 160.861 168.826 160.864 168.817 160.87C168.806 160.875 168.794 160.882 168.78 160.887C168.769 160.893 168.76 160.898 168.747 160.904C168.737 160.911 168.723 160.916 168.71 160.922C168.697 160.929 168.683 160.936 168.668 160.944C168.656 160.949 168.64 160.956 168.627 160.963C168.612 160.97 168.597 160.977 168.58 160.985C168.559 160.995 168.536 161.005 168.514 161.015C168.503 161.019 168.494 161.025 168.484 161.029C168.45 161.044 168.417 161.059 168.38 161.075C168.144 161.181 167.866 161.295 167.609 161.383L155.061 152.916L155.14 161.948L167.688 170.415C167.946 170.329 168.223 170.213 168.459 170.108C168.528 170.078 168.592 170.047 168.654 170.019C168.654 170.019 168.657 170.019 168.658 170.017C168.687 170.003 168.713 169.991 168.739 169.979C168.742 169.979 168.745 169.976 168.746 169.976C168.767 169.966 168.786 169.957 168.804 169.949C168.812 169.944 168.82 169.94 168.827 169.938C168.842 169.931 168.856 169.924 168.87 169.917C168.878 169.913 168.889 169.907 168.897 169.903C168.909 169.898 168.919 169.892 168.929 169.887C168.938 169.883 168.948 169.877 168.955 169.873C168.963 169.869 168.97 169.865 168.977 169.862C168.985 169.858 168.993 169.854 169 169.85C169.005 169.847 169.01 169.844 169.015 169.841C169.021 169.839 169.026 169.836 169.029 169.833C169.03 169.833 169.032 169.832 169.032 169.832C169.104 169.788 169.172 169.741 169.237 169.695C169.258 169.681 169.277 169.666 169.296 169.651C169.342 169.618 169.386 169.583 169.428 169.548C169.438 169.54 169.45 169.531 169.46 169.523C169.469 169.515 169.479 169.505 169.489 169.497C169.53 169.461 169.571 169.426 169.609 169.389C169.626 169.374 169.642 169.358 169.659 169.342C169.712 169.291 169.763 169.239 169.812 169.186C169.812 169.186 169.812 169.184 169.814 169.183C169.818 169.179 169.821 169.175 169.825 169.17C169.87 169.121 169.913 169.07 169.954 169.019C169.967 169.002 169.981 168.985 169.995 168.967C170.025 168.928 170.055 168.889 170.083 168.849C170.09 168.838 170.099 168.829 170.106 168.818C170.118 168.801 170.129 168.783 170.142 168.767C170.171 168.723 170.198 168.679 170.224 168.634C170.234 168.617 170.242 168.601 170.25 168.585C170.265 168.557 170.28 168.531 170.294 168.504C170.294 168.502 170.295 168.501 170.297 168.499C170.327 168.44 170.354 168.381 170.382 168.321C170.39 168.302 170.398 168.284 170.407 168.266C170.428 168.217 170.45 168.167 170.471 168.118C170.498 168.052 170.527 167.986 170.557 167.92C170.562 167.911 170.566 167.902 170.57 167.893C170.593 167.842 170.617 167.793 170.641 167.743C170.651 167.724 170.66 167.705 170.67 167.686C170.685 167.657 170.7 167.628 170.717 167.601C170.729 167.579 170.74 167.558 170.754 167.537C170.77 167.509 170.789 167.481 170.809 167.454C170.822 167.432 170.837 167.41 170.853 167.388C170.862 167.374 170.873 167.362 170.883 167.347C170.903 167.319 170.927 167.29 170.949 167.263C170.961 167.249 170.972 167.236 170.984 167.222C171.014 167.188 171.047 167.153 171.082 167.12C171.086 167.116 171.09 167.111 171.094 167.107C171.132 167.07 171.175 167.032 171.219 166.997C171.237 166.983 171.255 166.969 171.272 166.956C171.304 166.931 171.337 166.908 171.371 166.884C171.392 166.871 171.414 166.855 171.437 166.842C171.476 166.818 171.514 166.794 171.555 166.77C171.573 166.761 171.589 166.751 171.609 166.742C171.67 166.709 171.735 166.676 171.805 166.645C171.891 166.608 171.983 166.577 172.075 166.545C172.096 166.538 172.118 166.532 172.138 166.525C172.23 166.496 172.325 166.468 172.422 166.445L172.418 166.447Z" fill="#4A28C8"/>
<path d="M224.187 157.018L224.265 166.05L185.431 182.392L185.352 173.36L224.187 157.018Z" fill="#7355E0"/>
<path d="M155.055 152.917L171.12 146.156C171.667 146.478 172.314 147.029 172.377 147.11C173.127 148.099 172.159 149.448 173.418 150.297C174.97 151.343 178.785 151.115 181.941 149.787C182.029 149.75 182.117 149.713 182.202 149.674C185.169 148.352 186.359 146.504 184.851 145.488C183.887 144.837 182.225 144.878 180.872 144.629C180.173 144.5 179.454 144.307 178.888 144.05C178.766 143.993 178.159 143.643 177.804 143.344L193.89 136.576L224.185 157.019L185.35 173.36L172.817 164.902C172.867 164.879 172.919 164.854 172.972 164.831C173.591 164.554 174.485 164.256 174.627 164.224C176.496 163.814 179.025 164.312 180.639 163.633C182.618 162.752 182.214 160.753 179.779 159.11C177.317 157.448 173.709 156.779 171.721 157.616C170.487 158.166 170.535 159.03 170.058 159.74C169.807 160.115 169.437 160.499 168.946 160.802C168.887 160.838 168.661 160.952 168.375 161.079C168.139 161.185 167.862 161.299 167.604 161.387L155.056 152.92L155.055 152.917Z" fill="#6A48E8"/>
<path d="M85.7131 176.636C84.6373 175.908 82.7792 175.955 81.2684 175.677C80.4848 175.532 79.6793 175.318 79.0494 175.03C78.9122 174.967 78.2343 174.576 77.8391 174.241L95.8116 166.679L81.8077 157.229C81.8639 157.202 81.9257 157.173 81.9888 157.145C82.6804 156.837 83.6726 156.505 83.8304 156.47C85.9176 156.012 88.7431 156.568 90.6203 155.777C92.7583 154.824 92.3082 152.591 89.5856 150.755C86.8342 148.897 82.8025 148.15 80.515 149.114C79.2045 149.698 79.2566 150.666 78.7228 151.457C78.4415 151.876 78.0298 152.306 77.4809 152.644C77.4151 152.684 77.1626 152.812 76.8442 152.955C76.5793 153.073 76.2706 153.2 75.9824 153.298L61.962 143.836L18.5684 162.095L52.4193 184.937L70.3726 177.382C70.9819 177.743 71.7037 178.357 71.7751 178.448C72.6149 179.553 71.5322 181.061 72.9387 182.011C74.6719 183.18 78.9355 182.923 82.4636 181.44C82.5624 181.399 82.6598 181.356 82.7559 181.314C86.0699 179.836 87.3969 177.773 85.7131 176.637V176.636Z" fill="#9EABD3"/>
<path d="M89.5573 144.115C89.5573 144.137 89.5573 144.159 89.5545 144.181C89.5545 144.204 89.5545 144.227 89.5518 144.251C89.5518 144.27 89.5477 144.289 89.5449 144.308C89.5422 144.33 89.5394 144.354 89.5367 144.376C89.5326 144.398 89.5285 144.42 89.5243 144.44C89.5216 144.457 89.5175 144.473 89.5147 144.489C89.5093 144.513 89.5024 144.535 89.4955 144.555C89.4914 144.572 89.4873 144.587 89.4818 144.602C89.4791 144.612 89.4749 144.62 89.4722 144.629C89.4502 144.691 89.4255 144.752 89.3967 144.809C89.3967 144.811 89.3967 144.812 89.3954 144.813C89.3665 144.87 89.3322 144.925 89.2952 144.978C89.2897 144.986 89.2842 144.996 89.2773 145.004C89.2403 145.056 89.1991 145.107 89.1552 145.156C89.1429 145.17 89.1305 145.184 89.1168 145.198C89.1031 145.213 89.088 145.226 89.0743 145.241C89.0578 145.258 89.0399 145.273 89.0235 145.29C89.0084 145.303 88.9919 145.318 88.9754 145.332C88.9603 145.344 88.9453 145.357 88.9302 145.369C88.9027 145.391 88.8725 145.413 88.8437 145.435C88.8286 145.446 88.8121 145.458 88.7957 145.468C88.7627 145.49 88.7298 145.512 88.6955 145.532C88.6804 145.542 88.6667 145.552 88.6502 145.561C88.62 145.579 88.5898 145.596 88.5583 145.612C88.5418 145.622 88.524 145.631 88.5075 145.641C88.4567 145.666 88.406 145.69 88.3524 145.715C88.1507 145.8 87.938 145.867 87.7143 145.921C87.5359 145.963 87.3534 145.998 87.1641 146.025C86.9843 146.051 86.8018 146.07 86.6138 146.087C86.3544 146.107 86.0868 146.12 85.8179 146.128C85.2292 146.144 84.624 146.139 84.0367 146.155C83.7718 146.164 83.5111 146.175 83.2559 146.195L83.3355 155.227C83.5907 155.207 83.8514 155.195 84.1163 155.188C84.7036 155.171 85.3088 155.177 85.8975 155.16C86.1664 155.152 86.4326 155.14 86.6934 155.119C86.88 155.104 87.0639 155.083 87.2437 155.057C87.4317 155.03 87.6155 154.996 87.7926 154.953C88.0162 154.899 88.2289 154.832 88.4307 154.747C88.4842 154.724 88.535 154.699 88.5857 154.673C88.5994 154.666 88.6132 154.658 88.6283 154.65C88.6626 154.632 88.6969 154.613 88.7298 154.593C88.7326 154.592 88.7367 154.589 88.7394 154.588C88.749 154.581 88.7586 154.576 88.7682 154.569C88.8039 154.547 88.8396 154.525 88.8725 154.502C88.889 154.491 88.9041 154.48 88.9192 154.469C88.9494 154.447 88.9782 154.425 89.0056 154.403C89.0139 154.396 89.0235 154.389 89.0317 154.382C89.0386 154.377 89.0441 154.371 89.0509 154.364C89.0674 154.351 89.0825 154.335 89.099 154.322C89.1168 154.307 89.1333 154.29 89.1497 154.274C89.1648 154.26 89.1785 154.245 89.1936 154.23C89.2019 154.22 89.2115 154.212 89.2197 154.202C89.2238 154.198 89.2266 154.193 89.2307 154.189C89.276 154.139 89.3171 154.088 89.3542 154.036C89.3569 154.034 89.3597 154.029 89.3624 154.027C89.3665 154.021 89.3693 154.016 89.372 154.01C89.4091 153.955 89.4434 153.9 89.4708 153.844V153.841C89.501 153.782 89.5257 153.721 89.5477 153.659C89.5491 153.653 89.5518 153.649 89.5532 153.645C89.5532 153.641 89.5559 153.638 89.5559 153.634C89.5614 153.616 89.5669 153.599 89.5724 153.581C89.5779 153.562 89.5834 153.541 89.5888 153.522C89.593 153.504 89.5971 153.485 89.5998 153.467C89.6026 153.452 89.6067 153.437 89.6094 153.422C89.6094 153.416 89.6108 153.411 89.6122 153.405C89.6163 153.382 89.619 153.357 89.6218 153.332C89.6232 153.316 89.6259 153.298 89.6273 153.28C89.63 153.254 89.63 153.227 89.6314 153.199C89.6314 153.186 89.6328 153.173 89.6328 153.159V153.142L89.5532 144.109L89.5573 144.115Z" fill="#7C294B"/>
<path d="M82.2743 146.335C82.2743 146.335 82.2688 146.335 82.2647 146.338C82.0973 146.379 81.2314 146.67 80.6248 146.94C80.5686 146.965 80.5137 146.99 80.4629 147.016L80.5425 156.048C80.5933 156.023 80.6481 155.999 80.7044 155.973C81.3109 155.702 82.1755 155.411 82.3429 155.37C82.347 155.37 82.3498 155.369 82.3525 155.368C82.4938 155.336 82.6407 155.31 82.7889 155.288C82.9659 155.262 83.1484 155.243 83.3337 155.228L83.2541 146.195C83.0688 146.21 82.8863 146.23 82.7079 146.256C82.5583 146.278 82.4129 146.304 82.2715 146.335H82.2743Z" fill="#7C294B"/>
<path d="M93.0767 164.505L92.9971 155.473L76.9115 162.241L76.9773 169.757C75.1097 169.98 73.4314 169.805 72.5257 169.194C71.9233 168.786 71.8313 168.266 71.8162 167.726C71.8149 167.576 71.8135 167.428 71.8121 167.278C71.808 166.834 71.7765 166.393 71.4842 166.006C71.421 165.925 70.7747 165.375 70.2299 165.052L54.1621 171.814L54.2417 180.846L70.3095 174.085C70.8543 174.407 71.502 174.956 71.5638 175.038C71.8272 175.384 71.878 175.774 71.889 176.172C71.8904 176.32 71.8917 176.47 71.8931 176.619C71.8986 177.209 71.9521 177.786 72.6053 178.227C74.1573 179.273 77.9722 179.045 81.1298 177.717C81.219 177.679 81.3068 177.642 81.3919 177.603C83.4915 176.667 84.7004 175.468 84.6922 174.485C84.673 172.342 84.6551 170.2 84.6359 168.056L93.0767 164.505Z" fill="#A1426F"/>
<path d="M88.3506 145.717L88.4302 154.749C86.7492 155.457 84.2215 154.959 82.3525 155.369C82.2112 155.401 81.3233 155.697 80.7044 155.973C80.6481 155.998 80.5946 156.024 80.5425 156.049L80.4629 147.016C80.5137 146.992 80.5686 146.967 80.6248 146.941C81.2437 146.665 82.1316 146.367 82.2729 146.337C84.1406 145.927 86.6696 146.425 88.3506 145.717Z" fill="#7C294B"/>
<path d="M54.1626 171.814L23.8672 151.371L23.9468 160.403L54.2422 180.846L54.1626 171.814Z" fill="#7C294B"/>
<path d="M83.9585 164.383C82.9952 163.733 81.3334 163.774 79.9817 163.524C79.2805 163.395 78.56 163.203 77.996 162.945C77.8739 162.889 77.266 162.539 76.9119 162.238L92.9976 155.47L80.4647 147.013C80.5155 146.989 80.5704 146.964 80.6267 146.938C81.2456 146.662 82.1334 146.364 82.2747 146.334C84.1424 145.924 86.6715 146.422 88.3525 145.714C90.2654 144.86 89.8633 142.862 87.4262 141.22C84.9644 139.558 81.3553 138.888 79.3079 139.751C78.1346 140.274 78.1813 141.14 77.7037 141.849C77.4526 142.224 77.0835 142.608 76.5922 142.912C76.5332 142.947 76.3068 143.061 76.0214 143.189C75.7853 143.294 75.5081 143.408 75.2501 143.496L62.7022 135.029L23.8672 151.37L54.1626 171.813L70.2304 165.052C70.7752 165.374 71.4215 165.924 71.4847 166.005C72.2353 166.993 71.2678 168.344 72.5262 169.193C74.0769 170.239 77.8931 170.011 81.0507 168.683C81.1399 168.646 81.2277 168.607 81.3128 168.569C84.2782 167.246 85.4666 165.4 83.9585 164.383Z" fill="#CC4E7E"/>
<path d="M0.904297 67.1172L40.7205 50.3633L71.7816 71.3232L55.2898 78.2627C55.6534 78.5715 56.2737 78.9297 56.4013 78.9873C56.979 79.2508 57.7173 79.4484 58.435 79.5801C59.8223 79.8367 61.5253 79.7942 62.5133 80.4611C64.0585 81.504 62.8413 83.3977 59.8004 84.7522C59.7126 84.792 59.622 84.8304 59.5314 84.8688C56.2943 86.2301 52.3819 86.4661 50.7915 85.393C49.5002 84.5216 50.4937 83.1384 49.7225 82.1256C49.6594 82.0419 48.9966 81.4779 48.4353 81.1472L31.9641 88.0785L19.1128 79.4072C19.165 79.3825 19.2199 79.3564 19.2775 79.3317C19.9129 79.049 20.824 78.7444 20.9695 78.7115C22.8866 78.2902 25.4788 78.802 27.1337 78.1049C29.1619 77.2006 28.7489 75.1518 26.2527 73.4667C23.7278 71.7623 20.0295 71.0762 17.9903 71.9339C16.7251 72.4965 16.7759 73.3843 16.2846 74.1116C16.028 74.4945 15.6492 74.8897 15.1456 75.1998C15.0852 75.2369 14.8561 75.3522 14.5652 75.4825C14.3209 75.5909 14.0355 75.7089 13.7679 75.7995L0.904297 67.1172Z" fill="#91E2DE"/>
<path d="M20.6014 70.4164C20.6288 70.4095 20.6563 70.404 20.6837 70.3985C20.7262 70.3889 20.7674 70.3793 20.8113 70.3711C20.8415 70.3656 20.8731 70.3601 20.9033 70.3546C20.9335 70.3491 20.9623 70.3436 20.9925 70.3395L21.0556 77.5439L32.9847 85.5936L32.9092 76.9977L23.0261 70.3299C23.1716 70.3477 23.3171 70.367 23.4639 70.3917C23.4955 70.3972 23.5284 70.4026 23.56 70.4081C23.6162 70.4177 23.6725 70.4273 23.7287 70.4383C23.7658 70.4452 23.8042 70.4534 23.8413 70.4603C23.8962 70.4713 23.9511 70.4822 24.0059 70.4946C24.0403 70.5028 24.0746 70.5097 24.1089 70.5179C24.1953 70.5371 24.2818 70.5577 24.3682 70.5797C24.3915 70.5852 24.4135 70.5906 24.4368 70.5975C24.5439 70.6249 24.6495 70.6551 24.7566 70.6853C24.7758 70.6908 24.795 70.6963 24.8128 70.7018C24.9597 70.7457 25.1065 70.7924 25.2533 70.8418C25.2588 70.8431 25.2643 70.8459 25.2698 70.8473C25.4166 70.898 25.5635 70.9515 25.7075 71.0078C25.7185 71.0119 25.7281 71.016 25.7391 71.0202C25.9038 71.0847 26.0671 71.1533 26.2276 71.226C26.2345 71.2301 26.2427 71.2329 26.2496 71.2356C26.4129 71.3097 26.5734 71.3865 26.7313 71.4689C26.7367 71.4716 26.7422 71.4744 26.7463 71.4771C26.9055 71.5595 27.0633 71.6473 27.2157 71.7365C27.2184 71.7378 27.2212 71.7392 27.2239 71.742C27.3803 71.8339 27.5327 71.93 27.6795 72.0301C28.9955 72.9194 29.6885 73.9156 29.6967 74.7664C29.672 71.9012 29.6459 69.0359 29.6212 66.1706C29.6144 65.3212 28.9214 64.3235 27.6054 63.4343C27.4572 63.3341 27.3049 63.2381 27.1498 63.1461C27.1471 63.1448 27.1443 63.142 27.1402 63.1406C26.9865 63.0501 26.8301 62.9636 26.6709 62.8813C26.6654 62.8785 26.6599 62.8758 26.6544 62.873C26.4966 62.7921 26.3374 62.7139 26.1741 62.6411C26.1659 62.637 26.1576 62.6343 26.1494 62.6302C25.9889 62.5574 25.8269 62.4902 25.6636 62.4257C25.6609 62.4257 25.6568 62.4229 25.654 62.4216C25.6458 62.4175 25.6362 62.4147 25.6266 62.412C25.4839 62.3557 25.3412 62.3036 25.1957 62.2542C25.1888 62.2514 25.182 62.25 25.1751 62.2473C25.031 62.1979 24.8856 62.1526 24.7401 62.1087C24.7278 62.1046 24.7154 62.1005 24.7017 62.0963C24.6934 62.0936 24.6852 62.0922 24.677 62.0895C24.5713 62.0593 24.4657 62.0291 24.36 62.0017C24.3367 61.9948 24.3133 61.9893 24.2886 61.9838C24.2035 61.9619 24.1185 61.9413 24.0334 61.9221C24.0169 61.9179 23.9991 61.9138 23.9826 61.9097C23.9634 61.9056 23.9442 61.9015 23.925 61.8974C23.8728 61.8864 23.8207 61.8754 23.7685 61.8644C23.7287 61.8562 23.689 61.848 23.6492 61.8411C23.5956 61.8315 23.5435 61.8219 23.49 61.8123C23.4625 61.8068 23.4337 61.8013 23.4063 61.7972C23.3994 61.7972 23.3925 61.7958 23.3843 61.7944C23.2388 61.7711 23.092 61.7505 22.9479 61.7327C22.9356 61.7313 22.9219 61.7286 22.9095 61.7272C22.8999 61.7272 22.8903 61.7258 22.8821 61.7245C22.7558 61.7107 22.6296 61.6984 22.5047 61.6902C22.4937 61.6902 22.4841 61.6874 22.4731 61.6874C22.4594 61.6874 22.4457 61.6874 22.4306 61.686C22.3139 61.6792 22.1959 61.6737 22.082 61.6709H22.0779C22.0779 61.6709 22.0738 61.6709 22.0724 61.6709C21.964 61.6682 21.857 61.6709 21.7513 61.6709C21.7376 61.6709 21.7225 61.6709 21.7088 61.6709C21.6964 61.6709 21.6841 61.6723 21.6717 61.6723C21.5647 61.6764 21.4604 61.6819 21.3575 61.6902C21.3575 61.6902 21.352 61.6902 21.3479 61.6902C21.3396 61.6902 21.3328 61.6915 21.3245 61.6929C21.2175 61.7025 21.1118 61.7135 21.0089 61.7286C20.9979 61.7299 20.9856 61.7313 20.9732 61.7327C20.965 61.7327 20.9568 61.7354 20.9485 61.7368C20.9074 61.7437 20.8662 61.7505 20.8264 61.7574C20.7935 61.7629 20.7605 61.7684 20.7276 61.7752C20.6878 61.7835 20.6494 61.7917 20.6096 61.7999C20.5822 61.8054 20.5547 61.8109 20.5286 61.8178C20.5245 61.8178 20.5218 61.8205 20.5177 61.8205C20.4257 61.8425 20.3365 61.8685 20.2487 61.896C20.2281 61.9029 20.2075 61.9083 20.1883 61.9152C20.1005 61.944 20.014 61.9756 19.9317 62.0099C19.8658 62.0401 19.8041 62.0703 19.7451 62.1018C19.7272 62.1114 19.7108 62.121 19.6943 62.1306C19.6737 62.143 19.6518 62.154 19.6312 62.165C19.6133 62.1759 19.5982 62.1869 19.5818 62.1979C19.5612 62.2116 19.5392 62.2253 19.52 62.2391C19.4871 62.261 19.4569 62.2843 19.4267 62.3063C19.4089 62.32 19.391 62.3324 19.3746 62.3461C19.3691 62.3502 19.3622 62.3557 19.3567 62.3598C19.321 62.3886 19.2881 62.4188 19.2565 62.449C19.2524 62.4531 19.2483 62.4572 19.2442 62.4614C19.2195 62.4861 19.1948 62.5108 19.1728 62.5355C19.1646 62.5437 19.1591 62.5519 19.1523 62.5588C19.1413 62.5711 19.1303 62.5835 19.1193 62.5972C19.096 62.6247 19.0754 62.6507 19.0548 62.6782C19.0452 62.6905 19.0356 62.7029 19.026 62.7152C19.0205 62.7221 19.0164 62.729 19.0109 62.7344C19.0013 62.7482 18.9931 62.7633 18.9835 62.777C18.9656 62.8031 18.9478 62.8305 18.9313 62.8579C18.919 62.8772 18.908 62.8977 18.897 62.917C18.8819 62.9444 18.8668 62.9718 18.8517 62.9993C18.8476 63.0075 18.8421 63.0158 18.838 63.024C18.8339 63.0336 18.8284 63.0432 18.8243 63.0514C18.801 63.0995 18.7776 63.1475 18.7557 63.1955C18.7516 63.2038 18.7474 63.212 18.7447 63.2189C18.7159 63.2847 18.6871 63.3506 18.6582 63.4165C18.6404 63.459 18.6212 63.5015 18.6034 63.5441C18.5951 63.5633 18.5855 63.5825 18.5773 63.6031C18.5512 63.6593 18.5251 63.7156 18.4977 63.7719C18.4826 63.7993 18.4675 63.8268 18.4524 63.8556C18.4442 63.8707 18.4359 63.8858 18.4277 63.9009C18.403 63.9434 18.3769 63.9859 18.3481 64.0271C18.3303 64.0532 18.3097 64.0806 18.2918 64.1081C18.2644 64.1451 18.237 64.1836 18.2068 64.2206C18.1944 64.2371 18.1821 64.2535 18.1683 64.27C18.1285 64.3194 18.086 64.3688 18.0421 64.4168C18.0394 64.4196 18.0366 64.4237 18.0339 64.4264C17.9872 64.4772 17.9378 64.5266 17.887 64.576C17.8719 64.5897 17.8568 64.6048 17.8417 64.6186C17.8047 64.6529 17.7663 64.6885 17.7251 64.7215C17.7059 64.7379 17.6867 64.7544 17.6661 64.7695C17.6263 64.8024 17.5838 64.834 17.5412 64.8669C17.522 64.8807 17.5028 64.8958 17.4836 64.9095C17.4205 64.9534 17.3573 64.9973 17.2901 65.0385C17.2874 65.0398 17.2819 65.0426 17.2777 65.0453C17.2709 65.0495 17.2654 65.0522 17.2572 65.0563C17.253 65.0577 17.2489 65.0604 17.2448 65.0632C17.2352 65.0673 17.227 65.0728 17.216 65.0783C17.2105 65.081 17.2023 65.0851 17.1954 65.0892C17.1844 65.0947 17.1735 65.1002 17.1611 65.1071C17.1542 65.1112 17.1446 65.1153 17.1378 65.1194C17.1241 65.1263 17.1117 65.1318 17.0966 65.14C17.0856 65.1455 17.0747 65.151 17.0637 65.1565C17.05 65.1633 17.0362 65.1702 17.0211 65.1771C17.0047 65.1853 16.9868 65.1935 16.9704 65.2018C16.9594 65.2073 16.9498 65.2114 16.9388 65.2169C16.9196 65.2265 16.899 65.2347 16.8798 65.2443C16.8688 65.2498 16.8578 65.2539 16.8469 65.2594C16.8153 65.2731 16.7824 65.2882 16.7494 65.3033C16.523 65.4035 16.2568 65.5133 16.0098 65.597L4.06836 57.5391L4.14383 66.1349L16.0853 74.1928C16.3336 74.1091 16.5985 74.0007 16.8249 73.8992C16.8578 73.8841 16.8908 73.869 16.9223 73.8552C16.9278 73.8525 16.9333 73.8498 16.9388 73.847C16.9649 73.8347 16.9896 73.8237 17.0129 73.8127C17.0225 73.8086 17.0307 73.8045 17.0403 73.799C17.0596 73.7908 17.0774 73.7812 17.0952 73.7729C17.1076 73.7674 17.1186 73.7619 17.1295 73.7565C17.1433 73.7496 17.1584 73.7427 17.1707 73.7359C17.1803 73.7317 17.1885 73.7276 17.1968 73.7235C17.2105 73.7167 17.2242 73.7098 17.2366 73.7043C17.2434 73.7002 17.2503 73.6974 17.2558 73.6947C17.2681 73.6892 17.2791 73.6823 17.2901 73.6769C17.2956 73.6741 17.2997 73.6714 17.3052 73.6686C17.3148 73.6631 17.3244 73.659 17.3326 73.6549C17.3368 73.6522 17.3395 73.6508 17.3436 73.6494C17.3491 73.6467 17.356 73.6425 17.3601 73.6398C17.3601 73.6398 17.3628 73.6384 17.3628 73.6371C17.4301 73.5959 17.4946 73.552 17.5563 73.5081C17.5769 73.493 17.5961 73.4793 17.6153 73.4642C17.6579 73.4326 17.699 73.401 17.7375 73.3695C17.7484 73.3612 17.7594 73.353 17.769 73.3448C17.78 73.3365 17.7882 73.3269 17.7978 73.3187C17.8363 73.2858 17.8747 73.2515 17.9104 73.2185C17.9268 73.2034 17.9433 73.1883 17.9584 73.1732C18.0092 73.1238 18.0572 73.0744 18.1038 73.025C18.1038 73.025 18.1038 73.025 18.1052 73.0237C18.108 73.0209 18.1107 73.0168 18.1135 73.0141C18.1574 72.966 18.1985 72.918 18.2383 72.87C18.2521 72.8535 18.2644 72.837 18.2768 72.8219C18.3069 72.7835 18.3344 72.7465 18.3618 72.708C18.3687 72.6984 18.3769 72.6902 18.3824 72.6806C18.3948 72.6628 18.4071 72.6463 18.4181 72.6284C18.4455 72.5873 18.4716 72.5447 18.4977 72.5022C18.5087 72.483 18.5196 72.4624 18.5306 72.4418C18.543 72.4199 18.5553 72.3979 18.5663 72.376V72.3732C18.5951 72.3169 18.6226 72.2593 18.6486 72.2017C18.6555 72.1852 18.6624 72.1701 18.6706 72.1537C18.6925 72.1029 18.7145 72.0521 18.7365 71.9999C18.7612 71.9409 18.7872 71.8819 18.8133 71.8229C18.8188 71.812 18.8243 71.801 18.8284 71.79C18.849 71.7433 18.8709 71.6981 18.8943 71.6528C18.9039 71.6336 18.9135 71.6157 18.9231 71.5965C18.9368 71.5691 18.9519 71.543 18.967 71.5155C18.978 71.495 18.9903 71.4744 19.0027 71.4552C19.0191 71.4277 19.037 71.4016 19.0548 71.3742C19.0685 71.3536 19.0823 71.333 19.096 71.3125C19.1056 71.3001 19.1152 71.2864 19.1248 71.274C19.1454 71.248 19.166 71.2205 19.1879 71.1944C19.1989 71.1807 19.2099 71.1684 19.2222 71.1546C19.2511 71.1217 19.2812 71.0901 19.3142 71.0586C19.3183 71.0545 19.3224 71.0503 19.3279 71.0449C19.365 71.0092 19.4048 70.9749 19.4459 70.9406C19.4624 70.9268 19.4802 70.9145 19.4981 70.9008C19.5283 70.8774 19.5584 70.8555 19.5914 70.8335C19.612 70.8198 19.6325 70.8061 19.6531 70.7924C19.6888 70.769 19.7259 70.7471 19.7657 70.7251C19.7821 70.7155 19.8 70.7059 19.8164 70.6963C19.8754 70.6647 19.9358 70.6346 20.0031 70.6044C20.0854 70.5701 20.1718 70.5385 20.2597 70.5097C20.2803 70.5028 20.3008 70.496 20.32 70.4891C20.4079 70.4616 20.4971 70.4356 20.5904 70.4136L20.6014 70.4164Z" fill="#29C6BF"/>
<path d="M69.9465 70.0412L69.871 61.4453L54.5621 67.8867L54.6238 75.0403C54.6238 75.0403 54.6142 75.0403 54.6087 75.0417C54.5758 75.0458 54.5429 75.0499 54.5099 75.0527C54.3878 75.0664 54.2657 75.0787 54.1463 75.0883C54.1339 75.0883 54.1216 75.0897 54.1106 75.0911C54.0228 75.0979 53.9349 75.1048 53.8471 75.1089C53.8142 75.1103 53.7826 75.1117 53.7483 75.113C53.6824 75.1158 53.6166 75.1199 53.5521 75.1213C53.5274 75.1213 53.5041 75.1213 53.4807 75.1226C53.327 75.1268 53.1747 75.1281 53.0265 75.1254C53.0059 75.1254 52.9867 75.1254 52.9675 75.124C52.844 75.1213 52.7219 75.1158 52.6025 75.1089C52.5929 75.1089 52.5833 75.1089 52.575 75.1075C52.4625 75.1007 52.3541 75.0897 52.2471 75.0787C52.2196 75.076 52.1935 75.0732 52.1675 75.0691C52.0755 75.0581 51.9863 75.0458 51.8985 75.0321C51.8875 75.0307 51.8765 75.0293 51.8669 75.0266C51.7723 75.0101 51.6789 74.9923 51.5897 74.9731C51.5664 74.9676 51.5431 74.9621 51.5211 74.958C51.4361 74.9388 51.3537 74.9168 51.2741 74.8948C51.2631 74.8921 51.2508 74.888 51.2398 74.8852C51.2234 74.8798 51.2069 74.8743 51.1904 74.8701C51.1465 74.8564 51.1026 74.8427 51.0601 74.8276C51.0381 74.8194 51.0175 74.8111 50.9956 74.8043C50.9599 74.7906 50.9242 74.7768 50.8885 74.7631C50.8679 74.7549 50.8487 74.7466 50.8295 74.7384C50.7952 74.7233 50.7609 74.7082 50.728 74.6931C50.7088 74.6835 50.6909 74.6753 50.6717 74.6657C50.6374 74.6492 50.6045 74.6314 50.5729 74.6135C50.5578 74.6053 50.5413 74.5971 50.5276 74.5888C50.481 74.5614 50.4357 74.5339 50.3945 74.5051C49.8195 74.1168 49.7331 73.62 49.718 73.104C49.718 72.9641 49.7152 72.8255 49.7152 72.6855C49.7111 72.2615 49.6823 71.8402 49.401 71.4724C49.342 71.3942 48.7272 70.8714 48.2058 70.564L32.916 76.9985L32.9915 85.5944L48.2812 79.1598C48.8027 79.4672 49.4175 79.9901 49.4765 80.0683C49.7276 80.399 49.777 80.7722 49.788 81.1524C49.788 81.291 49.7893 81.4296 49.7907 81.5695C49.7962 82.1322 49.8456 82.6811 50.4686 83.1023C50.5111 83.1312 50.5564 83.1586 50.6017 83.186C50.6168 83.1943 50.6333 83.2025 50.6484 83.2121C50.6799 83.23 50.7129 83.2478 50.7458 83.2643C50.765 83.2739 50.7842 83.2821 50.8021 83.2917C50.835 83.3068 50.8679 83.3219 50.9036 83.337C50.9228 83.3452 50.942 83.3535 50.9626 83.3617C50.9736 83.3658 50.9846 83.3713 50.9956 83.3754C51.0203 83.385 51.0463 83.3946 51.071 83.4029C51.093 83.4111 51.1136 83.4193 51.1355 83.4262C51.1767 83.4413 51.2192 83.4536 51.2618 83.4674C51.2796 83.4729 51.2975 83.4783 51.3153 83.4838C51.318 83.4838 51.3208 83.4852 51.3235 83.4866C51.3304 83.4893 51.3386 83.4907 51.3469 83.4921C51.4278 83.5154 51.5129 83.5373 51.598 83.5566C51.6103 83.5593 51.6213 83.5634 51.6337 83.5662C51.6433 83.5689 51.6542 83.5703 51.6639 83.5717C51.7558 83.5909 51.8477 83.6101 51.9438 83.6265C51.9452 83.6265 51.9465 83.6265 51.9465 83.6265C51.9548 83.6279 51.963 83.6293 51.9699 83.6293C52.0591 83.6444 52.1524 83.6567 52.2457 83.6677C52.2594 83.6691 52.2718 83.6718 52.2855 83.6732C52.2978 83.6746 52.3102 83.6746 52.3225 83.6759C52.4296 83.6883 52.5394 83.6979 52.6519 83.7061H52.6587C52.6656 83.7061 52.6738 83.7061 52.6807 83.7075C52.8001 83.7157 52.9222 83.7199 53.0471 83.7226C53.0594 83.7226 53.0718 83.7226 53.0841 83.724C53.091 83.724 53.0965 83.724 53.1034 83.724C53.2516 83.7267 53.4025 83.7253 53.5576 83.7212C53.5699 83.7212 53.5823 83.7212 53.5946 83.7212C53.607 83.7212 53.6193 83.7212 53.633 83.7199C53.6975 83.7185 53.762 83.7144 53.8279 83.7116C53.8608 83.7103 53.8924 83.7089 53.9253 83.7075C54.0187 83.702 54.112 83.6952 54.2067 83.6883C54.2121 83.6883 54.2163 83.6883 54.2217 83.6883C54.3425 83.6787 54.466 83.6663 54.5895 83.6526C54.6224 83.6485 54.654 83.6458 54.6856 83.6416C54.794 83.6293 54.9024 83.6142 55.0122 83.5991C55.0259 83.5977 55.0382 83.5964 55.052 83.5936C55.0561 83.5936 55.0616 83.5922 55.0657 83.5909C55.1672 83.5758 55.2688 83.5607 55.3717 83.5428C55.3895 83.5401 55.406 83.536 55.4238 83.5332C55.5103 83.5181 55.5954 83.503 55.6805 83.4866C55.7189 83.4797 55.7573 83.4715 55.7957 83.4632C55.8616 83.4509 55.9261 83.4372 55.992 83.4235C56.0345 83.4138 56.0784 83.4042 56.121 83.3946C56.1827 83.3809 56.2431 83.3672 56.3048 83.3521C56.3213 83.348 56.3378 83.3452 56.3529 83.3411C56.3666 83.3384 56.3803 83.3329 56.3954 83.3301C56.5614 83.2903 56.7275 83.2464 56.8922 83.2011C56.9141 83.1957 56.9361 83.1888 56.958 83.1819C57.1268 83.1339 57.2942 83.0831 57.4617 83.0296C57.4795 83.0241 57.496 83.0186 57.5124 83.0131C57.684 82.9569 57.8555 82.8979 58.0243 82.8347C58.0339 82.8306 58.0449 82.8265 58.0545 82.8224C58.2315 82.7565 58.4058 82.6879 58.5787 82.6152C58.6638 82.5795 58.7461 82.5438 58.8284 82.5068C58.9451 82.4546 59.0576 82.4025 59.1674 82.349C59.2044 82.3311 59.2415 82.3119 59.2785 82.2941C59.3499 82.2584 59.4212 82.2227 59.4899 82.187C59.531 82.1651 59.5708 82.1445 59.6106 82.1225C59.6737 82.0882 59.7369 82.0539 59.7972 82.0183C59.8357 81.9963 59.8741 81.9743 59.9111 81.9524C59.9345 81.9387 59.9578 81.9263 59.9811 81.9126C60.0195 81.8893 60.0552 81.8659 60.0937 81.8426C60.1266 81.822 60.1595 81.8014 60.1925 81.7809C60.2597 81.7369 60.3256 81.693 60.3901 81.6491C60.4106 81.6354 60.4326 81.6203 60.4532 81.6066C60.5369 81.5489 60.6165 81.4899 60.6933 81.4309C60.7139 81.4158 60.7318 81.4007 60.751 81.3856C60.7962 81.35 60.8415 81.3143 60.8841 81.2786C60.8923 81.2717 60.9005 81.2649 60.9088 81.258C60.965 81.2114 61.0172 81.1633 61.0693 81.1167C61.0927 81.0961 61.1174 81.0741 61.1393 81.0536C61.2107 80.9849 61.2793 80.9163 61.3424 80.8477C61.3973 80.7873 61.4481 80.727 61.4975 80.6666C61.5126 80.6474 61.5263 80.6282 61.5414 80.6089C61.5675 80.576 61.5935 80.5431 61.6169 80.5101C61.6237 80.5005 61.6278 80.4923 61.6347 80.4841C61.647 80.4676 61.6567 80.4511 61.6676 80.4333C61.6951 80.3908 61.7212 80.3496 61.7445 80.307C61.7541 80.2892 61.7651 80.2714 61.7733 80.2549C61.7788 80.2453 61.7856 80.2343 61.7898 80.2247C61.8131 80.1808 61.8323 80.1369 61.8515 80.093C61.8543 80.0847 61.857 80.0779 61.8611 80.071C61.8735 80.0408 61.8858 80.0093 61.8968 79.9791C61.9037 79.9599 61.9092 79.9407 61.9146 79.9214C61.9174 79.9118 61.9215 79.9009 61.9242 79.8912C61.9366 79.8473 61.9476 79.8034 61.9544 79.7595C61.9558 79.7513 61.9558 79.7417 61.9572 79.7321C61.9586 79.7225 61.9599 79.7142 61.9613 79.7046C61.9682 79.6552 61.9723 79.6058 61.9723 79.5578V79.5427C61.9544 77.5035 61.9366 75.463 61.9188 73.4238L69.9534 70.0439L69.9465 70.0412Z" fill="#44DCD4"/>
<path d="M4.07754 57.5415L41.038 41.9883L69.8706 61.4442L54.5617 67.8856C54.8992 68.171 55.4756 68.5045 55.5936 68.558C56.1302 68.8036 56.8163 68.9848 57.4818 69.1083C58.769 69.3457 60.3512 69.3073 61.2679 69.9261C62.7019 70.895 61.5725 72.6515 58.7498 73.9098C58.6675 73.9455 58.5851 73.9826 58.5001 74.0182C55.4948 75.2821 51.8624 75.5003 50.3872 74.504C49.1893 73.6944 50.1101 72.4113 49.3937 71.4699C49.3347 71.3917 48.72 70.8689 48.1985 70.5615L32.9088 76.996L20.9783 68.9464C21.0277 68.923 21.0785 68.8997 21.132 68.8764C21.7221 68.6129 22.5674 68.3316 22.7019 68.3014C24.4817 67.9103 26.8873 68.3851 28.4242 67.7388C30.3069 66.9003 29.9227 64.9984 27.6063 63.434C25.2625 61.8518 21.8291 61.215 19.9368 62.0109C18.7635 62.5338 18.8088 63.3571 18.3532 64.0323C18.1144 64.3877 17.7631 64.7541 17.2965 65.0423C17.2403 65.0766 17.0276 65.1836 16.7572 65.3044C16.5308 65.4045 16.2646 65.5143 16.0176 65.598L4.07617 57.5401L4.07754 57.5415Z" fill="#40D5CE"/>
<path d="M251.097 54.802L233.311 47.3177C232.707 47.6745 231.991 48.2838 231.922 48.373C231.09 49.4667 232.162 50.9611 230.768 51.9025C229.05 53.0606 224.826 52.8068 221.331 51.3371C221.232 51.2959 221.136 51.2534 221.041 51.2122C217.759 49.748 216.443 47.7033 218.112 46.5781C219.178 45.8576 221.018 45.9043 222.515 45.6285C223.292 45.4858 224.089 45.2731 224.712 44.9876C224.849 44.9259 225.52 44.5375 225.912 44.2054L208.105 36.7129L194.215 46.0868C193.928 45.9894 193.618 45.8618 193.356 45.7451C193.042 45.6051 192.795 45.4803 192.73 45.4405C192.185 45.1043 191.777 44.6789 191.498 44.2658C190.97 43.4795 191.022 42.5217 189.724 41.944C187.457 40.9889 183.463 41.7299 180.737 43.5687C178.042 45.3883 177.594 47.6004 179.713 48.5445C181.574 49.3281 184.37 48.7764 186.44 49.2307C186.596 49.265 187.579 49.5929 188.265 49.899C188.327 49.9264 188.387 49.9552 188.443 49.9813L174.568 59.3429L217.56 77.4334L251.097 54.8034V54.802Z" fill="#FAE8A8"/>
<path d="M217.124 37.6335C217.126 37.2177 217.343 36.8403 217.795 36.5357C217.866 36.4876 217.943 36.4437 218.021 36.4026C218.046 36.3902 218.072 36.3779 218.098 36.3655C218.154 36.3381 218.212 36.312 218.272 36.2873C218.287 36.2818 218.301 36.2736 218.316 36.2681C218.328 36.2626 218.344 36.2598 218.357 36.2544C218.452 36.2187 218.549 36.1844 218.651 36.1556C218.652 36.1556 218.654 36.1556 218.656 36.1542C218.759 36.124 218.865 36.0979 218.972 36.0732C218.984 36.0705 218.997 36.0664 219.009 36.0636C219.024 36.0595 219.042 36.0581 219.057 36.054C219.183 36.0266 219.311 36.0019 219.441 35.9799C219.445 35.9799 219.45 35.9785 219.454 35.9772C219.467 35.9744 219.481 35.973 219.496 35.9717C219.625 35.9511 219.757 35.9319 219.89 35.914C219.908 35.9113 219.926 35.9085 219.944 35.9072C220.086 35.8893 220.232 35.8715 220.376 35.855C220.384 35.855 220.392 35.8523 220.401 35.8523C220.433 35.8482 220.465 35.8454 220.498 35.8413C220.595 35.8303 220.693 35.8194 220.79 35.8084C220.926 35.7933 221.062 35.7768 221.196 35.759C221.224 35.7562 221.251 35.7521 221.277 35.748C221.412 35.7302 221.544 35.7109 221.674 35.6904C221.744 35.6794 221.813 35.6684 221.881 35.6547C222.021 35.6286 222.163 35.5998 222.302 35.5696C222.329 35.5641 222.355 35.5586 222.381 35.5531C222.481 35.5298 222.582 35.5065 222.681 35.4818C222.684 35.4818 222.688 35.4804 222.691 35.479C222.792 35.453 222.893 35.4255 222.991 35.3967C223.023 35.3885 223.053 35.3789 223.083 35.3693C223.152 35.3487 223.221 35.3267 223.288 35.3048C223.321 35.2938 223.355 35.2828 223.388 35.2704C223.455 35.2471 223.521 35.2238 223.587 35.1991C223.614 35.1881 223.642 35.1785 223.669 35.1675C223.756 35.1332 223.839 35.0975 223.92 35.0619C224.048 35.0042 224.67 34.6447 225.035 34.3359L224.954 43.6179C224.59 43.9253 223.967 44.2862 223.839 44.3438C223.758 44.3809 223.673 44.4166 223.587 44.4509C223.58 44.4536 223.575 44.4564 223.568 44.4591C223.55 44.466 223.529 44.4728 223.511 44.4797C223.444 44.5058 223.376 44.5305 223.306 44.5538C223.274 44.5648 223.241 44.5758 223.208 44.5867C223.141 44.6087 223.074 44.6306 223.004 44.6512C222.983 44.6581 222.963 44.6649 222.941 44.6704C222.93 44.6732 222.919 44.6759 222.909 44.6787C222.81 44.7075 222.711 44.7349 222.611 44.761C222.607 44.761 222.603 44.7624 222.598 44.7638C222.499 44.7885 222.4 44.8132 222.3 44.8351C222.289 44.8379 222.278 44.8406 222.267 44.8433C222.25 44.8475 222.234 44.8502 222.217 44.8529C222.077 44.8831 221.937 44.912 221.797 44.938C221.74 44.949 221.682 44.9586 221.625 44.9682C221.612 44.971 221.6 44.9723 221.588 44.9737C221.459 44.9943 221.328 45.0135 221.195 45.0313C221.166 45.0355 221.136 45.0382 221.106 45.0423C220.976 45.0588 220.845 45.0753 220.713 45.0903C220.709 45.0903 220.705 45.0903 220.701 45.0917C220.609 45.1027 220.516 45.1123 220.422 45.1233C220.376 45.1288 220.329 45.1343 220.283 45.1398C220.14 45.1562 219.997 45.1727 219.854 45.1905C219.838 45.1933 219.82 45.196 219.804 45.1974C219.67 45.2152 219.537 45.2344 219.407 45.255C219.389 45.2578 219.371 45.2605 219.353 45.2633C219.222 45.2852 219.094 45.3099 218.968 45.3374C218.94 45.3428 218.913 45.3497 218.886 45.3552C218.777 45.3799 218.67 45.406 218.567 45.4362C218.567 45.4362 218.566 45.4362 218.564 45.4362C218.462 45.4663 218.364 45.5007 218.268 45.5363C218.239 45.5473 218.212 45.5583 218.184 45.5693C218.124 45.594 218.066 45.62 218.01 45.6475C217.985 45.6598 217.959 45.6722 217.935 45.6845C217.856 45.7257 217.78 45.7696 217.708 45.8176C217.257 46.1223 217.041 46.4997 217.037 46.9155L217.118 37.6335H217.124Z" fill="#DEB007"/>
<path d="M180.875 46.3799C180.87 46.3621 180.868 46.3442 180.864 46.3264C180.861 46.3099 180.857 46.2948 180.854 46.2783C180.854 46.2729 180.854 46.2674 180.851 46.2619C180.847 46.2372 180.844 46.2125 180.842 46.1891C180.839 46.1699 180.838 46.1521 180.836 46.1343C180.835 46.1082 180.833 46.0835 180.833 46.0574C180.833 46.0423 180.832 46.0272 180.832 46.0121V45.9929L180.913 36.7109C180.913 36.7315 180.913 36.7535 180.914 36.7741C180.914 36.8001 180.916 36.8262 180.917 36.8509C180.918 36.8701 180.921 36.888 180.923 36.9058C180.925 36.9305 180.928 36.9552 180.932 36.9785C180.936 37.0005 180.94 37.0211 180.945 37.043C180.947 37.0609 180.951 37.0787 180.956 37.0965C180.961 37.1185 180.968 37.1405 180.973 37.1624C180.979 37.1789 180.983 37.1967 180.988 37.2132C180.991 37.2214 180.995 37.231 180.998 37.2393C181.02 37.3038 181.046 37.3655 181.076 37.4273C181.076 37.4273 181.076 37.43 181.078 37.4314C181.108 37.489 181.142 37.5453 181.181 37.6015C181.186 37.6111 181.193 37.6194 181.198 37.629C181.237 37.6825 181.279 37.7346 181.325 37.7854C181.337 37.7991 181.349 37.8129 181.363 37.8266C181.377 37.8417 181.392 37.8568 181.407 37.8719C181.425 37.8883 181.441 37.9048 181.461 37.9213C181.477 37.9364 181.493 37.9501 181.509 37.9652C181.524 37.9789 181.54 37.9913 181.557 38.0036C181.585 38.0269 181.616 38.0489 181.646 38.0708C181.662 38.0818 181.677 38.0942 181.694 38.1052C181.728 38.1285 181.764 38.1518 181.801 38.1738C181.815 38.182 181.828 38.1916 181.842 38.1998C181.875 38.2191 181.909 38.2383 181.944 38.2561C181.959 38.2643 181.974 38.2726 181.99 38.2808C182.041 38.3069 182.095 38.333 182.149 38.3577C182.255 38.4029 182.365 38.4414 182.476 38.477C182.513 38.4894 182.553 38.4976 182.591 38.5086C182.668 38.5306 182.744 38.5539 182.823 38.5717C182.844 38.5772 182.866 38.58 182.886 38.5854C182.975 38.606 183.066 38.6239 183.157 38.6403C183.194 38.6472 183.231 38.6527 183.268 38.6582C183.353 38.6719 183.439 38.6842 183.527 38.6952C183.556 38.6993 183.583 38.7035 183.614 38.7062C183.726 38.7186 183.841 38.7309 183.958 38.7391C184.031 38.7446 184.105 38.7487 184.178 38.7529C184.239 38.757 184.301 38.7611 184.363 38.7638C184.438 38.768 184.514 38.7693 184.589 38.7721C184.65 38.7734 184.71 38.7776 184.772 38.7789C184.916 38.7831 185.063 38.7858 185.208 38.7872H185.221C185.392 38.7899 185.565 38.7913 185.736 38.7927C185.846 38.7927 185.956 38.7954 186.066 38.7968C186.121 38.7968 186.174 38.7981 186.228 38.7995C186.321 38.8009 186.414 38.8023 186.506 38.805C186.53 38.805 186.554 38.805 186.578 38.8064C186.619 38.8064 186.659 38.8091 186.698 38.8105C186.77 38.8132 186.84 38.816 186.911 38.8187C186.977 38.8215 187.043 38.8256 187.107 38.8297C187.176 38.8338 187.243 38.8379 187.31 38.8434C187.334 38.8448 187.357 38.8462 187.379 38.8475C187.455 38.853 187.53 38.8613 187.604 38.8695C187.619 38.8709 187.636 38.8723 187.649 38.8736C187.747 38.8846 187.844 38.8956 187.939 38.9107C187.95 38.912 187.961 38.9148 187.972 38.9162C188.115 38.9381 188.255 38.9614 188.39 38.9916C188.395 38.9916 188.397 38.993 188.403 38.9944C188.406 38.9944 188.412 38.9971 188.417 38.9985C188.422 38.9999 188.429 39.0012 188.436 39.004C188.444 39.0067 188.455 39.0095 188.465 39.0122C188.471 39.015 188.48 39.0163 188.488 39.0191C188.5 39.0232 188.513 39.0273 188.526 39.0314C188.536 39.0342 188.545 39.0369 188.555 39.041C188.57 39.0452 188.587 39.0506 188.605 39.0561C188.615 39.0589 188.625 39.063 188.636 39.0657C188.655 39.0712 188.674 39.0781 188.695 39.0849C188.706 39.0891 188.718 39.0918 188.729 39.0959C188.75 39.1028 188.772 39.1097 188.794 39.1179C188.806 39.122 188.819 39.1261 188.832 39.1302C188.856 39.1385 188.879 39.1467 188.904 39.1549C188.917 39.1591 188.93 39.1645 188.945 39.1687C188.968 39.1769 188.993 39.1851 189.018 39.1947C189.033 39.2002 189.049 39.2057 189.064 39.2112C189.086 39.2194 189.11 39.2277 189.133 39.2359C189.152 39.2428 189.17 39.2496 189.189 39.2565C189.211 39.2647 189.234 39.273 189.256 39.2812C189.277 39.288 189.296 39.2963 189.317 39.3031C189.34 39.3114 189.362 39.321 189.385 39.3292C189.406 39.3374 189.425 39.3443 189.446 39.3525C189.469 39.3621 189.492 39.3704 189.516 39.38C189.536 39.3882 189.557 39.3965 189.577 39.4033C189.601 39.4129 189.624 39.4212 189.646 39.4308C189.667 39.439 189.687 39.4472 189.708 39.4555C189.731 39.4651 189.753 39.4747 189.776 39.4829C189.797 39.4911 189.818 39.4994 189.837 39.5076C189.862 39.5172 189.886 39.5282 189.91 39.5378C189.927 39.5447 189.945 39.5529 189.962 39.5598C190.003 39.5776 190.043 39.5954 190.082 39.6119C190.14 39.638 190.195 39.664 190.248 39.6887L190.168 48.9707C190.115 48.946 190.059 48.9199 190.001 48.8939C189.962 48.876 189.922 48.8582 189.881 48.8404C189.867 48.8349 189.853 48.8294 189.841 48.8239C189.812 48.8115 189.785 48.8006 189.756 48.7882C189.739 48.7813 189.723 48.7745 189.706 48.7676C189.68 48.7566 189.654 48.7457 189.627 48.7347C189.608 48.7278 189.59 48.7196 189.572 48.7127C189.547 48.7031 189.521 48.6922 189.496 48.6825C189.477 48.6757 189.458 48.6675 189.439 48.6606C189.414 48.651 189.389 48.6414 189.365 48.6318C189.344 48.6235 189.325 48.6167 189.304 48.6084C189.281 48.6002 189.258 48.5906 189.234 48.5824C189.215 48.5755 189.196 48.5673 189.175 48.5604C189.152 48.5522 189.129 48.5426 189.105 48.5343C189.086 48.5275 189.068 48.5206 189.051 48.5138C189.027 48.5055 189.005 48.4973 188.983 48.4891C188.963 48.4822 188.942 48.4753 188.923 48.4685C188.904 48.4616 188.884 48.4548 188.867 48.4493C188.846 48.4424 188.827 48.4355 188.808 48.4287C188.79 48.4218 188.771 48.4163 188.754 48.4095C188.736 48.404 188.72 48.3971 188.702 48.3916C188.685 48.3861 188.668 48.3793 188.651 48.3752C188.635 48.3697 188.62 48.3642 188.605 48.3601C188.588 48.3546 188.573 48.3491 188.558 48.345C188.543 48.3409 188.53 48.3354 188.517 48.3312C188.503 48.3271 188.489 48.323 188.477 48.3189C188.465 48.3148 188.452 48.3107 188.44 48.3079C188.429 48.3038 188.418 48.3011 188.407 48.2983C188.397 48.2956 188.388 48.2928 188.378 48.2901C188.368 48.2873 188.359 48.2846 188.351 48.2818C188.344 48.2791 188.337 48.2777 188.331 48.2764C188.322 48.2736 188.312 48.2722 188.305 48.2695C188.168 48.2393 188.03 48.2146 187.885 48.194C187.78 48.1776 187.673 48.1638 187.566 48.1515C187.548 48.1501 187.529 48.1487 187.511 48.146C187.416 48.1364 187.32 48.1282 187.223 48.1213C187.155 48.1158 187.088 48.1117 187.021 48.1089C186.955 48.1048 186.889 48.1007 186.822 48.098C186.753 48.0952 186.683 48.0925 186.613 48.0897C186.548 48.087 186.482 48.0842 186.414 48.0829C186.325 48.0801 186.233 48.0788 186.143 48.0774C186.086 48.0774 186.03 48.0746 185.973 48.0746C185.864 48.0733 185.756 48.0719 185.647 48.0719C185.505 48.0705 185.363 48.0691 185.221 48.0664C185.185 48.0664 185.149 48.0664 185.113 48.0664C184.969 48.065 184.825 48.0623 184.683 48.0582C184.676 48.0582 184.669 48.0582 184.662 48.0582C184.602 48.0568 184.543 48.0527 184.484 48.0513C184.414 48.0486 184.341 48.0472 184.271 48.0431C184.206 48.0403 184.143 48.0348 184.079 48.0307C184.007 48.0266 183.936 48.0225 183.867 48.017C183.859 48.017 183.851 48.017 183.844 48.0156C183.734 48.0074 183.627 47.9964 183.52 47.9841C183.493 47.9813 183.467 47.9772 183.439 47.9745C183.386 47.9676 183.331 47.9621 183.279 47.9539C183.244 47.9484 183.21 47.9429 183.176 47.9374C183.139 47.9319 183.103 47.9251 183.067 47.9196C182.975 47.9031 182.885 47.8853 182.797 47.8647C182.777 47.8592 182.755 47.8564 182.733 47.851C182.727 47.8496 182.72 47.8482 182.715 47.8468C182.641 47.829 182.569 47.807 182.498 47.7865C182.461 47.7755 182.422 47.7672 182.385 47.7549C182.273 47.7192 182.163 47.6794 182.057 47.6341C182.003 47.6094 181.95 47.5847 181.898 47.5587C181.88 47.5491 181.864 47.5395 181.846 47.5298C181.813 47.512 181.782 47.4955 181.751 47.4763C181.747 47.4736 181.743 47.4722 181.739 47.4695C181.727 47.4626 181.717 47.4544 181.705 47.4475C181.67 47.4256 181.636 47.4036 181.602 47.3803C181.585 47.3693 181.569 47.3569 181.552 47.3446C181.522 47.3226 181.493 47.3007 181.466 47.2773C181.456 47.2705 181.447 47.2636 181.437 47.2554C181.43 47.2499 181.423 47.243 181.417 47.2376C181.4 47.2238 181.385 47.2101 181.369 47.195C181.349 47.1785 181.332 47.1621 181.314 47.1442C181.299 47.1291 181.285 47.1154 181.271 47.1003C181.263 47.0907 181.252 47.0811 181.244 47.0715C181.24 47.0674 181.237 47.0619 181.233 47.0578C181.187 47.007 181.145 46.9549 181.106 46.9014C181.104 46.8986 181.101 46.8945 181.098 46.8917C181.094 46.8863 181.091 46.8808 181.089 46.8753C181.05 46.8204 181.016 46.7641 180.986 46.7051C180.986 46.7051 180.986 46.7024 180.984 46.701C180.954 46.6406 180.928 46.5789 180.906 46.5157C180.905 46.5103 180.902 46.5048 180.899 46.4993C180.899 46.4993 180.897 46.491 180.895 46.4869C180.89 46.4705 180.886 46.454 180.881 46.4375C180.875 46.4156 180.868 46.3936 180.862 46.3703L180.875 46.3799Z" fill="#DEB007"/>
<path d="M177.376 48.3848L177.295 57.6654L217.202 74.4591L217.283 65.1771L177.376 48.3848Z" fill="#FAD95F"/>
<path d="M217.284 65.1765L217.203 74.4585L248.334 53.4519L248.415 44.1699L217.284 65.1765Z" fill="#DEB007"/>
<path d="M248.414 44.1707L231.904 37.2229C231.343 37.5536 230.68 38.119 230.616 38.2027C229.843 39.2182 230.839 40.6056 229.545 41.4783C227.951 42.5542 224.03 42.3181 220.786 40.9541C220.694 40.9157 220.605 40.8773 220.517 40.8375C217.47 39.4789 216.25 37.5811 217.798 36.5354C218.788 35.8671 220.495 35.9097 221.884 35.6531C222.605 35.52 223.346 35.3237 223.923 35.0589C224.051 35.0012 224.673 34.6417 225.038 34.3329L208.509 27.377L195.615 36.0785C195.349 35.9879 195.06 35.8699 194.818 35.7615C194.527 35.6311 194.296 35.5158 194.237 35.4788C193.731 35.1673 193.352 34.7721 193.094 34.3878C192.603 33.6578 192.652 32.7699 191.447 32.232C189.342 31.3455 185.636 32.033 183.105 33.7401C180.602 35.4294 180.189 37.4823 182.154 38.3592C183.881 39.0865 186.478 38.5732 188.398 38.9959C188.544 39.0275 189.456 39.3321 190.093 39.6162C190.151 39.6422 190.205 39.6683 190.259 39.693L177.379 48.3835L217.286 65.1759L248.417 44.1693L248.414 44.1707Z" fill="#FECB0F"/>
</svg>
