<svg width="202" height="202" viewBox="0 0 202 202" fill="none" xmlns="http://www.w3.org/2000/svg">
<path d="M196.957 201.987H4.74918C2.42865 201.987 0.552734 200.105 0.552734 197.79C0.552734 195.47 2.43474 193.594 4.74918 193.594H196.951C199.272 193.594 201.148 195.476 201.148 197.79C201.148 200.111 199.266 201.987 196.951 201.987H196.957Z" fill="#2C2B56"/>
<path d="M172.491 22.7631H133.261L133.432 20.6923C133.56 19.1453 132.415 17.8906 130.868 17.8906H90.426C88.879 17.8906 87.5208 19.1453 87.3929 20.6923L87.2223 22.7631H49.3265C46.8963 22.7631 44.7646 24.7304 44.5636 27.1606L30.6891 193.392C30.4881 195.822 32.291 197.79 34.715 197.79H157.874C160.304 197.79 162.436 195.822 162.637 193.392L176.511 27.1606C176.712 24.7304 174.909 22.7631 172.485 22.7631H172.491Z" fill="black"/>
<path d="M171.736 27.1611L157.861 193.393C157.66 195.823 155.529 197.79 153.098 197.79H29.9398C27.5158 197.79 25.7068 195.823 25.9078 193.393L34.8367 86.429L37.4374 55.3059L39.7823 27.1611C39.9894 24.737 42.1211 22.7637 44.5452 22.7637H167.71C170.14 22.7637 171.937 24.737 171.736 27.1611Z" fill="#5A33EB"/>
<path d="M34.125 189.864L47.4087 30.6797H163.526L150.237 189.864H34.125Z" fill="#EEEDF1"/>
<path d="M124.65 35.1027H84.2087C82.6616 35.1027 81.5166 33.8481 81.6445 32.3011L82.6129 20.6923C82.7408 19.1453 84.099 17.8906 85.6461 17.8906H126.088C127.635 17.8906 128.78 19.1453 128.652 20.6923L127.684 32.3011C127.556 33.8481 126.197 35.1027 124.65 35.1027Z" fill="#6968C9"/>
<path d="M137.441 103.781H60.5039C59.7792 103.781 59.2493 103.196 59.3163 102.472C59.3833 101.747 60.0228 101.162 60.7476 101.162H137.684C138.409 101.162 138.939 101.747 138.872 102.472C138.805 103.196 138.166 103.781 137.441 103.781Z" fill="#52528E"/>
<path d="M136.71 114.33H59.7735C59.0487 114.33 58.5188 113.745 58.5858 113.02C58.6528 112.296 59.2923 111.711 60.0171 111.711H136.954C137.679 111.711 138.209 112.296 138.142 113.02C138.075 113.745 137.435 114.33 136.71 114.33Z" fill="#52528E"/>
<path d="M104.228 124.873H58.5547C57.8299 124.873 57.3 124.288 57.367 123.563C57.434 122.839 58.0736 122.254 58.7983 122.254H104.472C105.197 122.254 105.727 122.839 105.66 123.563C105.593 124.288 104.953 124.873 104.228 124.873Z" fill="#52528E"/>
<path d="M134.517 135.422H57.5801C56.8553 135.422 56.3254 134.837 56.3924 134.112C56.4594 133.387 57.0989 132.803 57.8237 132.803H134.761C135.485 132.803 136.015 133.387 135.948 134.112C135.881 134.837 135.242 135.422 134.517 135.422Z" fill="#52528E"/>
<path d="M133.542 145.965H56.6055C55.8807 145.965 55.3508 145.38 55.4178 144.655C55.4848 143.93 56.1243 143.346 56.8491 143.346H133.786C134.511 143.346 135.041 143.93 134.974 144.655C134.907 145.38 134.267 145.965 133.542 145.965Z" fill="#52528E"/>
<path d="M104.825 156.514H55.6309C54.9061 156.514 54.3762 155.929 54.4432 155.204C54.5102 154.479 55.1497 153.895 55.8745 153.895H105.069C105.793 153.895 106.323 154.479 106.256 155.204C106.189 155.929 105.55 156.514 104.825 156.514Z" fill="#52528E"/>
<path d="M182.85 188.22H171.321L155.357 124.464L154.566 137.644L151.545 188.22H140.198L138.846 104.297L141.593 104.45L170.59 103.201L182.85 188.22Z" fill="#4B4A74"/>
<path d="M155.357 124.465L154.565 137.645L150.223 123.844L155.357 124.465Z" fill="#41436D"/>
<path d="M140.199 188.221L127.536 196.047C126.732 196.547 127.085 197.789 128.03 197.789H151.649C152.215 197.789 152.648 197.296 152.581 196.735L151.545 188.227H140.199V188.221Z" fill="black"/>
<path d="M171.534 188.221L167.039 195.998C166.583 196.796 167.155 197.789 168.075 197.789H182.698C183.417 197.789 183.971 197.162 183.88 196.455L182.875 188.227H171.528L171.534 188.221Z" fill="black"/>
<path d="M110.208 76.4148L107.638 81.1837C106.206 80.8792 104.982 80.3249 103.977 79.722C102.053 78.5648 100.975 77.2492 100.975 77.2492L106.407 74.3257L107.924 73.5156L108.691 74.4962L109.13 75.0505L110.208 76.4269V76.4148Z" fill="#F3ABA3"/>
<path d="M109.312 74.5449C109.312 74.5449 109.27 74.7337 109.136 75.0382C108.716 76.0249 107.418 78.2784 103.983 79.7158C102.059 78.5586 100.98 77.243 100.98 77.243L106.413 74.3195L106.706 74.2891L108.697 74.484L109.312 74.5449Z" fill="#DF6F74"/>
<path d="M100.988 78.3696C107.17 78.3696 112.182 73.3576 112.182 67.175C112.182 60.9924 107.17 55.9805 100.988 55.9805C94.8049 55.9805 89.793 60.9924 89.793 67.175C89.793 73.3576 94.8049 78.3696 100.988 78.3696Z" fill="#6ADD85"/>
<path d="M98.3633 66.6511L100.458 68.7524L103.607 65.6035" stroke="white" strokeWidth="1.52266" strokeLinecap="round" strokeLinejoin="round"/>
<path d="M112.182 76.9623C112.182 76.9623 107.851 70.8169 107.072 71.1519C106.292 71.4869 106.292 72.705 106.786 73.6125C107.279 74.52 108.186 76.1279 108.186 76.1279C108.186 76.1279 106.84 79.7031 106.944 80.6655C107.048 81.6217 110.805 82.6875 110.805 82.6875" fill="#F3ABA3"/>
<path d="M170.895 103.572C170.895 103.871 163.605 104.236 155.979 104.45C147.623 104.681 138.846 104.73 138.846 104.297C138.846 103.987 138.883 101.228 138.926 97.8717C138.944 96.8363 138.956 95.7339 138.974 94.6314C138.986 93.7057 138.999 92.7738 139.011 91.8846C139.023 90.7274 139.041 89.625 139.053 88.6505C139.084 86.3604 139.102 84.7646 139.102 84.7646L137.111 88.6505L135.448 91.8846L135.399 91.9759C135.21 92.3414 134.991 92.6703 134.729 92.9626C133.962 93.8579 132.908 94.4365 131.787 94.6314C131.312 94.7167 130.813 94.7289 130.319 94.668C129.668 94.5949 129.016 94.3817 128.413 94.0346L109.508 83.0958L112.303 76.6702L129.57 84.3444L131.105 80.6047L135.436 70.0375C136.575 67.2541 138.926 65.1467 141.819 64.3184L147.787 62.6069L150.613 61.7969H156.862L158.72 62.0588L166.425 63.1429C166.425 63.1429 167.064 68.9046 167.856 76.0794C168.301 80.0809 168.794 84.521 169.251 88.6444C169.373 89.7468 169.494 90.837 169.61 91.8785C169.714 92.8286 169.817 93.7483 169.915 94.6254C170.043 95.7887 170.158 96.8728 170.274 97.8656C170.639 101.203 170.889 103.42 170.895 103.566V103.572Z" fill="#6A48E8"/>
<path d="M139.054 88.6445H162.595L161.243 91.8787H139.012C139.024 90.7214 139.042 89.619 139.054 88.6445Z" fill="#888CE7"/>
<path d="M160.091 94.6328L158.739 97.873H138.926C138.944 96.8376 138.956 95.7352 138.975 94.6328H160.091Z" fill="#888CE7"/>
<path d="M158.72 62.0588C158.379 64.7996 156.6 67.4733 153.208 67.4733C150.035 67.4733 148.347 65.0797 147.787 62.6069L150.613 61.7969H156.862L158.72 62.0588Z" fill="white"/>
<path d="M169.611 91.8845H161.242L162.594 88.6504H169.251C169.294 89.0402 169.337 89.43 169.379 89.8137C169.422 90.1852 169.465 90.5507 169.501 90.9161C169.538 91.245 169.574 91.5678 169.611 91.8906V91.8845Z" fill="#6968C9"/>
<path d="M169.251 88.645H162.594L167.856 76.0801C168.301 80.0816 168.794 84.5217 169.251 88.645Z" fill="#6A48E8"/>
<path d="M170.268 97.873H158.732L160.085 94.6328H169.909C170.037 95.7961 170.152 96.8803 170.268 97.873Z" fill="#6968C9"/>
<path d="M169.914 94.6316H160.09L161.241 91.8848H169.609C169.713 92.8349 169.817 93.7546 169.914 94.6316Z" fill="#6A48E8"/>
<path d="M170.894 103.572C170.894 103.87 163.604 104.236 155.979 104.449L158.738 97.8711H170.273C170.639 101.209 170.888 103.426 170.894 103.572Z" fill="#6A48E8"/>
<path d="M147.348 102.361L142.772 118.029C142.634 118.504 142.906 119.001 143.381 119.14L163.978 125.155C164.452 125.293 164.95 125.021 165.088 124.546L169.664 108.878C169.803 108.403 169.53 107.906 169.056 107.768L148.459 101.752C147.984 101.614 147.487 101.886 147.348 102.361Z" fill="white"/>
<path d="M162.241 103.195C162.241 103.195 157.807 103.354 157.497 104.011C157.186 104.675 160.298 105.254 160.298 105.254C160.298 105.254 157.576 108.829 155.481 109.219C153.379 109.609 157.271 113.537 160.146 113.458C163.021 113.379 165.975 107.849 167.455 106.533" fill="#F3ABA3"/>
<path d="M179.014 91.1232L167.277 107.665L161.314 103.103L171.723 85.7939L170.992 84.0215L162.137 62.6738L166.875 63.3682C169.72 63.7823 172.144 65.6461 173.289 68.2894L179.824 83.4246C180.92 85.9522 180.616 88.8696 179.02 91.1171L179.014 91.1232Z" fill="#7351F2"/>
<path d="M173.343 83.0957L171.723 85.7999L170.992 84.0276L173.343 83.0957Z" fill="#6A48E8"/>
<path d="M139.102 76.7246V84.7581L135.398 91.9755C135.21 92.341 134.99 92.6699 134.729 92.9622L139.102 76.7246Z" fill="#6A48E8"/>
<path d="M132.689 85.7825L129.57 84.3451L131.105 80.6055L132.689 85.7825Z" fill="#6A48E8"/>
<path d="M146.369 48.2508C142.843 48.0377 141.205 45.1873 141.99 43.9448C142.776 42.6962 144.664 43.1591 144.664 43.1591C144.664 43.1591 142.49 40.735 144.311 38.9931C146.126 37.2512 148.726 40.2721 151.364 40.735C154.001 41.1979 157.454 40.4487 158.77 41.6973C160.085 42.9459 159.233 45.4004 159.233 45.4004C159.233 45.4004 161.62 45.6136 160.798 48.9634C159.976 52.3133 158.27 55.3708 157.948 56.9056C157.625 58.4405 152.959 57.5817 152.356 55.6936" fill="black"/>
<path d="M153.567 65.5968C151.624 65.7978 149.882 64.3908 149.681 62.4479L149.608 61.7536L148.92 55.194L155.461 54.5058L155.955 54.457L156.04 55.2793L156.399 58.7266L156.71 61.7049C156.911 63.6478 155.504 65.3897 153.561 65.5907L153.567 65.5968Z" fill="#F3ABA3"/>
<path d="M156.405 58.7328C155.534 61.0411 152.282 62.1435 149.608 61.7537L148.92 55.1941L155.461 54.5059C155.681 54.7251 155.869 54.9809 156.04 55.2794L156.399 58.7267L156.405 58.7328Z" fill="#DF6F74"/>
<path d="M145.87 45.834C150.536 48.3251 156.413 48.2581 156.413 48.2581C156.413 48.2581 156.377 52.2474 156.663 52.6007C156.949 52.9539 156.803 50.3959 158.265 49.7137C159.726 49.0377 160.938 51.4191 160.366 52.6311C159.793 53.8432 158.161 53.4899 158.161 53.4899C158.161 53.4899 157.449 55.8409 156.115 57.5341C154.781 59.2273 152.637 60.2749 150.164 60.1531C147.691 60.0312 145.346 57.4123 145.645 53.2646C145.943 49.1168 145.876 45.8401 145.876 45.8401L145.87 45.834Z" fill="#F3ABA3"/>
<path d="M158.744 52.5629C157.818 52.5081 158.031 50.9611 158.744 50.8027" stroke="#DF6F74" strokeWidth="0.280169" strokeLinecap="round" strokeLinejoin="round"/>
<path d="M149.536 51.8203L148.854 53.9216C148.787 54.1287 148.891 54.354 149.098 54.4393L149.713 54.6829" stroke="#DF6F74" strokeWidth="0.280169" strokeLinecap="round" strokeLinejoin="round"/>
<path d="M153.209 52.169C153.209 52.4675 152.966 52.7111 152.667 52.7111C152.369 52.7111 152.125 52.4675 152.125 52.169C152.125 51.8706 152.369 51.627 152.667 51.627C152.966 51.627 153.209 51.8706 153.209 52.169Z" fill="black"/>
<path d="M147.758 52.169C147.758 52.4675 147.514 52.7111 147.216 52.7111C146.917 52.7111 146.674 52.4675 146.674 52.169C146.674 51.8706 146.917 51.627 147.216 51.627C147.514 51.627 147.758 51.8706 147.758 52.169Z" fill="black"/>
<path d="M151.656 50.4314C151.656 50.4314 152.74 49.597 154.007 50.4314" stroke="black" strokeWidth="0.280169" strokeLinecap="round" strokeLinejoin="round"/>
<path d="M148.39 50.4314C148.39 50.4314 147.306 49.597 146.039 50.4314" stroke="black" strokeWidth="0.280169" strokeLinecap="round" strokeLinejoin="round"/>
<path d="M152.283 55.9805C152.368 56.6322 151.905 57.229 151.254 57.3143C150.602 57.3996 150.005 56.9367 149.92 56.285" fill="white"/>
<path d="M84.4682 58.3865L81.4717 83.9855C81.3072 85.3741 80.1317 86.4278 78.7309 86.4278H34.8418L37.4425 55.3047H81.7335C83.3841 55.3047 84.6692 56.7482 84.4743 58.3865H84.4682Z" fill="#292853"/>
<path d="M73.4817 81.1778H12.5084C10.8578 81.1778 9.57273 79.7343 9.76763 78.0959L12.7642 52.497C12.9287 51.1023 14.1042 50.0547 15.505 50.0547H76.4722C78.1227 50.0547 79.4079 51.4982 79.213 53.1365L76.2164 78.7355C76.0519 80.1302 74.8764 81.1778 73.4756 81.1778H73.4817Z" fill="#9966FF"/>
<path d="M24.6241 62.726V67.9883H23.9868V62.726H24.6241ZM28.7796 64.0416C28.7487 63.7812 28.6237 63.579 28.4044 63.4352C28.1852 63.2913 27.9162 63.2193 27.5976 63.2193C27.3646 63.2193 27.1608 63.257 26.9861 63.3324C26.8131 63.4077 26.6777 63.5114 26.5801 63.6433C26.4842 63.7752 26.4362 63.9251 26.4362 64.0929C26.4362 64.2334 26.4696 64.3542 26.5364 64.4552C26.6049 64.5546 26.6923 64.6377 26.7985 64.7045C26.9047 64.7696 27.016 64.8235 27.1325 64.8664C27.249 64.9075 27.3561 64.9409 27.4537 64.9666L27.9882 65.1105C28.1252 65.1464 28.2777 65.1961 28.4455 65.2595C28.6151 65.3229 28.777 65.4094 28.9312 65.519C29.0871 65.6269 29.2155 65.7657 29.3166 65.9353C29.4177 66.1048 29.4682 66.313 29.4682 66.5596C29.4682 66.844 29.3937 67.101 29.2446 67.3305C29.0973 67.56 28.8815 67.7425 28.5971 67.8778C28.3145 68.0131 27.971 68.0808 27.5668 68.0808C27.1899 68.0808 26.8636 68.02 26.5878 67.8983C26.3137 67.7767 26.0979 67.6071 25.9403 67.3896C25.7844 67.172 25.6962 66.9194 25.6756 66.6316H26.3334C26.3506 66.8303 26.4174 66.9947 26.5338 67.1249C26.652 67.2534 26.8011 67.3493 26.9809 67.4127C27.1625 67.4744 27.3578 67.5052 27.5668 67.5052C27.81 67.5052 28.0284 67.4658 28.222 67.387C28.4156 67.3065 28.5689 67.1952 28.6819 67.053C28.795 66.9091 28.8515 66.7412 28.8515 66.5494C28.8515 66.3746 28.8027 66.2325 28.7051 66.1228C28.6074 66.0132 28.4789 65.9241 28.3196 65.8556C28.1603 65.7871 27.9882 65.7271 27.8032 65.6757L27.1557 65.4907C26.7445 65.3725 26.4191 65.2038 26.1793 64.9846C25.9394 64.7653 25.8195 64.4784 25.8195 64.1238C25.8195 63.8291 25.8992 63.5722 26.0585 63.3529C26.2195 63.132 26.4353 62.9607 26.706 62.839C26.9784 62.7157 27.2824 62.654 27.6182 62.654C27.9573 62.654 28.2588 62.7148 28.5226 62.8365C28.7864 62.9564 28.9954 63.1208 29.1496 63.3298C29.3055 63.5388 29.3877 63.776 29.3962 64.0416H28.7796ZM34.956 65.3571C34.956 65.9121 34.8558 66.3918 34.6553 66.796C34.4549 67.2003 34.18 67.5121 33.8305 67.7313C33.4811 67.9506 33.082 68.0602 32.6332 68.0602C32.1844 68.0602 31.7852 67.9506 31.4358 67.7313C31.0863 67.5121 30.8114 67.2003 30.611 66.796C30.4106 66.3918 30.3103 65.9121 30.3103 65.3571C30.3103 64.8021 30.4106 64.3225 30.611 63.9182C30.8114 63.514 31.0863 63.2022 31.4358 62.9829C31.7852 62.7637 32.1844 62.654 32.6332 62.654C33.082 62.654 33.4811 62.7637 33.8305 62.9829C34.18 63.2022 34.4549 63.514 34.6553 63.9182C34.8558 64.3225 34.956 64.8021 34.956 65.3571ZM34.3393 65.3571C34.3393 64.9015 34.2631 64.5169 34.1106 64.2034C33.9599 63.89 33.7552 63.6527 33.4965 63.4917C33.2396 63.3307 32.9518 63.2502 32.6332 63.2502C32.3145 63.2502 32.0259 63.3307 31.7672 63.4917C31.5103 63.6527 31.3056 63.89 31.1531 64.2034C31.0024 64.5169 30.927 64.9015 30.927 65.3571C30.927 65.8128 31.0024 66.1974 31.1531 66.5108C31.3056 66.8243 31.5103 67.0616 31.7672 67.2226C32.0259 67.3836 32.3145 67.4641 32.6332 67.4641C32.9518 67.4641 33.2396 67.3836 33.4965 67.2226C33.7552 67.0616 33.9599 66.8243 34.1106 66.5108C34.2631 66.1974 34.3393 65.8128 34.3393 65.3571ZM39.6453 62.654C39.8611 62.6557 40.0769 62.6969 40.2928 62.7774C40.5086 62.8579 40.7056 62.9915 40.8838 63.1782C41.0619 63.3632 41.205 63.6159 41.3129 63.9362C41.4208 64.2565 41.4747 64.6582 41.4747 65.1413C41.4747 65.6089 41.4302 66.0243 41.3411 66.3875C41.2538 66.7489 41.127 67.0538 40.9609 67.3022C40.7964 67.5506 40.596 67.739 40.3596 67.8675C40.1249 67.996 39.8594 68.0602 39.5631 68.0602C39.2684 68.0602 39.0055 68.002 38.7742 67.8855C38.5447 67.7673 38.3563 67.6037 38.2089 67.3947C38.0633 67.184 37.97 66.9399 37.9289 66.6624H38.5558C38.6123 66.904 38.7245 67.1035 38.8924 67.2611C39.062 67.417 39.2855 67.4949 39.5631 67.4949C39.969 67.4949 40.2894 67.3176 40.524 66.9631C40.7604 66.6085 40.8786 66.1074 40.8786 65.4599H40.8375C40.7416 65.6038 40.6277 65.728 40.4958 65.8325C40.3639 65.937 40.2174 66.0175 40.0564 66.074C39.8954 66.1305 39.7241 66.1588 39.5425 66.1588C39.241 66.1588 38.9644 66.0843 38.7126 65.9353C38.4625 65.7845 38.262 65.5781 38.1113 65.316C37.9623 65.0522 37.8877 64.7507 37.8877 64.4116C37.8877 64.0895 37.9597 63.7949 38.1036 63.5277C38.2492 63.2587 38.453 63.0446 38.7151 62.8853C38.9789 62.726 39.289 62.6489 39.6453 62.654ZM39.6453 63.2193C39.4294 63.2193 39.235 63.2733 39.062 63.3812C38.8907 63.4874 38.7545 63.6313 38.6535 63.8129C38.5541 63.9927 38.5044 64.1923 38.5044 64.4116C38.5044 64.6308 38.5524 64.8304 38.6483 65.0102C38.746 65.1884 38.8787 65.3306 39.0466 65.4368C39.2162 65.5413 39.4089 65.5935 39.6247 65.5935C39.7875 65.5935 39.9391 65.5618 40.0795 65.4985C40.22 65.4334 40.3425 65.3451 40.447 65.2338C40.5532 65.1207 40.6362 64.9931 40.6962 64.8509C40.7562 64.7071 40.7861 64.5572 40.7861 64.4013C40.7861 64.1957 40.7365 64.003 40.6371 63.8231C40.5395 63.6433 40.4041 63.4977 40.2311 63.3863C40.0598 63.275 39.8645 63.2193 39.6453 63.2193ZM44.2016 68.0602C43.8145 68.0602 43.4847 67.9549 43.2124 67.7442C42.94 67.5318 42.7319 67.2243 42.588 66.8217C42.4441 66.4175 42.3721 65.9293 42.3721 65.3571C42.3721 64.7884 42.4441 64.3028 42.588 63.9002C42.7336 63.496 42.9426 63.1876 43.2149 62.9752C43.489 62.7611 43.8179 62.654 44.2016 62.654C44.5853 62.654 44.9134 62.7611 45.1857 62.9752C45.4598 63.1876 45.6688 63.496 45.8127 63.9002C45.9583 64.3028 46.0311 64.7884 46.0311 65.3571C46.0311 65.9293 45.9591 66.4175 45.8152 66.8217C45.6714 67.2243 45.4632 67.5318 45.1909 67.7442C44.9185 67.9549 44.5887 68.0602 44.2016 68.0602ZM44.2016 67.4949C44.5853 67.4949 44.8834 67.3099 45.0958 66.9399C45.3082 66.5699 45.4144 66.0423 45.4144 65.3571C45.4144 64.9015 45.3656 64.5135 45.2679 64.1932C45.172 63.8728 45.0333 63.6287 44.8517 63.4609C44.6718 63.293 44.4551 63.209 44.2016 63.209C43.8213 63.209 43.5241 63.3966 43.31 63.7718C43.0959 64.1452 42.9888 64.6736 42.9888 65.3571C42.9888 65.8128 43.0368 66.1999 43.1327 66.5185C43.2286 66.8372 43.3665 67.0795 43.5464 67.2457C43.728 67.4119 43.9464 67.4949 44.2016 67.4949ZM48.7239 68.0602C48.3368 68.0602 48.007 67.9549 47.7347 67.7442C47.4623 67.5318 47.2542 67.2243 47.1103 66.8217C46.9664 66.4175 46.8944 65.9293 46.8944 65.3571C46.8944 64.7884 46.9664 64.3028 47.1103 63.9002C47.2559 63.496 47.4649 63.1876 47.7372 62.9752C48.0113 62.7611 48.3402 62.654 48.7239 62.654C49.1076 62.654 49.4357 62.7611 49.708 62.9752C49.9821 63.1876 50.1911 63.496 50.335 63.9002C50.4806 64.3028 50.5534 64.7884 50.5534 65.3571C50.5534 65.9293 50.4814 66.4175 50.3375 66.8217C50.1936 67.2243 49.9855 67.5318 49.7132 67.7442C49.4408 67.9549 49.111 68.0602 48.7239 68.0602ZM48.7239 67.4949C49.1076 67.4949 49.4057 67.3099 49.6181 66.9399C49.8305 66.5699 49.9367 66.0423 49.9367 65.3571C49.9367 64.9015 49.8879 64.5135 49.7902 64.1932C49.6943 63.8728 49.5556 63.6287 49.374 63.4609C49.1941 63.293 48.9774 63.209 48.7239 63.209C48.3436 63.209 48.0464 63.3966 47.8323 63.7718C47.6182 64.1452 47.5111 64.6736 47.5111 65.3571C47.5111 65.8128 47.5591 66.1999 47.655 66.5185C47.7509 66.8372 47.8888 67.0795 48.0687 67.2457C48.2503 67.4119 48.4687 67.4949 48.7239 67.4949ZM53.3798 62.726V67.9883H52.7426V63.394H52.7117L51.427 64.2471V63.5996L52.7426 62.726H53.3798Z" fill="white"/>
<path d="M41.8767 43.2323L41.0057 36.9955L34.8359 38.2806L48.3693 19.0586L55.404 24.0042L41.8767 43.2323Z" fill="#F36868"/>
<path d="M68.4084 43.2323L69.2793 36.9955L75.4431 38.2806L61.9158 19.0586L54.875 24.0042L68.4084 43.2323Z" fill="#F36868"/>
<path d="M71.3862 17.568L69.8757 18.506C69.5955 18.6826 69.5468 19.0724 69.7783 19.31L71.0208 20.5829C71.2887 20.857 71.1791 21.326 70.8076 21.4417L69.1144 21.9898C68.7977 22.0934 68.6576 22.4649 68.8281 22.7512L69.7295 24.286C69.9244 24.621 69.7052 25.0412 69.3154 25.0717L67.543 25.1996C67.208 25.224 66.9888 25.5468 67.0801 25.8696L67.5917 27.5749C67.7014 27.9465 67.3846 28.2997 67.007 28.2388L65.2529 27.9343C64.924 27.8795 64.6256 28.1414 64.6439 28.4703L64.7352 30.2487C64.7535 30.6324 64.3637 30.9065 64.0104 30.7542L62.3781 30.0416C62.0736 29.9077 61.7204 30.0904 61.6595 30.4193L61.3184 32.1673C61.2453 32.5449 60.8007 32.7154 60.4901 32.484L59.077 31.3999C58.8151 31.1989 58.4314 31.2902 58.2913 31.5948L57.5422 33.2088C57.3777 33.5559 56.9027 33.6168 56.6651 33.3123L55.5506 31.9237C55.3435 31.6618 54.9476 31.6618 54.7405 31.9237L53.6259 33.3123C53.3823 33.6108 52.9133 33.5559 52.7489 33.2088L51.9997 31.5948C51.8596 31.2902 51.4759 31.1989 51.214 31.3999L49.801 32.484C49.4965 32.7215 49.0458 32.551 48.9727 32.1673L48.6316 30.4193C48.5707 30.0904 48.2174 29.9077 47.9129 30.0416L46.2806 30.7542C45.9274 30.9065 45.5315 30.6385 45.5558 30.2487L45.6472 28.4703C45.6655 28.1353 45.367 27.8734 45.0381 27.9343L43.284 28.2388C42.9064 28.3058 42.5897 27.9465 42.6993 27.5749L43.2109 25.8696C43.3084 25.5529 43.083 25.224 42.7481 25.1996L40.9757 25.0717C40.592 25.0473 40.3666 24.621 40.5615 24.286L41.4629 22.7512C41.6335 22.4649 41.4934 22.0934 41.1767 21.9898L39.4835 21.4417C39.118 21.3199 39.0023 20.857 39.2703 20.5829L40.5128 19.31C40.7442 19.0724 40.7016 18.6765 40.4153 18.506L38.9049 17.568C38.576 17.3671 38.576 16.8859 38.9049 16.6849L40.4153 15.7469C40.6955 15.5703 40.7442 15.1805 40.5128 14.943L39.2703 13.67C39.0023 13.396 39.112 12.9331 39.4835 12.8113L41.1767 12.2631C41.4934 12.1596 41.6335 11.788 41.4629 11.5018L40.5615 9.96694C40.3666 9.63195 40.5859 9.2117 40.9757 9.18125L42.7481 9.05334C43.083 9.02898 43.3023 8.70618 43.2109 8.38337L42.6993 6.678C42.5897 6.30647 42.9064 5.95321 43.284 6.01412L45.0381 6.31865C45.367 6.37347 45.6655 6.11157 45.6472 5.78268L45.5558 4.00421C45.5376 3.6205 45.9274 3.34643 46.2806 3.49869L47.9129 4.21129C48.2174 4.34529 48.5707 4.16257 48.6316 3.83368L48.9727 2.08567C49.0458 1.70805 49.4904 1.53751 49.801 1.76895L51.214 2.85308C51.4759 3.05408 51.8596 2.96272 51.9997 2.65818L52.7489 1.04417C52.9133 0.697002 53.3884 0.636096 53.6259 0.940627L54.7405 2.32929C54.9476 2.59119 55.3435 2.59119 55.5506 2.32929L56.6651 0.940627C56.9088 0.642187 57.3777 0.697002 57.5422 1.04417L58.2913 2.65818C58.4314 2.96272 58.8151 3.05408 59.077 2.85308L60.4901 1.76895C60.7946 1.53142 61.2453 1.70196 61.3184 2.08567L61.6595 3.83368C61.7204 4.16257 62.0736 4.34529 62.3781 4.21129L64.0104 3.49869C64.3637 3.34643 64.7596 3.61441 64.7352 4.00421L64.6439 5.78268C64.6256 6.11766 64.924 6.37956 65.2529 6.31865L67.007 6.01412C67.3846 5.94712 67.7014 6.30647 67.5917 6.678L67.0801 8.38337C66.9827 8.70009 67.208 9.02898 67.543 9.05334L69.3154 9.18125C69.6991 9.20561 69.9244 9.63195 69.7295 9.96694L68.8281 11.5018C68.6576 11.788 68.7977 12.1596 69.1144 12.2631L70.8076 12.8113C71.173 12.9331 71.2887 13.396 71.0208 13.67L69.7783 14.943C69.5468 15.1805 69.5895 15.5764 69.8757 15.7469L71.3862 16.6849C71.7151 16.8859 71.7151 17.3671 71.3862 17.568Z" fill="#FFEA9F"/>
<path d="M55.1434 28.9743C61.6893 28.9743 66.9957 23.6678 66.9957 17.1219C66.9957 10.576 61.6893 5.26953 55.1434 5.26953C48.5975 5.26953 43.291 10.576 43.291 17.1219C43.291 23.6678 48.5975 28.9743 55.1434 28.9743Z" fill="#FECB0F"/>
</svg>
